<svg xmlns="http://www.w3.org/2000/svg" xmlns:xlink="http://www.w3.org/1999/xlink" width="4800" height="900" viewBox="0 0 4800 900"><defs><style>.cls-1{fill:url(#linear-gradient);}.cls-2{fill:#332e66;}.cls-3{fill:#89cce5;}.cls-4{fill:url(#linear-gradient-2);}.cls-5{fill:url(#radial-gradient);}.cls-6{fill:url(#radial-gradient-2);}.cls-7{fill:url(#radial-gradient-3);}.cls-8{fill:url(#radial-gradient-4);}.cls-9{fill:url(#radial-gradient-5);}.cls-10{fill:url(#linear-gradient-3);}.cls-11{fill:url(#linear-gradient-4);}.cls-12{fill:#545252;}.cls-13{fill:#282828;}.cls-14{fill:#3a56af;}.cls-15{fill:#6584d1;}.cls-16{fill:#183170;}.cls-17{fill:#ffe197;}.cls-18{fill:#ffeec7;}.cls-19{fill:#3a1010;}.cls-20{fill:#fff;}.cls-21{fill:#4f5556;}.cls-22{fill:#4c4c4c;}.cls-23{fill:#3d3d3d;}.cls-24{fill:#152230;}.cls-25{fill:url(#linear-gradient-5);}.cls-26{fill:url(#linear-gradient-6);}.cls-27{fill:url(#linear-gradient-7);}.cls-28{fill:url(#linear-gradient-8);}.cls-29{fill:url(#linear-gradient-9);}.cls-30{fill:url(#linear-gradient-10);}.cls-31{fill:url(#linear-gradient-11);}.cls-32{fill:url(#linear-gradient-12);}.cls-33{fill:url(#linear-gradient-13);}.cls-34{fill:url(#linear-gradient-14);}.cls-35{fill:url(#linear-gradient-15);}.cls-36{fill:url(#linear-gradient-16);}.cls-37{fill:url(#linear-gradient-17);}.cls-38{fill:url(#linear-gradient-18);}.cls-39{fill:url(#linear-gradient-19);}.cls-40{fill:url(#linear-gradient-20);}.cls-41{fill:#ce7424;}.cls-42{fill:#db872c;}.cls-43{fill:#a58553;}.cls-44{fill:#f4912d;}.cls-45{fill:#ffae4d;}.cls-46{fill:#ffb850;}.cls-47{fill:#b5b5b5;}.cls-48{fill:#ccc;}.cls-49{fill:#b5601a;}.cls-50{fill:#ffdf7b;}.cls-51{fill:#c1a065;}.cls-52{fill:#7a5e38;}.cls-53{fill:#65abc1;}.cls-54{fill:url(#linear-gradient-21);}.cls-55{fill:#ea8f34;}.cls-56{fill:#fca13d;}.cls-57{fill:#280303;}.cls-58{fill:#f4ff94;}.cls-59{fill:#3f3f3f;}.cls-60{fill:none;stroke:#3f3f3f;stroke-miterlimit:10;stroke-width:12px;}</style><linearGradient id="linear-gradient" x1="2400" y1="627" x2="2400" y2="778" gradientUnits="userSpaceOnUse"><stop offset="0" stop-color="#b3b3b3"/><stop offset="1" stop-color="gray"/></linearGradient><linearGradient id="linear-gradient-2" x1="2400" y1="555" x2="2400" y2="627" gradientUnits="userSpaceOnUse"><stop offset="0" stop-color="#806fc9"/><stop offset="1" stop-color="#332e66"/></linearGradient><radialGradient id="radial-gradient" cx="507" cy="254" r="291.57" gradientTransform="translate(0 127) scale(1 0.5)" gradientUnits="userSpaceOnUse"><stop offset="0" stop-color="#fff" stop-opacity="0.6"/><stop offset="0.41" stop-color="#fff" stop-opacity="0.59"/><stop offset="0.56" stop-color="#fff" stop-opacity="0.57"/><stop offset="0.67" stop-color="#fff" stop-opacity="0.52"/><stop offset="0.75" stop-color="#fff" stop-opacity="0.45"/><stop offset="0.83" stop-color="#fff" stop-opacity="0.37"/><stop offset="0.89" stop-color="#fff" stop-opacity="0.26"/><stop offset="0.95" stop-color="#fff" stop-opacity="0.14"/><stop offset="1" stop-color="#fff" stop-opacity="0"/></radialGradient><radialGradient id="radial-gradient-2" cx="1325" cy="308" r="291.57" gradientTransform="translate(0 154) scale(1 0.5)" xlink:href="#radial-gradient"/><radialGradient id="radial-gradient-3" cx="3435" cy="274" r="291.57" gradientTransform="translate(0 137) scale(1 0.5)" xlink:href="#radial-gradient"/><radialGradient id="radial-gradient-4" cx="4385" cy="221" r="291.57" gradientTransform="translate(0 110.5) scale(1 0.5)" xlink:href="#radial-gradient"/><radialGradient id="radial-gradient-5" cx="4066" cy="1610.56" r="291.57" gradientTransform="translate(0 -266.7) scale(1 0.33)" xlink:href="#radial-gradient"/><linearGradient id="linear-gradient-3" x1="3900.21" y1="349" x2="3900.21" y2="557" gradientUnits="userSpaceOnUse"><stop offset="0" stop-color="#fcfca4"/><stop offset="1" stop-color="#f4912d"/></linearGradient><linearGradient id="linear-gradient-4" x1="2005.21" x2="2005.21" xlink:href="#linear-gradient-3"/><linearGradient id="linear-gradient-5" x1="329.5" y1="-166" x2="329.5" y2="184" gradientUnits="userSpaceOnUse"><stop offset="0" stop-color="#fcfca4"/><stop offset="0.11" stop-color="#fae489"/><stop offset="0.28" stop-color="#f8c668"/><stop offset="0.44" stop-color="#f6af4e"/><stop offset="0.62" stop-color="#f59e3c"/><stop offset="0.8" stop-color="#f49431"/><stop offset="1" stop-color="#f4912d"/></linearGradient><linearGradient id="linear-gradient-6" x1="539.36" y1="9" x2="539.36" y2="204" xlink:href="#linear-gradient-5"/><linearGradient id="linear-gradient-7" x1="155" y1="106.32" x2="155" y2="236" xlink:href="#linear-gradient-5"/><linearGradient id="linear-gradient-8" x1="418.17" y1="204" x2="418.17" y2="322" xlink:href="#linear-gradient-5"/><linearGradient id="linear-gradient-9" x1="806.44" y1="55" x2="806.44" y2="184" xlink:href="#linear-gradient-3"/><linearGradient id="linear-gradient-10" x1="1101.5" y1="-120.15" x2="1101.5" y2="296.01" xlink:href="#linear-gradient-3"/><linearGradient id="linear-gradient-11" x1="1279.63" y1="107" x2="1279.63" y2="302" xlink:href="#linear-gradient-3"/><linearGradient id="linear-gradient-12" x1="915.92" y1="205" x2="915.92" y2="350" xlink:href="#linear-gradient-3"/><linearGradient id="linear-gradient-13" x1="1816" y1="198.27" x2="1816" y2="357" xlink:href="#linear-gradient-5"/><linearGradient id="linear-gradient-14" x1="1591.5" y1="-92" x2="1591.5" y2="217" xlink:href="#linear-gradient-5"/><linearGradient id="linear-gradient-15" x1="1661.5" y1="-21" x2="1661.5" y2="330" xlink:href="#linear-gradient-5"/><linearGradient id="linear-gradient-16" x1="1469.7" y1="135" x2="1469.7" y2="374" xlink:href="#linear-gradient-5"/><linearGradient id="linear-gradient-17" x1="3232.24" y1="29" x2="3232.24" y2="184.78" xlink:href="#linear-gradient-5"/><linearGradient id="linear-gradient-18" x1="3583" y1="-197" x2="3583" y2="254" xlink:href="#linear-gradient-5"/><linearGradient id="linear-gradient-19" x1="3867.88" y1="-8" x2="3867.88" xlink:href="#linear-gradient-5"/><linearGradient id="linear-gradient-20" x1="3393.53" y1="114.51" x2="3393.53" y2="295" xlink:href="#linear-gradient-5"/><linearGradient id="linear-gradient-21" x1="2201" y1="297" x2="2201" y2="346" gradientUnits="userSpaceOnUse"><stop offset="0" stop-opacity="0.2"/><stop offset="1" stop-opacity="0.2"/></linearGradient></defs><title>Artboard 18</title><g id="Layer_9" data-name="Layer 9"><rect class="cls-1" y="627" width="4800" height="151"/><rect class="cls-2" y="778" width="4800" height="122"/><rect class="cls-3" width="4800" height="591"/><rect class="cls-4" y="555" width="4800" height="72"/><path class="cls-5" d="M789.7,230c-15.37-32-57.34-56.15-108.72-61.09-.39-33.15-34.7-59.93-77-59.93-26.42,0-49.72,10.46-63.59,26.39a95.51,95.51,0,0,0-149.59,23.07A178.76,178.76,0,0,0,342,152c-29.1,0-55.15,6.27-72.57,16.14C186.63,170.51,121,203.34,121,243.5c0,27.86,31.58,52.19,78.56,65.27a12.87,12.87,0,0,0-.56,3.73c0,18.5,40.29,33.5,90,33.5a229.2,229.2,0,0,0,32.94-2.31C339.13,375.7,391.75,399,454,399c54.9,0,102.31-18.12,124.54-44.36C591.45,371.47,617.7,383,648,383c40.89,0,74.41-21,77.71-47.67C743,342.05,764.16,346,787,346c58.54,0,106-26,106-58C893,256.46,847,230.8,789.7,230Z"/><path class="cls-6" d="M1607.7,284c-15.37-32-57.34-56.15-108.72-61.09-.39-33.15-34.7-59.93-77-59.93-26.42,0-49.72,10.46-63.59,26.39a95.51,95.51,0,0,0-149.59,23.07A178.76,178.76,0,0,0,1160,206c-29.1,0-55.15,6.27-72.57,16.14C1004.63,224.51,939,257.34,939,297.5c0,27.86,31.58,52.19,78.56,65.27a12.87,12.87,0,0,0-.56,3.73c0,18.5,40.29,33.5,90,33.5a229.2,229.2,0,0,0,32.94-2.31c17.19,32,69.81,55.31,132.06,55.31,54.9,0,102.31-18.12,124.54-44.36C1409.45,425.47,1435.7,437,1466,437c40.89,0,74.41-21,77.71-47.67C1561,396.05,1582.16,400,1605,400c58.54,0,106-26,106-58C1711,310.46,1665,284.8,1607.7,284Z"/><path class="cls-7" d="M3717.7,250c-15.37-32-57.34-56.15-108.72-61.09-.39-33.15-34.7-59.93-77-59.93-26.42,0-49.72,10.46-63.59,26.39a95.51,95.51,0,0,0-149.59,23.07A178.76,178.76,0,0,0,3270,172c-29.1,0-55.15,6.27-72.57,16.14-82.8,2.37-148.43,35.2-148.43,75.36,0,27.86,31.58,52.19,78.56,65.27a12.87,12.87,0,0,0-.56,3.73c0,18.5,40.29,33.5,90,33.5a229.2,229.2,0,0,0,32.94-2.31c17.19,32,69.81,55.31,132.06,55.31,54.9,0,102.31-18.12,124.54-44.36C3519.45,391.47,3545.7,403,3576,403c40.89,0,74.41-21,77.71-47.67C3671,362.05,3692.16,366,3715,366c58.54,0,106-26,106-58C3821,276.46,3775,250.8,3717.7,250Z"/><path class="cls-8" d="M4667.7,197c-15.37-32-57.34-56.15-108.72-61.09-.39-33.15-34.7-59.93-77-59.93-26.42,0-49.72,10.46-63.59,26.39a95.51,95.51,0,0,0-149.59,23.07A178.76,178.76,0,0,0,4220,119c-29.1,0-55.15,6.27-72.57,16.14-82.8,2.37-148.43,35.2-148.43,75.36,0,27.86,31.58,52.19,78.56,65.27a12.87,12.87,0,0,0-.56,3.73c0,18.5,40.29,33.5,90,33.5a229.2,229.2,0,0,0,32.94-2.31c17.19,32,69.81,55.31,132.06,55.31,54.9,0,102.31-18.12,124.54-44.36C4469.45,338.47,4495.7,350,4526,350c40.89,0,74.41-21,77.71-47.67C4621,309.05,4642.16,313,4665,313c58.54,0,106-26,106-58C4771,223.46,4725,197.8,4667.7,197Z"/><path class="cls-9" d="M4348.7,256c-15.37-21.41-57.34-37.57-108.72-40.87-.39-22.17-34.7-40.09-77-40.09-26.42,0-49.72,7-63.59,17.65-17.14-10.93-40.35-17.65-65.91-17.65-36.05,0-67.43,13.36-83.68,33.09a262,262,0,0,0-48.82-4.32c-29.1,0-55.15,4.19-72.57,10.79C3745.63,216.15,3680,238.11,3680,265c0,18.63,31.58,34.91,78.56,43.66a6,6,0,0,0-.56,2.49c0,12.38,40.29,22.41,90,22.41,11.63,0,22.74-.54,32.94-1.54,17.19,21.41,69.81,37,132.06,37,54.9,0,102.31-12.12,124.54-29.67,12.91,11.25,39.16,19,69.46,19,40.89,0,74.41-14,77.71-31.9,17.3,4.5,38.45,7.14,61.29,7.14,58.54,0,106-17.37,106-38.8C4452,273.65,4406,256.48,4348.7,256Z"/><path class="cls-10" d="M4025,556.68q5,.32,10.22.32c2.26,0,4.49,0,6.71-.14l12.71.14-1.12-1c41.6-4.74,72.91-25.32,72.91-50,0-26.64-36.5-48.5-83-50.81a34.81,34.81,0,0,0,6.23-19.83c0-20.51-18.06-37.13-40.35-37.13a42.72,42.72,0,0,0-21.77,5.86c-.69-21.51-22-38.77-48.13-38.77a53.92,53.92,0,0,0-32.25,10.26C3901.42,360.15,3884.7,349,3865,349c-22.31,0-40.77,14.25-43.81,32.79a59.2,59.2,0,0,0-23.39-4.71c-28.42,0-51.46,19.32-51.46,43.17a36.89,36.89,0,0,0,2.64,13.68c-14.94,4.33-25.44,14.55-25.44,26.47a20.47,20.47,0,0,0,1.26,7C3695.9,471.12,3674,489,3674,510.51c0,24.17,27.87,44.49,62,44.49"/><path class="cls-11" d="M2130,556.68q5,.32,10.22.32c2.26,0,4.49,0,6.71-.14l12.71.14-1.12-1c41.6-4.74,72.91-25.32,72.91-50,0-26.64-36.5-48.5-83-50.81a34.81,34.81,0,0,0,6.23-19.83c0-20.51-18.06-37.13-40.35-37.13a42.72,42.72,0,0,0-21.77,5.86c-.69-21.51-22-38.77-48.13-38.77a53.92,53.92,0,0,0-32.25,10.26C2006.42,360.15,1989.7,349,1970,349c-22.31,0-40.77,14.25-43.81,32.79a59.2,59.2,0,0,0-23.39-4.71c-28.42,0-51.46,19.32-51.46,43.17a36.89,36.89,0,0,0,2.64,13.68c-14.94,4.33-25.44,14.55-25.44,26.47a20.47,20.47,0,0,0,1.26,7C1800.9,471.12,1779,489,1779,510.51c0,24.17,24.87,44.49,59,44.49"/><rect class="cls-12" x="3002" y="208" width="14" height="1"/><rect class="cls-12" x="3002" y="337" width="14" height="1"/><rect class="cls-12" x="3002" y="480" width="14" height="1"/><rect class="cls-13" x="1954" y="481" width="17" height="75"/><path class="cls-14" d="M1961,389h19.41a7.59,7.59,0,0,1,7.59,7.59V503.41a7.59,7.59,0,0,1-7.59,7.59H1961"/><path class="cls-15" d="M1961,392h15.81c3.42,0,6.19,3.23,6.19,7.22V500.78c0,4-2.77,7.22-6.19,7.22H1961"/><path class="cls-14" d="M1961,393h15.09c3.27,0,5.91,3.18,5.91,7.09v99.82c0,3.91-2.64,7.09-5.91,7.09H1961"/><path class="cls-15" d="M1961,432h12.94c2.79,0,5.06,1.89,5.06,4.23v59.54c0,2.34-2.27,4.23-5.06,4.23H1961"/><path class="cls-14" d="M1961,432h12.22c2.64,0,4.78,1.87,4.78,4.17v58.66c0,2.3-2.14,4.17-4.78,4.17H1961"/><path class="cls-15" d="M1961,443h8.63a3.15,3.15,0,0,1,3.37,2.86v40.28a3.15,3.15,0,0,1-3.37,2.86H1961"/><rect class="cls-16" x="1968" y="434" width="20" height="1"/><path class="cls-17" d="M1961,446h7.19a2.66,2.66,0,0,1,2.81,2.49v35a2.66,2.66,0,0,1-2.81,2.49H1961"/><path class="cls-15" d="M1961,433h5c1.09,0,2,.33,2,.75v10.5c0,.42-.88.75-2,.75h-5"/><path class="cls-15" d="M1961,432h25a2,2,0,0,1,2,2v0a0,0,0,0,1,0,0h-27a0,0,0,0,1,0,0v-2A0,0,0,0,1,1961,432Z"/><path class="cls-17" d="M1961,436h3.59c.78,0,1.41.22,1.41.5v7c0,.28-.63.5-1.41.5H1961"/><rect class="cls-16" x="1961" y="415" width="22" height="1"/><polyline class="cls-15" points="1982 409 1961 409 1961 407 1980.2 407"/><rect class="cls-15" x="1981" y="409" width="1" height="6"/><path class="cls-15" d="M1962,389h-19.41a7.59,7.59,0,0,0-7.59,7.59V503.41a7.59,7.59,0,0,0,7.59,7.59H1962"/><path class="cls-14" d="M1962,392h-15.81c-3.42,0-6.19,3.23-6.19,7.22V500.78c0,4,2.77,7.22,6.19,7.22H1962"/><path class="cls-15" d="M1962,393h-15.09c-3.27,0-5.91,3.18-5.91,7.09v99.82c0,3.91,2.64,7.09,5.91,7.09H1962"/><path class="cls-14" d="M1962,432h-12.94c-2.79,0-5.06,1.89-5.06,4.23v59.54c0,2.34,2.27,4.23,5.06,4.23H1962"/><path class="cls-15" d="M1962,432h-12.22c-2.64,0-4.78,1.87-4.78,4.17v58.66c0,2.3,2.14,4.17,4.78,4.17H1962"/><path class="cls-14" d="M1962,443h-8.63a3.15,3.15,0,0,0-3.37,2.86v40.28a3.15,3.15,0,0,0,3.37,2.86H1962"/><rect class="cls-16" x="1935" y="434" width="20" height="1" transform="translate(3890 869) rotate(-180)"/><path class="cls-18" d="M1962,446h-7.19a2.66,2.66,0,0,0-2.81,2.49v35a2.66,2.66,0,0,0,2.81,2.49H1962"/><path class="cls-14" d="M1962,433h-5c-1.09,0-2,.33-2,.75v10.5c0,.42.88.75,2,.75h5"/><path class="cls-14" d="M1955,434h7v-2h-25a2,2,0,0,0-2,2h20"/><path class="cls-18" d="M1962,436h-3.59c-.78,0-1.41.22-1.41.5v7c0,.28.63.5,1.41.5H1962"/><rect class="cls-16" x="1940" y="415" width="22" height="1" transform="translate(3902 831) rotate(-180)"/><polyline class="cls-14" points="1941 409 1962 409 1962 407 1942.8 407"/><rect class="cls-19" x="1942" y="409" width="20" height="6" transform="translate(3904 824) rotate(-180)"/><rect class="cls-14" x="1941" y="409" width="1" height="6" transform="translate(3883 824) rotate(-180)"/><rect class="cls-19" x="1962" y="409" width="19" height="6" transform="translate(3943 824) rotate(-180)"/><rect class="cls-20" x="3527.97" y="477.16" width="2.35" height="21.18"/><path class="cls-21" d="M3467.37,459.27A44.37,44.37,0,1,1,3423,503.63a44.41,44.41,0,0,1,44.37-44.36m0-8a52.37,52.37,0,1,0,52.36,52.36,52.36,52.36,0,0,0-52.36-52.36Z"/><path class="cls-21" d="M3615.63,459.27a44.37,44.37,0,1,1-44.36,44.36,44.41,44.41,0,0,1,44.36-44.36m0-8A52.37,52.37,0,1,0,3668,503.63a52.36,52.36,0,0,0-52.37-52.36Z"/><circle class="cls-22" cx="3615.63" cy="503.36" r="4.8"/><circle class="cls-20" cx="3529.73" cy="509.52" r="1.77"/><rect class="cls-23" x="3522.08" y="470.1" width="18.83" height="8.24" rx="3.5"/><circle class="cls-22" cx="3467.37" cy="503.36" r="4.8"/><path class="cls-20" d="M3466.78,463.15a41.07,41.07,0,1,1-41.07,41.07,41.12,41.12,0,0,1,41.07-41.07m0-6a47.07,47.07,0,1,0,47.07,47.07,47.07,47.07,0,0,0-47.07-47.07Z"/><polygon class="cls-21" points="3503.54 427.83 3464.26 503.14 3469.48 505.87 3508.76 430.55 3503.54 427.83 3503.54 427.83"/><path class="cls-20" d="M3615.05,463.15A41.07,41.07,0,1,1,3574,504.22a41.12,41.12,0,0,1,41.07-41.07m0-6a47.07,47.07,0,1,0,47.07,47.07,47.07,47.07,0,0,0-47.07-47.07Z"/><polygon class="cls-21" points="3600.93 425.38 3506.79 425.38 3506.79 431.26 3600.93 431.26 3600.93 425.38 3600.93 425.38"/><polygon class="cls-21" points="3603.05 424.44 3597.29 425.65 3614.11 505.53 3619.87 504.32 3603.05 424.44 3603.05 424.44"/><polygon class="cls-21" points="3603.28 407.73 3597.39 407.73 3597.39 426.56 3603.28 426.56 3603.28 407.73 3603.28 407.73"/><path class="cls-21" d="M3618.43,403.61h-22.65a2.5,2.5,0,0,0-2.5,2.5V407a2.5,2.5,0,0,0,2.5,2.5h22.65a2.5,2.5,0,0,0,2.5-2.5v-.89a2.5,2.5,0,0,0-2.5-2.5Z"/><polygon class="cls-21" points="3505.24 411.99 3499.59 413.62 3504.8 431.71 3510.46 430.08 3505.24 411.99 3505.24 411.99"/><rect class="cls-2" x="3490.31" y="405.38" width="35.3" height="11.77" rx="5" transform="translate(-19.81 238.83) rotate(-3.89)"/><polygon class="cls-21" points="3511.24 428.62 3505.55 430.13 3524.32 500.5 3530 498.98 3511.24 428.62 3511.24 428.62"/><polygon class="cls-21" points="3600.03 432.72 3535.3 497.44 3539.47 501.6 3604.19 436.88 3600.03 432.72 3600.03 432.72"/><path class="cls-23" d="M3529.73,498a11.53,11.53,0,1,1-11.53,11.53A11.55,11.55,0,0,1,3529.73,498m0-2a13.53,13.53,0,1,0,13.54,13.53A13.53,13.53,0,0,0,3529.73,496Z"/><path class="cls-20" d="M3529.58,499.51a10.16,10.16,0,1,1-10.16,10.16,10.17,10.17,0,0,1,10.16-10.16m0-2a12.16,12.16,0,1,0,12.16,12.16,12.15,12.15,0,0,0-12.16-12.16Z"/><rect class="cls-20" x="3529.14" y="499.52" width="1.18" height="21.18"/><rect class="cls-20" x="3529.14" y="498.34" width="1.18" height="22.36" transform="translate(4039.25 -3020.21) rotate(90)"/><rect class="cls-20" x="3529.14" y="499.52" width="1.18" height="21.18" transform="translate(673.13 2645.3) rotate(-45)"/><rect class="cls-20" x="3529.14" y="498.34" width="1.18" height="21.18" transform="translate(1393.7 -2346.84) rotate(45)"/><rect class="cls-20" x="3529.14" y="510.11" width="2.35" height="29.42"/><rect class="cls-23" x="3520.91" y="534.82" width="18.83" height="8.24" rx="3.5"/><rect class="cls-24" x="293" width="73" height="555"/><rect class="cls-24" x="238.76" y="125.72" width="25.56" height="247.49" transform="translate(-102.72 250.93) rotate(-45)"/><rect class="cls-24" x="255.69" y="346.2" width="237.02" height="20" transform="translate(-127.17 480.82) rotate(-57.55)"/><rect class="cls-24" x="299.73" y="217.18" width="237.02" height="25.12" transform="translate(-31.4 389.52) rotate(-48.34)"/><ellipse class="cls-25" cx="329.5" cy="9" rx="264.5" ry="175"/><ellipse class="cls-26" cx="539.36" cy="106.5" rx="147.36" ry="97.5"/><ellipse class="cls-27" cx="155" cy="171.16" rx="98" ry="64.84"/><ellipse class="cls-28" cx="418.17" cy="263" rx="89.17" ry="59"/><rect class="cls-24" x="1065" width="73" height="555"/><rect class="cls-24" x="1042.25" y="288.65" width="300.5" height="27.36" transform="translate(174 992.34) rotate(-48.34)"/><rect class="cls-24" x="1015.9" y="232.83" width="20.07" height="194.43" transform="translate(144.24 949.81) rotate(-52.94)"/><ellipse class="cls-29" cx="806.44" cy="119.5" rx="97.49" ry="64.5"/><ellipse class="cls-30" cx="1101.5" cy="87.93" rx="314.5" ry="208.08"/><ellipse class="cls-31" cx="1279.63" cy="204.5" rx="147.36" ry="97.5"/><ellipse class="cls-32" cx="915.92" cy="277.5" rx="109.58" ry="72.5"/><rect class="cls-24" x="1542" width="73" height="555"/><rect class="cls-24" x="1540.24" y="339.72" width="264.47" height="20.65" transform="translate(49.05 883.13) rotate(-30)"/><rect class="cls-24" x="1484.12" y="232.42" width="32.87" height="283.27" transform="translate(-21.41 648.26) rotate(-24.21)"/><ellipse class="cls-33" cx="1816" cy="277.64" rx="122" ry="79.36"/><ellipse class="cls-34" cx="1591.5" cy="62.5" rx="237.5" ry="154.5"/><ellipse class="cls-35" cx="1661.5" cy="154.5" rx="261.5" ry="175.5"/><ellipse class="cls-36" cx="1469.7" cy="254.5" rx="183.7" ry="119.5"/><rect class="cls-24" x="3547" width="73" height="555"/><rect class="cls-24" x="3549.81" y="226.89" width="345.53" height="36.03" transform="translate(917.15 2703.99) rotate(-45)"/><rect class="cls-24" x="3426.21" y="96.59" width="22.29" height="349.89" transform="translate(931.78 2640.34) rotate(-47.91)"/><ellipse class="cls-37" cx="3232.24" cy="106.89" rx="121.24" ry="77.89"/><ellipse class="cls-38" cx="3583" cy="28.5" rx="351" ry="225.5"/><ellipse class="cls-39" cx="3867.88" cy="88" rx="149.43" ry="96"/><ellipse class="cls-40" cx="3393.53" cy="204.75" rx="140.47" ry="90.25"/><rect class="cls-41" x="2022" y="64" width="980" height="493"/><polygon class="cls-42" points="2022 174.54 3002 174.54 3002 213 2065.58 207.03 2022 206.75 2022 174.54"/><polygon class="cls-42" points="2022 226.97 2022 251.48 3002 273 3002 226.97 2022 226.97"/><polygon class="cls-42" points="2022 320 2022 346 3002 346 3002 327 2022 320"/><rect class="cls-42" x="2273" y="415" width="77" height="21"/><polygon class="cls-42" points="2124 471 2124 495 2048 495 2048 462 2124 471"/><polygon class="cls-42" points="2284.53 512.52 2284.53 535.21 2350 535 2350 513 2284.53 512.52"/><polygon class="cls-42" points="2584 425.5 2584 457 3002 462 3002 415 2584 425.5"/><polygon class="cls-43" points="2266 557 2136 557 2130 308 2273 308 2266 557"/><polygon class="cls-44" points="3019 111 2003 111 2036 -16 2987 -6.5 3019 111"/><polyline class="cls-45" points="2862 56 2933 56 2940 74 2993 74 2966 -16 2801 -32"/><polygon class="cls-46" points="2062.63 -16 2048 47 2072 47 2066 74 2106 74 2109 57 2127 58 2132 36 2157 37 2150 74 2328 74 2333 44 2350 45 2350 74 2465 74 2465 55 2503 56 2503 42 2616 43 2724 -22 2062.63 -16"/><polygon class="cls-20" points="2283.14 557 2118.59 557 2111 273 2292 273 2283.14 557"/><polygon class="cls-20" points="2201.81 226.97 2264.9 251.48 2328 276 2201.81 276 2075.61 276 2138.71 251.48 2201.81 226.97"/><polygon class="cls-20" points="2201.81 213 2264.9 244.5 2328 276 2201.81 276 2075.61 276 2138.71 244.5 2201.81 213"/><rect class="cls-47" x="2076" y="276" width="252" height="21"/><polygon class="cls-48" points="3008 140 2015 140 2003 111 3019 111 3008 140"/><rect class="cls-20" x="2506.35" y="-28.63" width="294.76" height="26.25" transform="translate(1044.89 2094.98) rotate(-52.35)"/><rect class="cls-20" x="2672.83" y="-27.59" width="292.6" height="26.25" transform="translate(4530.36 2225.92) rotate(-127.08)"/><rect class="cls-49" x="2022" y="140" width="980" height="16"/><rect class="cls-49" x="2425" y="467" width="174" height="4"/><polygon class="cls-50" points="2111 57 2122 7 2138 7 2132 36 2127 57 2111 57"/><polygon class="cls-50" points="2150 74 2161 20 2180 20 2184 -3 2202 -3 2192 60 2179 61 2176 74 2150 74"/><polygon class="cls-50" points="2308.28 74 2328 74 2333 44 2350 44 2350 -3 2333 -3 2333 29 2313 29 2308.28 74"/><polygon class="cls-50" points="2486 0 2486 55.55 2503 56 2506 -3 2486 0"/><polygon class="cls-50" points="2940 74 2958 74 2940 18 2922 18 2940 74"/><polygon class="cls-44" points="2299 -3 2292 47 2267 47 2273 22 2252 21 2262.39 -10 2299 -3"/><polygon class="cls-44" points="2454 26 2454 -3 2432 -3 2432 21 2454 26"/><polygon class="cls-44" points="2889.54 1.11 2903 40 2929.07 40 2922 18 2940 18 2934 -10 2889.54 1.11"/><polygon class="cls-44" points="2506 -3 2504.78 21 2550 21 2550 9 2579 9 2579 -7 2506 -3"/><rect class="cls-49" x="2695" y="467" width="174" height="4"/><rect class="cls-49" x="2425" y="246" width="14" height="3"/><rect class="cls-49" x="2584" y="246" width="15" height="3"/><rect class="cls-49" x="2695" y="246" width="14" height="3"/><rect class="cls-49" x="2854" y="246" width="15" height="3"/><polyline class="cls-49" points="2076 297 2111 297 2113 346"/><polyline class="cls-49" points="2291 310 2291 297 2328 297"/><polygon class="cls-49" points="2735.94 -104.03 2878 85 2593 85 2735.94 -104.03"/><polygon class="cls-41" points="2735.48 -68 2854.21 90 2616 90 2735.48 -68"/><polygon class="cls-44" points="2806 60 2749 60 2749 35 2801 35 2806 60"/><polygon class="cls-44" points="2724 76 2684 76 2684 64 2655.2 64.52 2655 51 2710 51 2709.76 63.98 2726.88 64.52 2735.11 64 2735 76 2724 76"/><ellipse class="cls-20" cx="2735.5" cy="30.5" rx="49.5" ry="40.5"/><ellipse class="cls-3" cx="2735.17" cy="30.5" rx="31.17" ry="25.5"/><polygon class="cls-20" points="3019 111 2003 111 2010 84 3012 85 3019 111"/><polygon class="cls-51" points="2260.18 557 2141.48 557 2136 315 2266.57 315 2260.18 557"/><polygon class="cls-43" points="2256.45 557 2146.09 557 2141 320 2262.39 320 2256.45 557"/><polygon class="cls-51" points="2198 418 2151.18 418 2149 327.45 2198 327 2198 418"/><polygon class="cls-51" points="2198 548 2155.18 548 2153 457.45 2198 457 2198 548"/><polygon class="cls-51" points="2206 548 2248.82 548 2251 457.45 2206 457 2206 548"/><polygon class="cls-51" points="2206 418 2252.82 418 2255 327.45 2206 327 2206 418"/><polygon class="cls-51" points="2250.99 451 2153.01 451 2152 425 2252 425 2250.99 451"/><ellipse class="cls-52" cx="2144.5" cy="436.5" rx="14.5" ry="4.5"/><polygon class="cls-48" points="2599 236 2425 236 2427 231 2597 231 2599 236"/><rect class="cls-20" x="2439" y="246" width="145" height="211"/><rect class="cls-20" x="2425" y="236" width="174" height="10"/><rect class="cls-20" x="2425" y="457" width="174" height="10"/><rect class="cls-48" x="2454" y="245" width="116.83" height="212"/><rect class="cls-53" x="2462" y="254" width="100" height="193"/><polygon class="cls-3" points="2555.46 441.18 2467.61 441.18 2467.61 309.28 2555.46 303.46 2555.46 441.18"/><rect class="cls-48" x="2510" y="248" width="4" height="207"/><rect class="cls-48" x="2456.5" y="346" width="111.5" height="4.5"/><rect class="cls-48" x="2456.5" y="295" width="111.5" height="4.5"/><rect class="cls-48" x="2454.5" y="400" width="111.5" height="4.5"/><polygon class="cls-48" points="2869 236 2695 236 2697 231 2867 231 2869 236"/><rect class="cls-20" x="2709" y="246" width="145" height="211"/><rect class="cls-20" x="2695" y="236" width="174" height="10"/><rect class="cls-20" x="2695" y="457" width="174" height="10"/><rect class="cls-48" x="2724" y="245" width="116.83" height="212"/><rect class="cls-53" x="2732" y="254" width="100" height="193"/><polygon class="cls-3" points="2825.46 441.18 2737.61 441.18 2737.61 309.28 2825.46 303.46 2825.46 441.18"/><rect class="cls-48" x="2780" y="248" width="4" height="207"/><rect class="cls-48" x="2726.5" y="346" width="111.5" height="4.5"/><rect class="cls-48" x="2726.5" y="295" width="111.5" height="4.5"/><rect class="cls-48" x="2724.5" y="400" width="111.5" height="4.5"/><rect class="cls-42" x="2530" y="471" width="77" height="21"/><rect class="cls-42" x="2419" y="489" width="257" height="18"/><rect class="cls-42" x="2645" y="513" width="357" height="21"/><polyline class="cls-54" points="2113 346 2111 297 2291 297 2291 310"/><polygon class="cls-55" points="2291 192 2291 206.47 2368.49 211 2368 192 2291 192"/><polygon class="cls-55" points="2355 248 2355 271 2425 271 2425 244 2355 248"/><polygon class="cls-55" points="2022 239 2022 257.5 2086 257 2086 242 2022 239"/><rect class="cls-55" x="2299" y="337" width="51" height="20"/><rect class="cls-55" x="2368" y="337" width="64" height="20"/><polygon class="cls-55" points="2599 337 2599 357 2691 357 2691 344 2599 337"/><polygon class="cls-55" points="2933 331 2933 357 3002 361.92 3002 344 2933 331"/><polygon class="cls-56" points="2933 383 2933 402 3002 402.5 3002 383 2933 383"/><rect class="cls-55" x="2556" y="494" width="64" height="20"/><rect class="cls-55" x="2874" y="522" width="64" height="20"/><rect class="cls-12" x="2179" y="441" width="47" height="4"/><rect class="cls-57" x="1962" y="408" width="19" height="6"/><path class="cls-14" d="M1962,419l1.6,3.2s3.2-1.6,3.2,1.6c0,.62-.4,1.2-.4,1.6V427H1962Z"/><path class="cls-14" d="M1962,425l.21-1.16a1.11,1.11,0,0,1,.64-.81l.62-.27s2.93-1.28,2.93,1.28c0,1-.4,1-.4,1h-1.24l-.36-.8-.48.8Z"/><path class="cls-14" d="M1961.8,419l-1.6,3.2s-3.2-1.6-3.2,1.6c0,.62.4,1.2.4,1.6V427h4.4Z"/><path class="cls-15" d="M1961.8,425l-.21-1.16a1.11,1.11,0,0,0-.64-.81l-.62-.27s-2.93-1.28-2.93,1.28c0,1,.4,1,.4,1H1959l.36-.8.48.8Z"/><polygon class="cls-12" points="3009 179 3009 546 3017 546 3017 179 3040 160 3040 129 3044 125 3044 119 3019 127 3027 157 3009 179"/><rect class="cls-20" x="1051.27" y="483.83" width="2.21" height="19.93"/><path class="cls-21" d="M994.26,467.48A41.26,41.26,0,1,1,953,508.74a41.31,41.31,0,0,1,41.26-41.26m0-8a49.26,49.26,0,1,0,49.26,49.26,49.25,49.25,0,0,0-49.26-49.26Z"/><path class="cls-21" d="M1133.74,467.48a41.26,41.26,0,1,1-41.26,41.26,41.31,41.31,0,0,1,41.26-41.26m0-8A49.26,49.26,0,1,0,1183,508.74a49.25,49.25,0,0,0-49.26-49.26Z"/><circle class="cls-20" cx="1052.93" cy="514.27" r="1.66"/><rect class="cls-23" x="1045.73" y="477.19" width="17.71" height="7.75" rx="3.5"/><path class="cls-20" d="M993.71,471a38.28,38.28,0,1,1-38.28,38.28A38.33,38.33,0,0,1,993.71,471m0-6A44.28,44.28,0,1,0,1038,509.29,44.28,44.28,0,0,0,993.71,465Z"/><polygon class="cls-21" points="1028.29 437.43 991.34 508.28 996.25 510.84 1033.2 439.99 1028.29 437.43 1028.29 437.43"/><path class="cls-20" d="M1133.19,471a38.28,38.28,0,1,1-38.28,38.28A38.33,38.33,0,0,1,1133.19,471m0-6a44.28,44.28,0,1,0,44.28,44.28A44.28,44.28,0,0,0,1133.19,465Z"/><polygon class="cls-21" points="1119.9 435.13 1031.34 435.13 1031.34 440.66 1119.9 440.66 1119.9 435.13 1119.9 435.13"/><polygon class="cls-21" points="1121.9 434.24 1116.48 435.38 1132.31 510.53 1137.73 509.38 1121.9 434.24 1121.9 434.24"/><polygon class="cls-21" points="1122.12 418.52 1116.58 418.52 1116.58 436.23 1122.12 436.23 1122.12 418.52 1122.12 418.52"/><path class="cls-21" d="M1136.22,414.65h-21a2.5,2.5,0,0,0-2.5,2.5v.53a2.5,2.5,0,0,0,2.5,2.5h21a2.5,2.5,0,0,0,2.5-2.5v-.53a2.5,2.5,0,0,0-2.5-2.5Z"/><polygon class="cls-21" points="1029.89 422.53 1024.57 424.06 1029.48 441.08 1034.8 439.55 1029.89 422.53 1029.89 422.53"/><rect class="cls-2" x="1015.85" y="416.31" width="33.21" height="11.07" rx="5" transform="matrix(1, -0.07, 0.07, 1, -26.23, 70.99)"/><polygon class="cls-21" points="1034.85 438.3 1029.54 439.83 1048.52 505.66 1053.83 504.13 1034.85 438.3 1034.85 438.3"/><polygon class="cls-21" points="1119.06 442.03 1058.17 502.91 1062.09 506.83 1122.97 445.94 1119.06 442.03 1119.06 442.03"/><path class="cls-23" d="M1052.93,503.54a10.73,10.73,0,1,1-10.73,10.73,10.74,10.74,0,0,1,10.73-10.73m0-2a12.73,12.73,0,1,0,12.73,12.73,12.73,12.73,0,0,0-12.73-12.73Z"/><path class="cls-20" d="M1052.79,505a9.45,9.45,0,1,1-9.45,9.45,9.46,9.46,0,0,1,9.45-9.45m0-2a11.45,11.45,0,1,0,11.44,11.45A11.45,11.45,0,0,0,1052.79,503Z"/><rect class="cls-20" x="1052.38" y="504.87" width="1.11" height="19.93"/><rect class="cls-20" x="1052.38" y="503.76" width="1.11" height="21.03" transform="translate(1567.2 -538.66) rotate(90)"/><rect class="cls-20" x="1052.38" y="504.87" width="1.11" height="19.93" transform="translate(-55.64 895.32) rotate(-45)"/><rect class="cls-20" x="1052.38" y="503.76" width="1.11" height="19.93" transform="translate(671.65 -594.07) rotate(45)"/><rect class="cls-20" x="1052.38" y="514.83" width="2.21" height="27.67"/><rect class="cls-23" x="1044.63" y="538.07" width="17.71" height="7.75" rx="3.5"/><circle class="cls-22" cx="993.5" cy="509.27" r="4.08"/><circle class="cls-22" cx="1134.5" cy="510.27" r="4.08"/><ellipse class="cls-58" cx="4716.5" cy="62.5" rx="18.5" ry="10.5"/><rect class="cls-59" x="4469" y="18" width="17" height="537"/><rect class="cls-59" x="4463" y="522" width="29" height="33"/><rect class="cls-59" x="4464" y="10" width="27" height="36"/><rect class="cls-59" x="4483" y="83" width="8" height="36"/><path class="cls-60" d="M4480.14,110.45s66.79-102.13,213.3-59.06"/><path class="cls-59" d="M4679,44h54.87A10.13,10.13,0,0,1,4744,54.13v0a8.87,8.87,0,0,1-8.87,8.87h-52.61a3.52,3.52,0,0,1-3.52-3.52V44A0,0,0,0,1,4679,44Z"/><ellipse class="cls-58" cx="1573.5" cy="64.5" rx="18.5" ry="10.5"/><rect class="cls-59" x="1326" y="20" width="17" height="537"/><rect class="cls-59" x="1320" y="524" width="29" height="33"/><rect class="cls-59" x="1321" y="12" width="27" height="36"/><rect class="cls-59" x="1340" y="85" width="8" height="36"/><path class="cls-60" d="M1337.14,112.45s66.79-102.13,213.3-59.06"/><path class="cls-59" d="M1536,46h54.87A10.13,10.13,0,0,1,1601,56.13v0a8.87,8.87,0,0,1-8.87,8.87h-52.61a3.52,3.52,0,0,1-3.52-3.52V46A0,0,0,0,1,1536,46Z"/></g></svg>