<svg xmlns="http://www.w3.org/2000/svg" xmlns:xlink="http://www.w3.org/1999/xlink" width="4800" height="900" viewBox="0 0 4800 900"><defs><style>.cls-1{fill:url(#linear-gradient);}.cls-2{fill:#62adc4;}.cls-3{fill:#cbecf7;}.cls-4{fill:url(#linear-gradient-2);}.cls-5{fill:url(#radial-gradient);}.cls-6{fill:url(#radial-gradient-2);}.cls-7{fill:url(#radial-gradient-3);}.cls-8{fill:url(#radial-gradient-4);}.cls-9{fill:url(#radial-gradient-5);}.cls-10{fill:url(#linear-gradient-3);}.cls-11{fill:url(#linear-gradient-4);}.cls-12{fill:#545252;}.cls-13{fill:#282828;}.cls-14{fill:#ad0707;}.cls-15{fill:#e03232;}.cls-16{fill:#910909;}.cls-17{fill:#ffe197;}.cls-18{fill:#ea190f;}.cls-19{fill:#ffeec7;}.cls-20{fill:#3a1010;}.cls-21{fill:#7c6946;}.cls-22{fill:url(#linear-gradient-5);}.cls-23{fill:url(#linear-gradient-6);}.cls-24{fill:url(#linear-gradient-7);}.cls-25{fill:url(#linear-gradient-8);}.cls-26{fill:url(#linear-gradient-9);}.cls-27{fill:url(#linear-gradient-10);}.cls-28{fill:url(#linear-gradient-11);}.cls-29{fill:url(#linear-gradient-12);}.cls-30{fill:url(#linear-gradient-13);}.cls-31{fill:url(#linear-gradient-14);}.cls-32{fill:url(#linear-gradient-15);}.cls-33{fill:url(#linear-gradient-16);}.cls-34{fill:url(#linear-gradient-17);}.cls-35{fill:url(#linear-gradient-18);}.cls-36{fill:url(#linear-gradient-19);}.cls-37{fill:url(#linear-gradient-20);}.cls-38{fill:#ce7424;}.cls-39{fill:#db872c;}.cls-40{fill:#a58553;}.cls-41{fill:#f4912d;}.cls-42{fill:#ffae4d;}.cls-43{fill:#ffb850;}.cls-44{fill:#fff;}.cls-45{fill:#b5b5b5;}.cls-46{fill:#ccc;}.cls-47{fill:#b5601a;}.cls-48{fill:#ffdf7b;}.cls-49{fill:#89cce5;}.cls-50{fill:#c1a065;}.cls-51{fill:#7a5e38;}.cls-52{fill:#65abc1;}.cls-53{fill:url(#linear-gradient-21);}.cls-54{fill:#ea8f34;}.cls-55{fill:#fca13d;}.cls-56{fill:#280303;}.cls-57{fill:#4f5556;}.cls-58{fill:#3d3d3d;}.cls-59{fill:#332e66;}.cls-60{fill:#f4ff94;}.cls-61{fill:#3f3f3f;}.cls-62{fill:none;stroke:#3f3f3f;stroke-miterlimit:10;stroke-width:12px;}</style><linearGradient id="linear-gradient" x1="2400" y1="627" x2="2400" y2="778" gradientUnits="userSpaceOnUse"><stop offset="0" stop-color="#e6e6e6"/><stop offset="1" stop-color="#b3b3b3"/></linearGradient><linearGradient id="linear-gradient-2" x1="2400" y1="555" x2="2400" y2="627" gradientUnits="userSpaceOnUse"><stop offset="0" stop-color="#cbecf7"/><stop offset="0.3" stop-color="#b3e0f0"/><stop offset="0.75" stop-color="#94d2e8"/><stop offset="1" stop-color="#89cce5"/></linearGradient><radialGradient id="radial-gradient" cx="507" cy="254" r="291.57" gradientTransform="translate(0 127) scale(1 0.5)" gradientUnits="userSpaceOnUse"><stop offset="0" stop-color="#fff" stop-opacity="0.6"/><stop offset="0.41" stop-color="#fff" stop-opacity="0.59"/><stop offset="0.56" stop-color="#fff" stop-opacity="0.57"/><stop offset="0.67" stop-color="#fff" stop-opacity="0.52"/><stop offset="0.75" stop-color="#fff" stop-opacity="0.45"/><stop offset="0.83" stop-color="#fff" stop-opacity="0.37"/><stop offset="0.89" stop-color="#fff" stop-opacity="0.26"/><stop offset="0.95" stop-color="#fff" stop-opacity="0.14"/><stop offset="1" stop-color="#fff" stop-opacity="0"/></radialGradient><radialGradient id="radial-gradient-2" cx="1325" cy="308" r="291.57" gradientTransform="translate(0 154) scale(1 0.5)" xlink:href="#radial-gradient"/><radialGradient id="radial-gradient-3" cx="3435" cy="274" r="291.57" gradientTransform="translate(0 137) scale(1 0.5)" xlink:href="#radial-gradient"/><radialGradient id="radial-gradient-4" cx="4385" cy="221" r="291.57" gradientTransform="translate(0 110.5) scale(1 0.5)" xlink:href="#radial-gradient"/><radialGradient id="radial-gradient-5" cx="4066" cy="812.87" r="291.57" gradientTransform="translate(0 0.11) scale(1 0.33)" xlink:href="#radial-gradient"/><linearGradient id="linear-gradient-3" x1="3900.21" y1="349" x2="3900.21" y2="557" gradientUnits="userSpaceOnUse"><stop offset="0" stop-color="#cfc6f4"/><stop offset="1" stop-color="#8574cc"/></linearGradient><linearGradient id="linear-gradient-4" x1="2005.21" x2="2005.21" xlink:href="#linear-gradient-3"/><linearGradient id="linear-gradient-5" x1="329.5" y1="-166" x2="329.5" y2="184" gradientUnits="userSpaceOnUse"><stop offset="0" stop-color="#806fc9"/><stop offset="1" stop-color="#332e66"/></linearGradient><linearGradient id="linear-gradient-6" x1="539.36" y1="9" x2="539.36" y2="204" xlink:href="#linear-gradient-5"/><linearGradient id="linear-gradient-7" x1="155" y1="106.32" x2="155" y2="236" xlink:href="#linear-gradient-5"/><linearGradient id="linear-gradient-8" x1="418.17" y1="204" x2="418.17" y2="322" xlink:href="#linear-gradient-5"/><linearGradient id="linear-gradient-9" x1="806.44" y1="55" x2="806.44" xlink:href="#linear-gradient-5"/><linearGradient id="linear-gradient-10" x1="1101.5" y1="-120.15" x2="1101.5" y2="296.01" xlink:href="#linear-gradient-5"/><linearGradient id="linear-gradient-11" x1="1279.63" y1="107" x2="1279.63" y2="302" xlink:href="#linear-gradient-5"/><linearGradient id="linear-gradient-12" x1="915.92" y1="205" x2="915.92" y2="350" xlink:href="#linear-gradient-5"/><linearGradient id="linear-gradient-13" x1="1816" y1="198.27" x2="1816" y2="357" xlink:href="#linear-gradient-5"/><linearGradient id="linear-gradient-14" x1="1591.5" y1="-92" x2="1591.5" y2="217" xlink:href="#linear-gradient-5"/><linearGradient id="linear-gradient-15" x1="1661.5" y1="-21" x2="1661.5" y2="330" xlink:href="#linear-gradient-5"/><linearGradient id="linear-gradient-16" x1="1469.7" y1="135" x2="1469.7" y2="374" xlink:href="#linear-gradient-5"/><linearGradient id="linear-gradient-17" x1="3232.24" y1="29" x2="3232.24" y2="184.78" xlink:href="#linear-gradient-5"/><linearGradient id="linear-gradient-18" x1="3583" y1="-197" x2="3583" y2="254" xlink:href="#linear-gradient-5"/><linearGradient id="linear-gradient-19" x1="3867.88" y1="-8" x2="3867.88" xlink:href="#linear-gradient-5"/><linearGradient id="linear-gradient-20" x1="3393.53" y1="114.51" x2="3393.53" y2="295" xlink:href="#linear-gradient-5"/><linearGradient id="linear-gradient-21" x1="2201" y1="295" x2="2201" y2="344" gradientUnits="userSpaceOnUse"><stop offset="0" stop-opacity="0.2"/><stop offset="1" stop-opacity="0.2"/></linearGradient></defs><title>Artboard 17</title><g id="Layer_7" data-name="Layer 7"><rect class="cls-1" y="627" width="4800" height="151"/><rect class="cls-2" y="778" width="4800" height="122"/><rect class="cls-3" width="4800" height="591"/><rect class="cls-4" y="555" width="4800" height="72"/><path class="cls-5" d="M789.7,230c-15.37-32-57.34-56.15-108.72-61.09-.39-33.15-34.7-59.93-77-59.93-26.42,0-49.72,10.46-63.59,26.39a95.51,95.51,0,0,0-149.59,23.07A178.76,178.76,0,0,0,342,152c-29.1,0-55.15,6.27-72.57,16.14C186.63,170.51,121,203.34,121,243.5c0,27.86,31.58,52.19,78.56,65.27a12.87,12.87,0,0,0-.56,3.73c0,18.5,40.29,33.5,90,33.5a229.2,229.2,0,0,0,32.94-2.31C339.13,375.7,391.75,399,454,399c54.9,0,102.31-18.12,124.54-44.36C591.45,371.47,617.7,383,648,383c40.89,0,74.41-21,77.71-47.67C743,342.05,764.16,346,787,346c58.54,0,106-26,106-58C893,256.46,847,230.8,789.7,230Z"/><path class="cls-6" d="M1607.7,284c-15.37-32-57.34-56.15-108.72-61.09-.39-33.15-34.7-59.93-77-59.93-26.42,0-49.72,10.46-63.59,26.39a95.51,95.51,0,0,0-149.59,23.07A178.76,178.76,0,0,0,1160,206c-29.1,0-55.15,6.27-72.57,16.14C1004.63,224.51,939,257.34,939,297.5c0,27.86,31.58,52.19,78.56,65.27a12.87,12.87,0,0,0-.56,3.73c0,18.5,40.29,33.5,90,33.5a229.2,229.2,0,0,0,32.94-2.31c17.19,32,69.81,55.31,132.06,55.31,54.9,0,102.31-18.12,124.54-44.36C1409.45,425.47,1435.7,437,1466,437c40.89,0,74.41-21,77.71-47.67C1561,396.05,1582.16,400,1605,400c58.54,0,106-26,106-58C1711,310.46,1665,284.8,1607.7,284Z"/><path class="cls-7" d="M3717.7,250c-15.37-32-57.34-56.15-108.72-61.09-.39-33.15-34.7-59.93-77-59.93-26.42,0-49.72,10.46-63.59,26.39a95.51,95.51,0,0,0-149.59,23.07A178.76,178.76,0,0,0,3270,172c-29.1,0-55.15,6.27-72.57,16.14-82.8,2.37-148.43,35.2-148.43,75.36,0,27.86,31.58,52.19,78.56,65.27a12.87,12.87,0,0,0-.56,3.73c0,18.5,40.29,33.5,90,33.5a229.2,229.2,0,0,0,32.94-2.31c17.19,32,69.81,55.31,132.06,55.31,54.9,0,102.31-18.12,124.54-44.36C3519.45,391.47,3545.7,403,3576,403c40.89,0,74.41-21,77.71-47.67C3671,362.05,3692.16,366,3715,366c58.54,0,106-26,106-58C3821,276.46,3775,250.8,3717.7,250Z"/><path class="cls-8" d="M4667.7,197c-15.37-32-57.34-56.15-108.72-61.09-.39-33.15-34.7-59.93-77-59.93-26.42,0-49.72,10.46-63.59,26.39a95.51,95.51,0,0,0-149.59,23.07A178.76,178.76,0,0,0,4220,119c-29.1,0-55.15,6.27-72.57,16.14-82.8,2.37-148.43,35.2-148.43,75.36,0,27.86,31.58,52.19,78.56,65.27a12.87,12.87,0,0,0-.56,3.73c0,18.5,40.29,33.5,90,33.5a229.2,229.2,0,0,0,32.94-2.31c17.19,32,69.81,55.31,132.06,55.31,54.9,0,102.31-18.12,124.54-44.36C4469.45,338.47,4495.7,350,4526,350c40.89,0,74.41-21,77.71-47.67C4621,309.05,4642.16,313,4665,313c58.54,0,106-26,106-58C4771,223.46,4725,197.8,4667.7,197Z"/><path class="cls-9" d="M4348.7,256c-15.37-21.41-57.34-37.57-108.72-40.87-.39-22.17-34.7-40.09-77-40.09-26.42,0-49.72,7-63.59,17.65-17.14-10.93-40.35-17.65-65.91-17.65-36.05,0-67.43,13.36-83.68,33.09a262,262,0,0,0-48.82-4.32c-29.1,0-55.15,4.19-72.57,10.79C3745.63,216.15,3680,238.11,3680,265c0,18.63,31.58,34.91,78.56,43.66a6,6,0,0,0-.56,2.49c0,12.38,40.29,22.41,90,22.41,11.63,0,22.74-.54,32.94-1.54,17.19,21.41,69.81,37,132.06,37,54.9,0,102.31-12.12,124.54-29.67,12.91,11.25,39.16,19,69.46,19,40.89,0,74.41-14,77.71-31.9,17.3,4.5,38.45,7.14,61.29,7.14,58.54,0,106-17.37,106-38.8C4452,273.65,4406,256.48,4348.7,256Z"/><path class="cls-10" d="M4025,556.68q5,.32,10.22.32c2.26,0,4.49,0,6.71-.14l12.71.14-1.12-1c41.6-4.74,72.91-25.32,72.91-50,0-26.64-36.5-48.5-83-50.81a34.81,34.81,0,0,0,6.23-19.83c0-20.51-18.06-37.13-40.35-37.13a42.72,42.72,0,0,0-21.77,5.86c-.69-21.51-22-38.77-48.13-38.77a53.92,53.92,0,0,0-32.25,10.26C3901.42,360.15,3884.7,349,3865,349c-22.31,0-40.77,14.25-43.81,32.79a59.2,59.2,0,0,0-23.39-4.71c-28.42,0-51.46,19.32-51.46,43.17a36.89,36.89,0,0,0,2.64,13.68c-14.94,4.33-25.44,14.55-25.44,26.47a20.47,20.47,0,0,0,1.26,7C3695.9,471.12,3674,489,3674,510.51c0,24.17,27.87,44.49,62,44.49"/><path class="cls-11" d="M2130,556.68q5,.32,10.22.32c2.26,0,4.49,0,6.71-.14l12.71.14-1.12-1c41.6-4.74,72.91-25.32,72.91-50,0-26.64-36.5-48.5-83-50.81a34.81,34.81,0,0,0,6.23-19.83c0-20.51-18.06-37.13-40.35-37.13a42.72,42.72,0,0,0-21.77,5.86c-.69-21.51-22-38.77-48.13-38.77a53.92,53.92,0,0,0-32.25,10.26C2006.42,360.15,1989.7,349,1970,349c-22.31,0-40.77,14.25-43.81,32.79a59.2,59.2,0,0,0-23.39-4.71c-28.42,0-51.46,19.32-51.46,43.17a36.89,36.89,0,0,0,2.64,13.68c-14.94,4.33-25.44,14.55-25.44,26.47a20.47,20.47,0,0,0,1.26,7C1800.9,471.12,1779,489,1779,510.51c0,24.17,24.87,44.49,59,44.49"/><rect class="cls-12" x="3002" y="208" width="14" height="1"/><rect class="cls-12" x="3002" y="337" width="14" height="1"/><rect class="cls-12" x="3002" y="480" width="14" height="1"/><rect class="cls-13" x="1954" y="480" width="17" height="75"/><path class="cls-14" d="M1961,388h19.41a7.59,7.59,0,0,1,7.59,7.59V502.41a7.59,7.59,0,0,1-7.59,7.59H1961"/><path class="cls-15" d="M1961,391h15.81c3.42,0,6.19,3.23,6.19,7.22V499.78c0,4-2.77,7.22-6.19,7.22H1961"/><path class="cls-14" d="M1961,392h15.09c3.27,0,5.91,3.18,5.91,7.09v99.82c0,3.91-2.64,7.09-5.91,7.09H1961"/><path class="cls-15" d="M1961,431h12.94c2.79,0,5.06,1.89,5.06,4.23v59.54c0,2.34-2.27,4.23-5.06,4.23H1961"/><path class="cls-14" d="M1961,431h12.22c2.64,0,4.78,1.87,4.78,4.17v58.66c0,2.3-2.14,4.17-4.78,4.17H1961"/><path class="cls-15" d="M1961,442h8.63a3.15,3.15,0,0,1,3.37,2.86v40.28a3.15,3.15,0,0,1-3.37,2.86H1961"/><rect class="cls-16" x="1968" y="433" width="20" height="1"/><path class="cls-17" d="M1961,445h7.19a2.66,2.66,0,0,1,2.81,2.49v35a2.66,2.66,0,0,1-2.81,2.49H1961"/><path class="cls-15" d="M1961,433h5c1.09,0,2,.31,2,.68v9.64c0,.37-.88.68-2,.68h-5"/><path class="cls-15" d="M1961,431h25a2,2,0,0,1,2,2v0a0,0,0,0,1,0,0h-27a0,0,0,0,1,0,0v-2A0,0,0,0,1,1961,431Z"/><path class="cls-17" d="M1961,435h3.59c.78,0,1.41.22,1.41.5v7c0,.28-.63.5-1.41.5H1961"/><rect class="cls-16" x="1961" y="414" width="22" height="1"/><polyline class="cls-15" points="1982 408 1961 408 1961 406 1980.2 406"/><rect class="cls-18" x="1981" y="408" width="1" height="6"/><path class="cls-15" d="M1962,388h-19.41a7.59,7.59,0,0,0-7.59,7.59V502.41a7.59,7.59,0,0,0,7.59,7.59H1962"/><path class="cls-14" d="M1962,391h-15.81c-3.42,0-6.19,3.23-6.19,7.22V499.78c0,4,2.77,7.22,6.19,7.22H1962"/><path class="cls-15" d="M1962,392h-15.09c-3.27,0-5.91,3.18-5.91,7.09v99.82c0,3.91,2.64,7.09,5.91,7.09H1962"/><path class="cls-14" d="M1962,431h-12.94c-2.79,0-5.06,1.89-5.06,4.23v59.54c0,2.34,2.27,4.23,5.06,4.23H1962"/><path class="cls-15" d="M1962,431h-12.22c-2.64,0-4.78,1.87-4.78,4.17v58.66c0,2.3,2.14,4.17,4.78,4.17H1962"/><path class="cls-14" d="M1962,442h-8.63a3.15,3.15,0,0,0-3.37,2.86v40.28a3.15,3.15,0,0,0,3.37,2.86H1962"/><rect class="cls-16" x="1935" y="433" width="20" height="1" transform="translate(3890 867) rotate(-180)"/><path class="cls-19" d="M1962,445h-7.19a2.66,2.66,0,0,0-2.81,2.49v35a2.66,2.66,0,0,0,2.81,2.49H1962"/><path class="cls-14" d="M1962,433h-5c-1.09,0-2,.31-2,.68v9.64c0,.37.88.68,2,.68h5"/><path class="cls-14" d="M1935,431h27a0,0,0,0,1,0,0v0a2,2,0,0,1-2,2h-25a0,0,0,0,1,0,0v-2A0,0,0,0,1,1935,431Z" transform="translate(3897 864) rotate(-180)"/><path class="cls-19" d="M1962,435h-3.59c-.78,0-1.41.22-1.41.5v7c0,.28.63.5,1.41.5H1962"/><rect class="cls-16" x="1940" y="414" width="22" height="1" transform="translate(3902 829) rotate(-180)"/><polyline class="cls-14" points="1941 408 1962 408 1962 406 1942.8 406"/><rect class="cls-20" x="1942" y="408" width="20" height="6" transform="translate(3904 822) rotate(-180)"/><rect class="cls-14" x="1941" y="408" width="1" height="6" transform="translate(3883 822) rotate(-180)"/><rect class="cls-21" x="293" width="73" height="555"/><rect class="cls-21" x="238.76" y="125.72" width="25.56" height="247.49" transform="translate(-102.72 250.93) rotate(-45)"/><rect class="cls-21" x="364.2" y="237.69" width="20" height="237.02" transform="translate(249.58 -145.17) rotate(32.45)"/><rect class="cls-21" x="405.68" y="111.23" width="25.12" height="237.02" transform="translate(258.46 -219.9) rotate(41.66)"/><ellipse class="cls-22" cx="329.5" cy="9" rx="264.5" ry="175"/><ellipse class="cls-23" cx="539.36" cy="106.5" rx="147.36" ry="97.5"/><ellipse class="cls-24" cx="155" cy="171.16" rx="98" ry="64.84"/><ellipse class="cls-25" cx="418.17" cy="263" rx="89.17" ry="59"/><rect class="cls-21" x="1065" width="73" height="555"/><rect class="cls-21" x="1178.82" y="152.07" width="27.36" height="300.5" transform="translate(502.49 -716.18) rotate(41.66)"/><rect class="cls-21" x="1015.9" y="232.83" width="20.07" height="194.43" transform="translate(144.24 949.81) rotate(-52.94)"/><ellipse class="cls-26" cx="806.44" cy="119.5" rx="97.49" ry="64.5"/><ellipse class="cls-27" cx="1101.5" cy="87.93" rx="314.5" ry="208.08"/><ellipse class="cls-28" cx="1279.63" cy="204.5" rx="147.36" ry="97.5"/><ellipse class="cls-29" cx="915.92" cy="277.5" rx="109.58" ry="72.5"/><rect class="cls-21" x="1542" width="73" height="555"/><rect class="cls-21" x="1662.15" y="217.81" width="20.65" height="264.47" transform="translate(1139.39 -1273.38) rotate(60)"/><rect class="cls-21" x="1484.12" y="232.42" width="32.87" height="283.27" transform="translate(-21.41 648.26) rotate(-24.21)"/><ellipse class="cls-30" cx="1816" cy="277.64" rx="122" ry="79.36"/><ellipse class="cls-31" cx="1591.5" cy="62.5" rx="237.5" ry="154.5"/><ellipse class="cls-32" cx="1661.5" cy="154.5" rx="261.5" ry="175.5"/><ellipse class="cls-33" cx="1469.7" cy="254.5" rx="183.7" ry="119.5"/><rect class="cls-21" x="3547" width="73" height="555"/><rect class="cls-21" x="3704.56" y="72.14" width="36.03" height="345.53" transform="translate(1263.49 -2560.53) rotate(45)"/><rect class="cls-21" x="3426.21" y="96.59" width="22.29" height="349.89" transform="translate(931.78 2640.34) rotate(-47.91)"/><ellipse class="cls-34" cx="3232.24" cy="106.89" rx="121.24" ry="77.89"/><ellipse class="cls-35" cx="3583" cy="28.5" rx="351" ry="225.5"/><ellipse class="cls-36" cx="3867.88" cy="88" rx="149.43" ry="96"/><ellipse class="cls-37" cx="3393.53" cy="204.75" rx="140.47" ry="90.25"/><rect class="cls-38" x="2022" y="62" width="980" height="493"/><polygon class="cls-39" points="2022 172.54 3002 172.54 3002 211 2065.58 205.03 2022 204.75 2022 172.54"/><polygon class="cls-39" points="2022 224.97 2022 249.48 3002 271 3002 224.97 2022 224.97"/><polygon class="cls-39" points="2022 318 2022 344 3002 344 3002 325 2022 318"/><rect class="cls-39" x="2273" y="413" width="77" height="21"/><polygon class="cls-39" points="2124 469 2124 493 2048 493 2048 460 2124 469"/><polygon class="cls-39" points="2284.53 510.52 2284.53 533.21 2350 533 2350 511 2284.53 510.52"/><polygon class="cls-39" points="2584 423.5 2584 455 3002 460 3002 413 2584 423.5"/><polygon class="cls-40" points="2266 555 2136 555 2130 306 2273 306 2266 555"/><polygon class="cls-41" points="3019 109 2003 109 2036 -18 2987 -8.51 3019 109"/><polyline class="cls-42" points="2862 54 2933 54 2940 72 2993 72 2966 -18 2801 -34"/><polygon class="cls-43" points="2062.63 -18 2048 45 2072 45 2066 72 2106 72 2109 55 2127 56 2132 34 2157 35 2150 72 2328 72 2333 42 2350 43 2350 72 2465 72 2465 53 2503 54 2503 40 2616 41 2724 -24 2062.63 -18"/><polygon class="cls-44" points="2283.14 555 2118.59 555 2111 271 2292 271 2283.14 555"/><polygon class="cls-44" points="2201.81 224.97 2264.9 249.48 2328 274 2201.81 274 2075.61 274 2138.71 249.48 2201.81 224.97"/><polygon class="cls-44" points="2201.81 211 2264.9 242.5 2328 274 2201.81 274 2075.61 274 2138.71 242.5 2201.81 211"/><rect class="cls-45" x="2076" y="274" width="252" height="21"/><polygon class="cls-46" points="3008 138 2015 138 2003 109 3019 109 3008 138"/><rect class="cls-44" x="2495.21" y="-53.29" width="352" height="26.25" transform="translate(1071.21 2099.23) rotate(-52.35)"/><rect class="cls-44" x="2625.21" y="-53.29" width="352" height="26.25" transform="translate(4522.16 2170.44) rotate(-127.08)"/><rect class="cls-47" x="2022" y="138" width="980" height="16"/><rect class="cls-47" x="2425" y="465" width="174" height="4"/><polygon class="cls-48" points="2111 55 2122 5 2138 5 2132 34 2127 55 2111 55"/><polygon class="cls-48" points="2150 72 2161 18 2180 18 2184 -5 2202 -5 2192 58 2179 59 2176 72 2150 72"/><polygon class="cls-48" points="2308.28 72 2328 72 2333 42 2350 42 2350 -5 2333 -5 2333 27 2313 27 2308.28 72"/><polygon class="cls-48" points="2486 -2 2486 53.55 2503 54 2506 -5 2486 -2"/><polygon class="cls-48" points="2940 72 2958 72 2940 16 2922 16 2940 72"/><polygon class="cls-41" points="2299 -5 2292 45 2267 45 2273 20 2252 19 2262.39 -12 2299 -5"/><polygon class="cls-41" points="2454 24 2454 -5 2432 -5 2432 19 2454 24"/><polygon class="cls-41" points="2889.54 -0.89 2903 38 2929.07 38 2922 16 2940 16 2934 -12 2889.54 -0.89"/><polygon class="cls-41" points="2506 -5 2504.78 19 2550 19 2550 7 2579 7 2579 -8.99 2506 -5"/><rect class="cls-47" x="2695" y="465" width="174" height="4"/><rect class="cls-47" x="2425" y="244" width="14" height="3"/><rect class="cls-47" x="2584" y="244" width="15" height="3"/><rect class="cls-47" x="2695" y="244" width="14" height="3"/><rect class="cls-47" x="2854" y="244" width="15" height="3"/><polyline class="cls-47" points="2076 295 2111 295 2113 344"/><polyline class="cls-47" points="2291 308 2291 295 2328 295"/><polygon class="cls-47" points="2735.94 -106.03 2878 83 2593 83 2735.94 -106.03"/><polygon class="cls-38" points="2735.48 -70 2854.21 88 2616 88 2735.48 -70"/><polygon class="cls-41" points="2806 58 2749 58 2749 33 2801 33 2806 58"/><polygon class="cls-41" points="2724 74 2684 74 2684 62 2655.2 62.52 2655 49 2710 49 2709.76 61.98 2726.88 62.52 2735.11 62 2735 74 2724 74"/><ellipse class="cls-44" cx="2735.5" cy="28.5" rx="49.5" ry="40.5"/><ellipse class="cls-49" cx="2735.17" cy="28.5" rx="31.17" ry="25.5"/><polygon class="cls-44" points="3019 109 2003 109 2010 82 3012 83 3019 109"/><polygon class="cls-50" points="2260.18 555 2141.48 555 2136 313 2266.57 313 2260.18 555"/><polygon class="cls-40" points="2256.45 555 2146.09 555 2141 318 2262.39 318 2256.45 555"/><polygon class="cls-50" points="2198 416 2151.18 416 2149 325.45 2198 325 2198 416"/><polygon class="cls-50" points="2198 546 2155.18 546 2153 455.45 2198 455 2198 546"/><polygon class="cls-50" points="2206 546 2248.82 546 2251 455.45 2206 455 2206 546"/><polygon class="cls-50" points="2206 416 2252.82 416 2255 325.45 2206 325 2206 416"/><polygon class="cls-50" points="2250.99 449 2153.01 449 2152 423 2252 423 2250.99 449"/><ellipse class="cls-51" cx="2144.5" cy="434.5" rx="14.5" ry="4.5"/><polygon class="cls-46" points="2599 234 2425 234 2427 229 2597 229 2599 234"/><rect class="cls-44" x="2439" y="244" width="145" height="211"/><rect class="cls-44" x="2425" y="234" width="174" height="10"/><rect class="cls-44" x="2425" y="455" width="174" height="10"/><rect class="cls-46" x="2454" y="243" width="116.83" height="212"/><rect class="cls-52" x="2462" y="252" width="100" height="193"/><polygon class="cls-49" points="2555.46 439.18 2467.61 439.18 2467.61 307.28 2555.46 301.46 2555.46 439.18"/><rect class="cls-46" x="2510" y="246" width="4" height="207"/><rect class="cls-46" x="2456.5" y="344" width="111.5" height="4.5"/><rect class="cls-46" x="2456.5" y="293" width="111.5" height="4.5"/><rect class="cls-46" x="2454.5" y="398" width="111.5" height="4.5"/><polygon class="cls-46" points="2869 234 2695 234 2697 229 2867 229 2869 234"/><rect class="cls-44" x="2709" y="244" width="145" height="211"/><rect class="cls-44" x="2695" y="234" width="174" height="10"/><rect class="cls-44" x="2695" y="455" width="174" height="10"/><rect class="cls-46" x="2724" y="243" width="116.83" height="212"/><rect class="cls-52" x="2732" y="252" width="100" height="193"/><polygon class="cls-49" points="2825.46 439.18 2737.61 439.18 2737.61 307.28 2825.46 301.46 2825.46 439.18"/><rect class="cls-46" x="2780" y="246" width="4" height="207"/><rect class="cls-46" x="2726.5" y="344" width="111.5" height="4.5"/><rect class="cls-46" x="2726.5" y="293" width="111.5" height="4.5"/><rect class="cls-46" x="2724.5" y="398" width="111.5" height="4.5"/><rect class="cls-39" x="2530" y="469" width="77" height="21"/><rect class="cls-39" x="2419" y="487" width="257" height="18"/><rect class="cls-39" x="2645" y="511" width="357" height="21"/><polyline class="cls-53" points="2113 344 2111 295 2291 295 2291 308"/><polygon class="cls-54" points="2291 192 2291 206.47 2368.49 211 2368 192 2291 192"/><polygon class="cls-54" points="2355 248 2355 271 2425 271 2425 244 2355 248"/><polygon class="cls-54" points="2022 239 2022 257.5 2086 257 2086 242 2022 239"/><rect class="cls-54" x="2299" y="337" width="51" height="20"/><rect class="cls-54" x="2368" y="337" width="64" height="20"/><polygon class="cls-54" points="2599 337 2599 357 2691 357 2691 344 2599 337"/><polygon class="cls-54" points="2933 331 2933 357 3002 361.92 3002 344 2933 331"/><polygon class="cls-55" points="2933 383 2933 402 3002 402.5 3002 383 2933 383"/><rect class="cls-54" x="2556" y="494" width="64" height="20"/><rect class="cls-54" x="2874" y="522" width="64" height="20"/><rect class="cls-12" x="2179" y="441" width="47" height="4"/><rect class="cls-56" x="1962" y="408" width="19" height="6"/><path class="cls-15" d="M1962,419l1.6,3.2s3.2-1.6,3.2,1.6c0,.62-.4,1.2-.4,1.6V427H1962Z"/><path class="cls-14" d="M1962,425l.21-1.16a1.11,1.11,0,0,1,.64-.81l.62-.27s2.93-1.28,2.93,1.28c0,1-.4,1-.4,1h-1.24l-.36-.8-.48.8Z"/><path class="cls-14" d="M1961.8,419l-1.6,3.2s-3.2-1.6-3.2,1.6c0,.62.4,1.2.4,1.6V427h4.4Z"/><path class="cls-15" d="M1961.8,425l-.21-1.16a1.11,1.11,0,0,0-.64-.81l-.62-.27s-2.93-1.28-2.93,1.28c0,1,.4,1,.4,1H1959l.36-.8.48.8Z"/><polygon class="cls-12" points="3009 179 3009 546 3017 546 3017 179 3040 160 3040 129 3044 125 3044 119 3019 127 3027 157 3009 179"/></g><g id="Layer_8" data-name="Layer 8"><rect class="cls-44" x="1066.27" y="485.83" width="2.21" height="19.93"/><path class="cls-57" d="M1009.26,469.48A41.26,41.26,0,1,1,968,510.74a41.31,41.31,0,0,1,41.26-41.26m0-8a49.26,49.26,0,1,0,49.26,49.26,49.25,49.25,0,0,0-49.26-49.26Z"/><path class="cls-57" d="M1148.74,469.48a41.26,41.26,0,1,1-41.26,41.26,41.31,41.31,0,0,1,41.26-41.26m0-8A49.26,49.26,0,1,0,1198,510.74a49.25,49.25,0,0,0-49.26-49.26Z"/><circle class="cls-44" cx="1067.93" cy="516.27" r="1.66"/><rect class="cls-58" x="1060.73" y="479.19" width="17.71" height="7.75" rx="3.5"/><path class="cls-44" d="M1008.71,473a38.28,38.28,0,1,1-38.28,38.28A38.33,38.33,0,0,1,1008.71,473m0-6A44.28,44.28,0,1,0,1053,511.29,44.28,44.28,0,0,0,1008.71,467Z"/><polygon class="cls-57" points="1043.29 439.43 1006.34 510.28 1011.25 512.84 1048.2 441.99 1043.29 439.43 1043.29 439.43"/><path class="cls-44" d="M1148.19,473a38.28,38.28,0,1,1-38.28,38.28A38.33,38.33,0,0,1,1148.19,473m0-6a44.28,44.28,0,1,0,44.28,44.28A44.28,44.28,0,0,0,1148.19,467Z"/><polygon class="cls-57" points="1134.9 437.13 1046.34 437.13 1046.34 442.66 1134.9 442.66 1134.9 437.13 1134.9 437.13"/><polygon class="cls-57" points="1136.9 436.24 1131.48 437.38 1147.31 512.53 1152.73 511.38 1136.9 436.24 1136.9 436.24"/><polygon class="cls-57" points="1137.12 420.52 1131.58 420.52 1131.58 438.23 1137.12 438.23 1137.12 420.52 1137.12 420.52"/><path class="cls-57" d="M1151.22,416.65h-21a2.5,2.5,0,0,0-2.5,2.5v.53a2.5,2.5,0,0,0,2.5,2.5h21a2.5,2.5,0,0,0,2.5-2.5v-.53a2.5,2.5,0,0,0-2.5-2.5Z"/><polygon class="cls-57" points="1044.89 424.53 1039.57 426.06 1044.48 443.08 1049.8 441.55 1044.89 424.53 1044.89 424.53"/><rect class="cls-59" x="1030.85" y="418.31" width="33.21" height="11.07" rx="5" transform="translate(-26.33 72.01) rotate(-3.89)"/><polygon class="cls-57" points="1049.85 440.3 1044.54 441.83 1063.52 507.66 1068.83 506.13 1049.85 440.3 1049.85 440.3"/><polygon class="cls-57" points="1134.06 444.03 1073.17 504.91 1077.09 508.83 1137.97 447.94 1134.06 444.03 1134.06 444.03"/><path class="cls-58" d="M1067.93,505.54a10.73,10.73,0,1,1-10.73,10.73,10.74,10.74,0,0,1,10.73-10.73m0-2a12.73,12.73,0,1,0,12.73,12.73,12.73,12.73,0,0,0-12.73-12.73Z"/><path class="cls-44" d="M1067.79,507a9.45,9.45,0,1,1-9.45,9.45,9.46,9.46,0,0,1,9.45-9.45m0-2a11.45,11.45,0,1,0,11.44,11.45A11.45,11.45,0,0,0,1067.79,505Z"/><rect class="cls-44" x="1067.38" y="506.87" width="1.11" height="19.93"/><rect class="cls-44" x="1067.38" y="505.76" width="1.11" height="21.03" transform="translate(1584.2 -551.66) rotate(90)"/><rect class="cls-44" x="1067.38" y="506.87" width="1.11" height="19.93" transform="translate(-52.66 906.52) rotate(-45)"/><rect class="cls-44" x="1067.38" y="505.76" width="1.11" height="19.93" transform="translate(677.46 -604.09) rotate(45)"/><rect class="cls-44" x="1067.38" y="516.83" width="2.21" height="27.67"/><rect class="cls-58" x="1059.63" y="540.07" width="17.71" height="7.75" rx="3.5"/></g><g id="Layer_9" data-name="Layer 9"><ellipse class="cls-60" cx="1467.5" cy="64.5" rx="18.5" ry="10.5"/><rect class="cls-61" x="1220" y="20" width="17" height="537"/><rect class="cls-61" x="1214" y="524" width="29" height="33"/><rect class="cls-61" x="1215" y="12" width="27" height="36"/><rect class="cls-61" x="1234" y="85" width="8" height="36"/><path class="cls-62" d="M1231.14,112.45s66.79-102.13,213.3-59.06"/><path class="cls-61" d="M1430,46h54.87A10.13,10.13,0,0,1,1495,56.13v0a8.87,8.87,0,0,1-8.87,8.87h-52.61a3.52,3.52,0,0,1-3.52-3.52V46a0,0,0,0,1,0,0Z"/><ellipse class="cls-60" cx="4545.5" cy="64.5" rx="18.5" ry="10.5"/><rect class="cls-61" x="4298" y="20" width="17" height="537"/><rect class="cls-61" x="4292" y="524" width="29" height="33"/><rect class="cls-61" x="4293" y="12" width="27" height="36"/><rect class="cls-61" x="4312" y="85" width="8" height="36"/><path class="cls-62" d="M4309.14,112.45s66.79-102.13,213.3-59.06"/><path class="cls-61" d="M4508,46h54.87A10.13,10.13,0,0,1,4573,56.13v0a8.87,8.87,0,0,1-8.87,8.87h-52.61a3.52,3.52,0,0,1-3.52-3.52V46A0,0,0,0,1,4508,46Z"/></g></svg>