<svg id="Layer_1" data-name="Layer 1" xmlns="http://www.w3.org/2000/svg" width="795" height="533" viewBox="0 0 795 533"><defs><style>.cls-1{fill:#fcfca4;}.cls-2{fill:#8dc457;}.cls-13,.cls-3,.cls-8{fill:none;}.cls-3{stroke:#cd9657;}.cls-12,.cls-13,.cls-3,.cls-8{stroke-miterlimit:10;}.cls-3,.cls-8{stroke-width:13px;}.cls-4{fill:#c1692d;}.cls-5{fill:#f4912d;}.cls-6{fill:#f4b32d;}.cls-7{fill:#f4642d;}.cls-8{stroke:#754c24;}.cls-9{fill:#e2944d;}.cls-10{fill:#e2c64d;}.cls-11,.cls-12{fill:#8fc6d9;}.cls-12{stroke:#000;stroke-width:5px;}.cls-13{stroke:#f7931e;stroke-width:2px;}.cls-14{fill:#e26c4d;}.cls-15{fill:#7b6c4d;}</style></defs><title>billede13</title><rect class="cls-1" width="795" height="533"/><rect class="cls-2" y="266" width="795" height="267"/><path class="cls-3" d="M301,181.29C301,87.22,369.28,11,453.52,11S606,87.22,606,181.29"/><polygon class="cls-4" points="781 460 180.23 460 305.62 181.29 629.4 181.29 781 460"/><polygon class="cls-5" points="757.77 460 157 460 282.39 181.29 606.18 181.29 757.77 460"/><path class="cls-6" d="M606,180.52c0,77.39-72.79,140.13-162.58,140.13S280.87,257.91,280.87,180.52"/><rect class="cls-7" x="421.77" y="283.48" width="41.81" height="17.03"/><path class="cls-8" d="M291.71,181.29C291.71,87.22,360,11,444.23,11S596.74,87.22,596.74,181.29"/><ellipse class="cls-9" cx="141.92" cy="199.45" rx="102.38" ry="11.45"/><polygon class="cls-10" points="207.07 503 85.37 503 40.98 230.96 244.3 230.96 207.07 503"/><polygon class="cls-11" points="220.2 395.61 69.62 395.61 52.44 292.52 234.28 292.52 220.2 395.61"/><path class="cls-10" d="M242,231.08l-102.86,5.59a1.22,1.22,0,0,1-.27,0l-97.1-5.59a2.38,2.38,0,0,1-2.26-2.37V200.4A2.39,2.39,0,0,1,42,198h200a2.39,2.39,0,0,1,2.4,2.38v28.3A2.38,2.38,0,0,1,242,231.08Z"/><ellipse class="cls-9" cx="141.92" cy="198.02" rx="99.51" ry="10.02"/><ellipse class="cls-12" cx="141.92" cy="344.07" rx="37.94" ry="34.36"/><path class="cls-13" d="M156.4,338.48c6.17.74,10.9,3.62,10.56,6.42s-5.61,4.48-11.78,3.74"/><path class="cls-9" d="M160.87,337.07c0,9.61-6.66,18.42-17.4,18.42S124,346.68,124,337.07"/><ellipse class="cls-14" cx="142.45" cy="336.83" rx="18.42" ry="2.28"/><ellipse class="cls-15" cx="142.45" cy="338.09" rx="14.33" ry="1.02"/></svg>
