<svg id="Layer_1" data-name="Layer 1" xmlns="http://www.w3.org/2000/svg" width="967" height="684" viewBox="0 0 967 684"><defs><style>.cls-1{fill:#8dc457;}.cls-2{fill:#89cce5;}.cls-3{fill:#fff;}.cls-4{fill:#b8e2f2;}.cls-5{fill:#152230;}.cls-6{fill:#f4912d;}</style></defs><title>billede5</title><rect class="cls-1" y="-4" width="967" height="688"/><path class="cls-2" d="M0,262.14V434l12.37,62.51L49.47,684l.2,1H904.35l.22-1,42.57-190.14h0L967,405.12v-143Z"/><path class="cls-2" d="M54.92,683.5c-24.6-30.23-37.6-65.39-37.6-101.7,0-29.94,9.05-59.7,26.18-86A196.09,196.09,0,0,1,90,446.46c42.82-32.42,98.75-50.27,157.51-50.27,47.88,0,93.78,11.74,132.74,33.95,38.09,21.72,66.79,51.75,83,86.84a153.56,153.56,0,0,1,14.43,64.82c0,36.31-13,71.47-37.6,101.7Z"/><path class="cls-3" d="M247.5,396.69c47.8,0,93.61,11.72,132.49,33.89,38,21.66,66.63,51.61,82.8,86.61a152.89,152.89,0,0,1,14.39,64.61c0,36.12-12.91,71.11-37.34,101.2H55.16c-24.43-30.09-37.34-65.08-37.34-101.2,0-29.85,9-59.51,26.1-85.78a195.59,195.59,0,0,1,46.37-49.16c42.73-32.35,98.56-50.17,157.21-50.17m0-1c-61,0-116.55,19.13-157.81,50.37a197.16,197.16,0,0,0-46.61,49.42c-16.77,25.8-26.26,55.16-26.26,86.32,0,37.75,13.93,72.87,37.86,102.2H440.32c23.93-29.33,37.86-64.45,37.86-102.2a154.19,154.19,0,0,0-14.48-65C431,446.05,346.55,395.69,247.5,395.69Z"/><path class="cls-2" d="M516.28,683.5c-24.6-30.23-37.6-65.39-37.6-101.7A153.56,153.56,0,0,1,493.11,517c16.22-35.09,44.92-65.12,83-86.84,39-22.21,84.86-33.95,132.74-33.95,67.62,0,131.55,23.84,175.4,65.41A191.67,191.67,0,0,1,911,493l.09.14c18.26,27,27.91,57.67,27.91,88.66,0,36.31-13,71.47-37.6,101.7Z"/><path class="cls-3" d="M708.86,396.69c67.49,0,131.29,23.79,175,65.28a189.87,189.87,0,0,1,26.63,31.19h0l.17.25c18.21,26.93,27.83,57.49,27.83,88.38,0,36.12-12.91,71.11-37.34,101.2H516.52c-24.43-30.09-37.34-65.08-37.34-101.2a152.89,152.89,0,0,1,14.39-64.61c16.17-35,44.8-65,82.8-86.61,38.88-22.17,84.69-33.89,132.49-33.89m0-1c-99.05,0-183.52,50.36-216.2,121.08a154.19,154.19,0,0,0-14.48,65c0,37.75,13.93,72.87,37.86,102.2H901.68c23.93-29.33,37.86-64.45,37.86-102.2,0-32.22-10.14-62.52-28-88.94h0a191,191,0,0,0-26.94-31.61c-42.31-40.11-105.34-65.55-175.74-65.55Z"/><path class="cls-4" d="M814,641.47c0,16.86-8.9,32-23.07,42.53H696.39c-14.17-10.51-23.07-25.67-23.07-42.53,0-31.72,31.48-57.43,70.32-57.43S814,609.75,814,641.47Z"/><ellipse class="cls-5" cx="743.64" cy="644.33" rx="18.16" ry="18.19"/><path class="cls-4" d="M256.75,641.47c0,16.86-8.9,32-23.07,42.53H139.16c-14.17-10.51-23.07-25.67-23.07-42.53,0-31.72,31.49-57.43,70.33-57.43S256.75,609.75,256.75,641.47Z"/><ellipse class="cls-5" cx="186.42" cy="644.33" rx="18.16" ry="18.19"/><rect class="cls-2" x="89.69" y="332.9" width="794.91" height="183.87"/><path class="cls-2" d="M967,407H0V280.61A129.61,129.61,0,0,1,129.61,151H837.39A129.61,129.61,0,0,1,967,280.61Z"/><rect class="cls-2" x="335" width="283" height="151"/><path class="cls-6" d="M879.23,62.59A85.48,85.48,0,0,0,885,31.5,85.94,85.94,0,0,0,880.21,3H741.44q-2-1.92-4.24-3.7-1.74,1.79-3.41,3.7H597.56C584.7,15,577,30.33,577,47c0,19.11,10.13,36.44,26.54,49.07C565.64,113.83,540,147.89,540,187c0,56.23,53,102,119.22,103.93-.13,1.84-.22,3.69-.22,5.57,0,40,30,72.5,67,72.5s67-32.46,67-72.5a78.45,78.45,0,0,0-1.37-14.66c1.28.1,2.57.16,3.87.16,34,0,61.5-32.91,61.5-73.5,0-.46,0-.92,0-1.38a51.9,51.9,0,0,0,9.53.88c34,0,61.5-32.91,61.5-73.5C928,99.12,907.09,69.59,879.23,62.59Z"/><path class="cls-6" d="M454,184c0-39.11-25.64-73.17-63.54-90.93C406.87,80.44,417,63.11,417,44c0-16.67-7.7-32-20.56-44H260.21q-1.66-1.92-3.41-3.7-2.2,1.79-4.24,3.7H154.79C137.77,19.52,127,48.33,127,80.46v0c0,30.3,9.57,57.65,24.92,77-9.29,12.87-14.92,29.63-14.92,48,0,40.59,27.53,73.5,61.5,73.5,1.3,0,2.59-.06,3.87-.16A78.45,78.45,0,0,0,201,293.5c0,40,30,72.5,67,72.5s67-32.46,67-72.5c0-1.88-.09-3.73-.22-5.57C401,286,454,240.23,454,184Z"/></svg>
