<svg id="Layer_1" data-name="Layer 1" xmlns="http://www.w3.org/2000/svg" width="777" height="582" viewBox="0 0 777 582"><defs><style>.cls-1{fill:#fcfca4;}.cls-2{fill:#152230;}.cls-3{fill:#89cce5;}.cls-4{fill:#f4912d;}.cls-5{fill:#b291f2;}.cls-6{fill:#c6b8f2;}.cls-7{fill:#603813;}.cls-8,.cls-9{fill:#fff;}.cls-9{opacity:0.41;}.cls-10{fill:#b8e2f2;}</style></defs><title>billede6</title><rect class="cls-1" width="777" height="311"/><path class="cls-2" d="M0,503V157l56.17,34.6a128.25,128.25,0,0,0,149.24-10.68h0a45.49,45.49,0,0,1,57.62-.49h0a103.2,103.2,0,0,0,123.6,4.34h0a82.42,82.42,0,0,1,83.49-6.23l5.69,2.8a128.09,128.09,0,0,0,138-15.9h0a18,18,0,0,1,21.31-1.11l12.65,8.37C688.82,199.86,743.84,193.18,777,157h0V503Z"/><path class="cls-3" d="M-1,581V235l56.17,34.6a128.25,128.25,0,0,0,149.24-10.68h0a45.49,45.49,0,0,1,57.62-.49h0a103.2,103.2,0,0,0,123.6,4.34h0a82.42,82.42,0,0,1,83.49-6.23l5.69,2.8a128.09,128.09,0,0,0,138-15.9h0a18,18,0,0,1,21.31-1.11l12.65,8.37C687.82,277.86,742.84,271.18,776,235h0V581Z"/><rect class="cls-4" x="312" y="362" width="151" height="106" rx="27.81"/><rect class="cls-5" x="468.59" y="173.81" width="36.99" height="216.58" rx="18.5" transform="translate(1016.85 472.32) rotate(169.67)"/><path class="cls-6" d="M429.12,362H335.65a4.86,4.86,0,0,1-4.52-3.46L285.68,222.73c-7.91-23.66,8.05-48.73,31-48.73H450.64c19.36,0,33,20.82,26.87,40.95L433.68,358.4A4.87,4.87,0,0,1,429.12,362Z"/><rect class="cls-6" x="368" y="153" width="27" height="21"/><path class="cls-6" d="M368.26,63.11H446a0,0,0,0,1,0,0v49.28A40.61,40.61,0,0,1,405.39,153H368.26a0,0,0,0,1,0,0V63.11A0,0,0,0,1,368.26,63.11Z"/><path class="cls-7" d="M464.84,65.67c0-.25,0-.5,0-.75C464.86,46.19,443,31,416.06,31s-48.8,15.19-48.8,33.92c0,.25,0,.5,0,.75Z"/><ellipse class="cls-7" cx="366.62" cy="65.03" rx="18.62" ry="30.18"/><path class="cls-6" d="M393.93,225.94c-.28,6.87-.8,13.8-.81,20.68,0,3.94.7,7.66,4,10.15,8.16,6.13,22.58,4.23,31.63,1.62a1.51,1.51,0,0,0-.8-2.9c-8.11,2.35-20.44,4-28.22-.6-4.75-2.79-3.63-8.94-3.44-13.58l.61-15.37c.07-1.93-2.93-1.93-3,0Z"/><path class="cls-8" d="M393.46,229.63c0,7.73-.67,15.74,0,23.44.42,4.88,3,8.17,7.35,10.35,13,6.55,28.15-1.35,41.62,3.46.91.33,1.3-1.12.4-1.45-11.54-4.12-23.41.71-35.15-1.38-8-1.43-12.72-5.65-12.79-14-.06-6.8.05-13.61.07-20.41a.75.75,0,0,0-1.5,0Z"/><path class="cls-8" d="M377.81,229.63c0,6.49.06,13,.07,19.49,0,3.78-.12,7.35-2.81,10.33-2.43,2.71-6.53,4-10,4.6-11.74,2.1-23.6-2.74-35.14,1.38-.91.33-.52,1.78.4,1.45,13.46-4.81,28.58,3.07,41.62-3.46,4.37-2.19,6.9-5.46,7.35-10.35.71-7.68,0-15.73,0-23.44a.75.75,0,0,0-1.5,0Z"/><path class="cls-8" d="M389.38,304.63c0,3.33-1.29,8.77,1.89,11,4.22,3,9.9.15,14.53,1.65.92.3,1.32-1.15.4-1.45-3.31-1.07-6.49-.17-9.87-.32-3.08-.14-5.46-1.44-5.47-4.79,0-2,0-4.09,0-6.13a.75.75,0,0,0-1.5,0Z"/><path class="cls-8" d="M389.38,274.63c0,3.33-1.29,8.77,1.89,11,4.22,3,9.9.15,14.53,1.65.92.3,1.32-1.15.4-1.45-3.31-1.07-6.49-.17-9.87-.32-3.08-.14-5.46-1.44-5.47-4.79,0-2,0-4.09,0-6.13a.75.75,0,0,0-1.5,0Z"/><path class="cls-8" d="M384.25,274.63c0,1.86,0,3.71,0,5.57,0,3.59-1.9,5.22-5.46,5.35-3.38.12-6.57-.74-9.87.32-.92.3-.53,1.75.4,1.45,4.63-1.5,10.31,1.35,14.53-1.65,3.18-2.27,1.9-7.71,1.88-11a.75.75,0,0,0-1.5,0Z"/><path class="cls-8" d="M389.38,290.63c0,3.33-1.29,8.77,1.89,11,4.22,3,9.9.15,14.53,1.65.92.3,1.32-1.15.4-1.45-3.31-1.07-6.49-.17-9.87-.32-3.08-.14-5.46-1.44-5.47-4.79,0-2,0-4.09,0-6.13a.75.75,0,0,0-1.5,0Z"/><path class="cls-8" d="M384.25,290.63c0,1.86,0,3.71,0,5.57,0,3.59-1.9,5.22-5.46,5.35-3.38.12-6.57-.74-9.87.32-.92.3-.53,1.75.4,1.45,4.63-1.5,10.31,1.35,14.53-1.65,3.18-2.27,1.9-7.71,1.88-11a.75.75,0,0,0-1.5,0Z"/><path class="cls-8" d="M384.25,304.63c0,1.86,0,3.71,0,5.57,0,3.59-1.9,5.22-5.46,5.35-3.38.12-6.57-.74-9.87.32-.92.3-.53,1.75.4,1.45,4.63-1.5,10.31,1.35,14.53-1.65,3.18-2.27,1.9-7.71,1.88-11a.75.75,0,0,0-1.5,0Z"/><path class="cls-6" d="M404.75,258a1.5,1.5,0,0,0,0-3,1.5,1.5,0,0,0,0,3Z"/><path class="cls-6" d="M364.9,258.49a1.5,1.5,0,0,0,0-3,1.5,1.5,0,0,0,0,3Z"/><path class="cls-6" d="M412.91,258.49a1.5,1.5,0,0,0,0-3,1.5,1.5,0,0,0,0,3Z"/><path class="cls-8" d="M421.27,248.6a1.5,1.5,0,0,0,0-3,1.5,1.5,0,0,0,0,3Z"/><path class="cls-8" d="M353.28,249a1.5,1.5,0,0,0,0-3,1.5,1.5,0,0,0,0,3Z"/><path d="M391,80V95.5a15.25,15.25,0,1,0,30.5,0,15.25,15.25,0,1,0,30.5,0V80Z"/><rect x="381" y="80" width="10" height="3"/><path class="cls-9" d="M456.87,53.6a49.38,49.38,0,0,0-4.64-5.28c-2.75-2.79-6.63-7.39-11.05-7.24l-.12,0a2,2,0,0,0-1.74.34,1.16,1.16,0,0,0,0,1.59,2,2,0,0,0,.92.6c1.36.92,2.89,1.54,4.31,2.41,2.57,1.57,4.47,4.43,6.45,6.62.84.93,6.54,8.81,7.72,5.76C459.27,56.94,457.64,54.66,456.87,53.6Z"/><path class="cls-9" d="M355.5,80.94a28.55,28.55,0,0,0,1.84,3.92C358.5,87,360,90.37,362.66,91l.06,0a1.23,1.23,0,0,0,1.1.09.72.72,0,0,0,.27-.94,1.22,1.22,0,0,0-.44-.51c-.65-.78-1.45-1.41-2.15-2.17-1.25-1.37-1.89-3.39-2.69-5-.34-.7-2.37-6.34-3.59-4.73C354.64,78.55,355.22,80.18,355.5,80.94Z"/><ellipse class="cls-5" cx="505.5" cy="385.5" rx="15.5" ry="23.5" transform="translate(-27.26 732.35) rotate(-70.4)"/><rect class="cls-5" x="267.16" y="172.81" width="36.99" height="216.58" rx="18.5" transform="translate(55.01 -46.65) rotate(10.33)"/><ellipse class="cls-5" cx="267.24" cy="384.5" rx="23.5" ry="15.5" transform="translate(-113.52 111.95) rotate(-19.6)"/><path class="cls-10" d="M-3,581V409l56.17,17.2c46.81,14.34,107.13,12.19,149.24-5.31h0c16.57-6.89,40.8-7,57.62-.24h0c35.53,14.27,86.09,15.15,123.6,2.16h0c24.55-8.51,56.62-9.7,83.49-3.1l5.69,1.39c45.11,11.07,99.29,8,138-7.9h0c6.06-2.49,14.74-2.72,21.31-.56l12.65,4.16C685.82,430.31,740.84,427,774,409h0V581Z"/></svg>
