<svg id="Layer_1" data-name="Layer 1" xmlns="http://www.w3.org/2000/svg" width="727" height="529" viewBox="0 0 727 529"><defs><style>.cls-1{fill:#332e66;}.cls-2{fill:#f4912d;}.cls-3,.cls-5{fill:#e2c64d;}.cls-4{fill:#f2e49e;}.cls-5{opacity:0.56;}.cls-6{fill:#c6b8f2;}</style></defs><title>billede10</title><rect class="cls-1" width="727" height="529"/><path class="cls-2" d="M438,275.5C438,365.25,351.87,418,245,418S51,365.25,51,275.5"/><rect class="cls-3" x="210" y="144" width="294" height="8"/><rect class="cls-3" x="210" y="127" width="294" height="8"/><path class="cls-4" d="M228.56,129.58c-2.21,6,1.9,10.83,5.78,15,2.75,2.95,5.6,6.22,4.75,10.54-.52,2.67-2.29,5-4,7.07-5.13,6.21-14.38,13.37-9.62,22.4,1.68,3.2,4.75,5.4,6.46,8.56,2.53,4.68,1.47,10-.36,14.76-2.9,7.47-8.24,13.87-9.74,21.89-1.34,7.16,1.76,11.63,5.54,17.33,6.15,9.27,0,19-5.52,26.87-1.12,1.58,1.48,3.08,2.59,1.51,4.14-5.87,8.68-12.77,8.67-20.27,0-7.88-7.08-11.79-8.46-19-3-15.62,19.33-29.38,9.49-45.18-3.78-6.07-9.67-9.9-5-17.29,2.76-4.35,7-7.61,9.91-11.81,2.5-3.55,4-7.67,2.62-12-2.25-6.92-13.24-11.46-10.24-19.61.66-1.81-2.23-2.59-2.9-.79Z"/><path class="cls-4" d="M241.56,129.58c-2.21,6,1.9,10.83,5.78,15,2.75,2.95,5.6,6.22,4.75,10.54-.52,2.67-2.29,5-4,7.07-5.13,6.21-14.38,13.37-9.62,22.4,1.68,3.2,4.75,5.4,6.46,8.56,2.53,4.68,1.47,10-.36,14.76-2.9,7.47-8.24,13.87-9.74,21.89-1.34,7.16,1.76,11.63,5.54,17.33,6.15,9.27,0,19-5.52,26.87-1.12,1.58,1.48,3.08,2.59,1.51,4.14-5.87,8.68-12.77,8.67-20.27,0-7.88-7.08-11.79-8.46-19-3-15.62,19.33-29.38,9.49-45.18-3.78-6.07-9.67-9.9-5-17.29,2.76-4.35,7-7.61,9.91-11.81,2.5-3.55,4-7.67,2.62-12-2.25-6.92-13.24-11.46-10.24-19.61.66-1.81-2.23-2.59-2.9-.79Z"/><path class="cls-4" d="M255.56,129.58c-2.21,6,1.9,10.83,5.78,15,2.75,2.95,5.6,6.22,4.75,10.54-.52,2.67-2.29,5-4,7.07-5.13,6.21-14.38,13.37-9.62,22.4,1.68,3.2,4.75,5.4,6.46,8.56,2.53,4.68,1.47,10-.36,14.76-2.9,7.47-8.24,13.87-9.74,21.89-1.34,7.16,1.76,11.63,5.54,17.33,6.15,9.27,0,19-5.52,26.87-1.12,1.58,1.48,3.08,2.59,1.51,4.14-5.87,8.68-12.77,8.67-20.27,0-7.88-7.08-11.79-8.46-19-3-15.62,19.33-29.38,9.49-45.18-3.78-6.07-9.67-9.9-5-17.29,2.76-4.35,6.95-7.61,9.91-11.81,2.5-3.55,4-7.67,2.62-12-2.25-6.92-13.24-11.46-10.24-19.61.66-1.81-2.23-2.59-2.9-.79Z"/><path class="cls-4" d="M267.56,129.58c-2.21,6,1.9,10.83,5.78,15,2.75,2.95,5.6,6.22,4.75,10.54-.52,2.67-2.29,5-4,7.07-5.13,6.21-14.38,13.37-9.62,22.4,1.68,3.2,4.75,5.4,6.46,8.56,2.53,4.68,1.47,10-.36,14.76-2.9,7.47-8.24,13.87-9.74,21.89-1.34,7.16,1.76,11.63,5.54,17.33,6.15,9.27,0,19-5.52,26.87-1.12,1.58,1.48,3.08,2.59,1.51,4.14-5.87,8.68-12.77,8.67-20.27,0-7.88-7.08-11.79-8.46-19-3-15.62,19.33-29.38,9.49-45.18-3.78-6.07-9.67-9.9-5-17.29,2.76-4.35,6.95-7.61,9.91-11.81,2.5-3.55,4-7.67,2.62-12-2.25-6.92-13.24-11.46-10.24-19.61.66-1.81-2.23-2.59-2.9-.79Z"/><polygon class="cls-3" points="649.83 418 570.82 418 542 249 674 249 649.83 418"/><rect class="cls-2" x="475" y="253" width="294" height="8" transform="translate(239.18 810.52) rotate(-77.78)"/><polygon class="cls-5" points="653 418 568 418 537 228 679 228 653 418"/><rect class="cls-5" x="537" y="170" width="142" height="58"/><rect class="cls-6" y="418" width="727" height="111"/></svg>
