<svg id="Layer_1" data-name="Layer 1" xmlns="http://www.w3.org/2000/svg" width="725" height="504" viewBox="0 0 725 504"><defs><style>.cls-1{fill:#f4912d;}.cls-2{fill:#f2e49e;}.cls-3{fill:#89cce5;}.cls-4{opacity:0.72;}.cls-10,.cls-11,.cls-12,.cls-5,.cls-8,.cls-9{fill:#4d27a2;}.cls-6{opacity:0.69;}.cls-7{fill:#b8e2f2;}.cls-8{opacity:0.6;}.cls-9{opacity:0.51;}.cls-10{opacity:0.78;}.cls-11{opacity:0.85;}.cls-12{opacity:0.91;}.cls-13{fill:#152230;}.cls-14{fill:none;}.cls-15{fill:#fff;opacity:0.41;}</style></defs><title>billede12</title><rect class="cls-1" width="725" height="290"/><rect class="cls-2" y="290" width="725" height="214"/><path class="cls-3" d="M575.93,203.67a73.64,73.64,0,0,0-9.69-92.81A68,68,0,0,0,568.35,94c0-34.59-25.63-62.64-57.25-62.64S453.85,59.41,453.85,94a67.85,67.85,0,0,0,3.47,21.51,73.59,73.59,0,0,0-7.87,84.15,85.3,85.3,0,0,0-20,55.17C429.45,301.3,466,339,511.1,339s81.66-37.68,81.66-84.15A85.43,85.43,0,0,0,575.93,203.67Z"/><polygon class="cls-3" points="545.28 184.58 542.31 181.24 515.22 234.06 515.22 172.15 515.26 172.1 515.22 172.05 515.22 147.85 510.24 147.85 510.24 164.68 480.47 120.61 477.82 124.52 510.24 172.5 510.24 295.29 488.97 240.76 485.74 243.52 510.24 306.35 510.24 359.86 515.22 359.86 515.22 242.23 515.54 242.59 545.28 184.58"/><g class="cls-4"><path class="cls-5" d="M333.94,234.41a63.37,63.37,0,0,0-8.34-79.87A59,59,0,0,0,327.42,140c0-29.78-22.06-53.92-49.28-53.92S228.87,110.25,228.87,140a58.37,58.37,0,0,0,3,18.51A63.3,63.3,0,0,0,225.08,231a73.46,73.46,0,0,0-17.21,47.49c0,40,31.46,72.42,70.27,72.42s70.28-32.42,70.28-72.42A73.57,73.57,0,0,0,333.94,234.41Z"/><polygon class="cls-3" points="307.56 217.99 305 215.11 281.69 260.57 281.69 207.29 281.71 207.24 281.69 207.2 281.69 186.37 277.4 186.37 277.4 200.86 251.77 162.92 249.5 166.29 277.4 207.59 277.4 313.27 259.09 266.34 256.31 268.72 277.4 322.79 277.4 368.85 281.69 368.85 281.69 267.61 281.96 267.92 307.56 217.99"/></g><g class="cls-6"><path class="cls-5" d="M40.82,212.66a73.63,73.63,0,0,1,9.7-92.81A68.08,68.08,0,0,1,48.4,103c0-34.6,25.63-62.64,57.25-62.64s57.25,28,57.25,62.64a67.85,67.85,0,0,1-3.46,21.51,73.59,73.59,0,0,1,7.87,84.15,85.34,85.34,0,0,1,20,55.16c0,46.48-36.55,84.16-81.65,84.16S24,310.29,24,263.81A85.41,85.41,0,0,1,40.82,212.66Z"/><polygon class="cls-3" points="71.47 193.57 74.45 190.22 101.53 243.05 101.53 181.14 101.5 181.09 101.53 181.04 101.53 156.84 106.52 156.84 106.52 173.67 136.29 129.59 138.93 133.5 106.52 181.49 106.52 304.27 127.78 249.75 131.02 252.51 106.52 315.34 106.52 368.85 101.53 368.85 101.53 251.22 101.21 251.58 71.47 193.57"/></g><path class="cls-7" d="M231,268.74a63.37,63.37,0,0,0-8.35-79.88,58.56,58.56,0,0,0,1.82-14.51c0-29.78-22.06-53.92-49.27-53.92s-49.28,24.14-49.28,53.92a58.61,58.61,0,0,0,3,18.51,63.35,63.35,0,0,0-6.77,72.42,73.46,73.46,0,0,0-17.21,47.49c0,40,31.46,72.43,70.28,72.43s70.28-32.43,70.28-72.43A73.52,73.52,0,0,0,231,268.74Z"/><polygon class="cls-7" points="204.6 252.31 202.03 249.43 178.72 294.9 178.72 241.61 178.75 241.57 178.72 241.53 178.72 220.69 174.44 220.69 174.44 235.18 148.81 197.25 146.53 200.61 174.44 241.91 174.44 347.59 156.13 300.66 153.34 303.04 174.44 357.11 174.44 403.17 178.72 403.17 178.72 301.93 179 302.24 204.6 252.31"/><path class="cls-5" d="M123.63,365.2a46.79,46.79,0,0,0-6.16-59,43.31,43.31,0,0,0,1.34-10.72c0-22-16.29-39.81-36.38-39.81S46.05,273.52,46.05,295.5a42.89,42.89,0,0,0,2.2,13.67,46.78,46.78,0,0,0-5,53.48,54.26,54.26,0,0,0-12.7,35.06c0,29.53,23.23,53.48,51.89,53.48s51.89-23.95,51.89-53.48A54.33,54.33,0,0,0,123.63,365.2Z"/><polygon class="cls-3" points="104.15 353.07 102.26 350.94 85.05 384.51 85.05 345.17 85.07 345.14 85.05 345.11 85.05 329.72 81.88 329.72 81.88 340.42 62.96 312.41 61.28 314.9 81.88 345.39 81.88 423.42 68.36 388.77 66.31 390.53 81.88 430.45 81.88 464.46 85.05 464.46 85.05 389.71 85.25 389.93 104.15 353.07"/><path class="cls-8" d="M344.1,225.43a63.37,63.37,0,0,1,8.35-79.88A58.56,58.56,0,0,1,350.63,131c0-29.78,22.06-53.92,49.27-53.92s49.28,24.14,49.28,53.92a58.61,58.61,0,0,1-3,18.51A63.35,63.35,0,0,1,453,222a73.46,73.46,0,0,1,17.21,47.49c0,40-31.47,72.43-70.28,72.43s-70.28-32.43-70.28-72.43A73.52,73.52,0,0,1,344.1,225.43Z"/><polygon class="cls-3" points="370.48 209 373.05 206.12 396.36 251.59 396.36 198.3 396.33 198.25 396.36 198.21 396.36 177.38 400.64 177.38 400.64 191.87 426.27 153.94 428.55 157.3 400.64 198.6 400.64 304.28 418.95 257.35 421.74 259.73 400.64 313.8 400.64 359.86 396.36 359.86 396.36 258.62 396.08 258.93 370.48 209"/><path class="cls-9" d="M563.93,216.44a63.35,63.35,0,0,1,8.34-79.88,58.56,58.56,0,0,1-1.82-14.51c0-29.78,22.06-53.92,49.27-53.92S669,92.27,669,122.05a58.61,58.61,0,0,1-3,18.51A63.35,63.35,0,0,1,672.79,213,73.46,73.46,0,0,1,690,260.47c0,40-31.46,72.43-70.28,72.43s-70.27-32.43-70.27-72.43A73.52,73.52,0,0,1,563.93,216.44Z"/><polygon class="cls-3" points="590.3 200.01 592.87 197.13 616.18 242.6 616.18 189.31 616.15 189.27 616.18 189.22 616.18 168.39 620.47 168.39 620.47 182.88 646.09 144.95 648.37 148.31 620.47 189.61 620.47 295.29 638.77 248.36 641.56 250.74 620.47 304.81 620.47 350.88 616.18 350.88 616.18 249.63 615.9 249.94 590.3 200.01"/><path class="cls-5" d="M255.46,371.88a31.33,31.33,0,0,0-4.12-39.48,29,29,0,0,0,.9-7.17c0-14.72-10.91-26.65-24.35-26.65s-24.36,11.93-24.36,26.65a29,29,0,0,0,1.48,9.15,31.31,31.31,0,0,0-3.35,35.79,36.28,36.28,0,0,0-8.5,23.47c0,19.76,15.54,35.79,34.73,35.79s34.73-16,34.73-35.79A36.32,36.32,0,0,0,255.46,371.88Z"/><polygon class="cls-3" points="242.42 363.76 241.16 362.33 229.64 384.8 229.64 358.47 229.65 358.45 229.64 358.43 229.64 348.13 227.52 348.13 227.52 355.29 214.85 336.55 213.73 338.21 227.52 358.62 227.52 410.85 218.47 387.65 217.1 388.83 227.52 415.55 227.52 438.31 229.64 438.31 229.64 388.28 229.77 388.43 242.42 363.76"/><path class="cls-10" d="M506.2,358.66a46.79,46.79,0,0,1,6.16-59A43.28,43.28,0,0,1,511,289c0-22,16.29-39.81,36.38-39.81S583.79,267,583.79,289a42.88,42.88,0,0,1-2.21,13.66,46.78,46.78,0,0,1,5,53.48,54.26,54.26,0,0,1,12.7,35.06c0,29.54-23.23,53.48-51.89,53.48s-51.89-23.94-51.89-53.48A54.33,54.33,0,0,1,506.2,358.66Z"/><polygon class="cls-3" points="525.68 346.53 527.57 344.4 544.78 377.98 544.78 338.63 544.76 338.6 544.78 338.57 544.78 323.19 547.95 323.19 547.95 333.88 566.87 305.87 568.55 308.36 547.95 338.85 547.95 416.88 561.47 382.23 563.52 383.99 547.95 423.92 547.95 457.93 544.78 457.93 544.78 383.17 544.58 383.4 525.68 346.53"/><path class="cls-7" d="M371.92,384.13A31.31,31.31,0,0,1,376,344.66a29.1,29.1,0,0,1-.9-7.17c0-14.72,10.9-26.65,24.35-26.65s24.35,11.93,24.35,26.65a29,29,0,0,1-1.47,9.15,31.31,31.31,0,0,1,3.35,35.79,36.27,36.27,0,0,1,8.5,23.46c0,19.77-15.55,35.8-34.73,35.8s-34.73-16-34.73-35.8A36.34,36.34,0,0,1,371.92,384.13Z"/><polygon class="cls-3" points="384.95 376.01 386.22 374.59 397.74 397.06 397.74 370.73 397.73 370.71 397.74 370.69 397.74 360.39 399.86 360.39 399.86 367.55 412.52 348.8 413.65 350.47 399.86 370.88 399.86 423.1 408.91 399.91 410.28 401.09 399.86 427.81 399.86 450.57 397.74 450.57 397.74 400.54 397.61 400.69 384.95 376.01"/><path class="cls-11" d="M354.69,341.32A43.38,43.38,0,0,0,349,286.61a40,40,0,0,0,1.25-9.94c0-20.4-15.12-36.93-33.76-36.93s-33.75,16.53-33.75,36.93a40,40,0,0,0,2,12.68A43.39,43.39,0,0,0,280.12,339a50.31,50.31,0,0,0-11.78,32.52c0,27.4,21.55,49.62,48.13,49.62s48.14-22.22,48.14-49.62A50.39,50.39,0,0,0,354.69,341.32Z"/><polygon class="cls-3" points="336.63 330.07 334.87 328.1 318.9 359.24 318.9 322.74 318.92 322.71 318.9 322.69 318.9 308.42 315.96 308.42 315.96 318.34 298.41 292.36 296.85 294.66 315.96 322.95 315.96 395.34 303.43 363.19 301.52 364.82 315.96 401.86 315.96 433.41 318.9 433.41 318.9 364.06 319.09 364.27 336.63 330.07"/><path class="cls-5" d="M510.42,350.63a31.33,31.33,0,0,0-4.12-39.48,29,29,0,0,0,.9-7.17c0-14.71-10.91-26.64-24.35-26.64S458.49,289.27,458.49,304a28.63,28.63,0,0,0,1.48,9.15,31.31,31.31,0,0,0-3.35,35.79,36.3,36.3,0,0,0-8.5,23.47c0,19.77,15.54,35.79,34.73,35.79s34.73-16,34.73-35.79A36.32,36.32,0,0,0,510.42,350.63Z"/><polygon class="cls-3" points="497.38 342.51 496.12 341.09 484.6 363.56 484.6 337.22 484.61 337.2 484.6 337.18 484.6 326.89 482.48 326.89 482.48 334.05 469.81 315.3 468.69 316.96 482.48 337.37 482.48 389.6 473.43 366.4 472.06 367.58 482.48 394.3 482.48 417.07 484.6 417.07 484.6 367.03 484.73 367.18 497.38 342.51"/><path class="cls-12" d="M626.88,362.89A31.33,31.33,0,0,1,631,323.41a29,29,0,0,1-.9-7.17c0-14.71,10.9-26.64,24.35-26.64s24.35,11.93,24.35,26.64a28.9,28.9,0,0,1-1.47,9.15,31.31,31.31,0,0,1,3.35,35.79,36.28,36.28,0,0,1,8.5,23.47c0,19.76-15.55,35.79-34.73,35.79s-34.73-16-34.73-35.79A36.32,36.32,0,0,1,626.88,362.89Z"/><polygon class="cls-3" points="639.91 354.77 641.18 353.35 652.7 375.81 652.7 349.48 652.69 349.46 652.7 349.44 652.7 339.14 654.82 339.14 654.82 346.3 667.48 327.56 668.61 329.22 654.82 349.63 654.82 401.86 663.87 378.66 665.24 379.84 654.82 406.56 654.82 429.32 652.7 429.32 652.7 379.29 652.57 379.44 639.91 354.77"/><path class="cls-13" d="M665.51,504H126.13a18.64,18.64,0,0,1-2.13-8.5c0-27.34,64.92-49.5,145-49.5,57.84,0,107.76,11.56,131,28.28,10.23-5.09,24.79-8.28,41-8.28,18,0,34,3.95,44.25,10.08C504.75,467.32,530.4,462,558.5,462,610,462,653.25,479.84,665.51,504Z"/><rect class="cls-14" width="725" height="504"/><path class="cls-15" d="M229.55,457.92a171.24,171.24,0,0,0-25.24,2.18c-14,2.06-35.64,3.49-45.62,16.83a3,3,0,0,0-.35.29c-1.62,1.57-3.36,3.54-3.18,5.87a3.8,3.8,0,0,0,4.29,3.45,7.62,7.62,0,0,0,3.8-1.39c5.7-2,11-5.17,16.68-7.47,10.3-4.15,22.53-3.53,33.12-4.62,4.52-.46,39.29-.16,33.79-10.23C244.25,458.07,234.23,457.93,229.55,457.92Z"/></svg>
