<svg id="Layer_1" data-name="Layer 1" xmlns="http://www.w3.org/2000/svg" width="630" height="546" viewBox="0 0 630 546"><defs><style>.cls-1{fill:#8dc457;}.cls-2{fill:#d9e021;}.cls-3{fill:#b291f2;}.cls-4{fill:#c6b8f2;}.cls-5{fill:#152230;}.cls-6,.cls-8{fill:none;}.cls-7{fill:#fff;opacity:0.41;}.cls-8{stroke:#1b1464;stroke-miterlimit:10;}.cls-9{fill:#f4912d;}</style></defs><title>billede7</title><rect class="cls-1" width="630" height="546"/><path class="cls-2" d="M435,377V546H351V433.72A56.71,56.71,0,0,1,407.72,377Z"/><path class="cls-3" d="M330.67,546H233.32L209,412.53A22.8,22.8,0,0,1,227.34,386l40-7.29L276.7,377a22.82,22.82,0,0,1,26.53,18.35l1.91,10.5h0l9.2,50.5h0Z"/><path class="cls-4" d="M314.35,456.37h0c-.48,2.08-1.06,4.14-1.76,6.22L284.64,546H0V376.61H250.71a65.93,65.93,0,0,1,16.62,2.11,65,65,0,0,1,37.81,27.14h0A64.78,64.78,0,0,1,314.35,456.37Z"/><rect class="cls-4" x="51.61" y="332.51" width="56.7" height="44.1"/><path class="cls-4" d="M54.8,143.73H206.37a2.63,2.63,0,0,1,2.63,2.63V252.58a79.93,79.93,0,0,1-79.93,79.93H54.8a2.63,2.63,0,0,1-2.63-2.63V146.37A2.63,2.63,0,0,1,54.8,143.73Z"/><path class="cls-5" d="M245.94,149.13c0-.71.06-1.42.06-2.14,0-53-43.86-96-98-96s-98,43-98,96c0,.72,0,1.43,0,2.14Z"/><ellipse class="cls-5" cx="48.72" cy="147.78" rx="39.1" ry="63.37"/><rect class="cls-6" width="745" height="546"/><rect class="cls-4" x="472.36" y="311" width="56.7" height="65.61" transform="translate(1001.42 687.61) rotate(-180)"/><path class="cls-4" d="M434.86,149.73H458a70.45,70.45,0,0,1,70.45,70.45v68.46a49.86,49.86,0,0,1-49.86,49.86H434.86A49.86,49.86,0,0,1,385,288.65V199.6a49.86,49.86,0,0,1,49.86-49.86Z" transform="translate(913.5 488.24) rotate(-180)"/><path class="cls-4" d="M628,429V520a51.7,51.7,0,0,1-7,26H392A51.7,51.7,0,0,1,385,520V429c0-.54,0-1.07,0-1.61h0a51.18,51.18,0,0,1,1.73-11.82A52,52,0,0,1,435,377c.65,0,1.31,0,2,0H576a51.94,51.94,0,0,1,45.75,27.29v0A51.79,51.79,0,0,1,628,429Z"/><ellipse class="cls-4" cx="419" cy="467.5" rx="56" ry="50.5"/><rect class="cls-4" x="382.72" y="401.74" width="13" height="44.67" transform="translate(273.02 -139.69) rotate(30.9)"/><path class="cls-7" d="M225.59,112.76a108.22,108.22,0,0,0-10-11.9c-5.95-6.28-14.32-16.64-23.88-16.3a1,1,0,0,0-.26-.06c-1.28-.19-2.79-.28-3.77.76a2.7,2.7,0,0,0,0,3.57,4.35,4.35,0,0,0,2,1.36c3,2.07,6.25,3.47,9.33,5.43,5.55,3.54,9.65,10,13.93,14.91,1.82,2.1,14.14,19.83,16.69,13C230.78,120.27,227.26,115.14,225.59,112.76Z"/><ellipse class="cls-8" cx="403" cy="208.5" rx="25" ry="29.5"/><ellipse class="cls-8" cx="453.5" cy="209" rx="25" ry="29.5"/><path class="cls-2" d="M630,433.72V546H512V377h61.28a56.66,56.66,0,0,1,48.5,27.29v0A56.63,56.63,0,0,1,630,433.72Z"/><path class="cls-7" d="M385.17,136.9a59.86,59.86,0,0,0,3.34,7.88c2.12,4.27,4.85,11.07,10,12.56l.12.08a2.44,2.44,0,0,0,2.14.26,1.43,1.43,0,0,0,.61-1.84,2.48,2.48,0,0,0-.83-1.05c-1.22-1.58-2.75-2.87-4.06-4.42-2.36-2.79-3.47-6.82-4.92-10.11-.62-1.39-4.2-12.68-6.72-9.59C383.67,132.13,384.68,135.39,385.17,136.9Z"/><path class="cls-7" d="M23.17,178.9a59.86,59.86,0,0,0,3.34,7.88c2.12,4.27,4.85,11.07,10,12.56l.12.08a2.44,2.44,0,0,0,2.14.26,1.43,1.43,0,0,0,.61-1.84,2.48,2.48,0,0,0-.83-1.05c-1.22-1.58-2.75-2.87-4.06-4.42-2.36-2.79-3.47-6.82-4.92-10.11-.62-1.39-4.2-12.68-6.72-9.59C21.67,174.13,22.68,177.39,23.17,178.9Z"/><rect class="cls-6" width="743" height="546"/><circle class="cls-9" cx="405" cy="131" r="33"/><ellipse class="cls-9" cx="495.5" cy="101.5" rx="72.5" ry="62.5"/><ellipse class="cls-9" cx="577.5" cy="169.5" rx="24.5" ry="30.5"/><circle class="cls-9" cx="541.5" cy="158.5" r="27.5"/><circle class="cls-9" cx="517.5" cy="186.5" r="27.5"/><ellipse class="cls-9" cx="546" cy="211.5" rx="23" ry="32.5"/><ellipse class="cls-9" cx="569.5" cy="129.5" rx="19.5" ry="27.5"/><circle class="cls-9" cx="577.5" cy="208.5" r="23.5"/><circle class="cls-9" cx="446.5" cy="148.5" r="23.5"/><ellipse class="cls-9" cx="542" cy="268" rx="33" ry="30"/><circle class="cls-9" cx="532" cy="239" r="18"/><ellipse class="cls-9" cx="579" cy="226.5" rx="34" ry="17.5"/><ellipse class="cls-9" cx="576" cy="253.5" rx="31" ry="26.5"/><circle class="cls-9" cx="544" cy="333" r="35"/><circle class="cls-9" cx="585.5" cy="298.5" r="25.5"/><ellipse class="cls-9" cx="549.5" cy="301" rx="26.5" ry="21"/><ellipse class="cls-9" cx="573.5" cy="339.5" rx="23.5" ry="28.5"/><ellipse class="cls-9" cx="547" cy="374.5" rx="24" ry="19.5"/><circle class="cls-9" cx="575" cy="366" r="22"/><path class="cls-7" d="M559.51,86.68a109.88,109.88,0,0,0-9.45-13.25c-5.76-7.14-13.59-18.59-24.7-20.41a2,2,0,0,0-.29-.12c-1.45-.46-3.18-.87-4.5-.14a2.17,2.17,0,0,0-.65,3.3,5.15,5.15,0,0,0,2.05,1.7c3,2.58,6.61,4.61,9.81,7.11,5.79,4.51,9.38,11.39,13.44,16.9,1.74,2.35,12.81,21.5,17,15.73C564.18,94.78,561,89.25,559.51,86.68Z"/></svg>
