<svg id="Layer_1" data-name="Layer 1" xmlns="http://www.w3.org/2000/svg" width="856" height="593" viewBox="0 0 856 593"><defs><style>.cls-1{fill:#89cce5;}.cls-2{fill:#e5d438;}.cls-3{fill:#fcfca4;}.cls-4{fill:#f4912d;}</style></defs><title>billede3</title><rect class="cls-1" width="856" height="593"/><polygon class="cls-2" points="732.68 593 109 593 0 0 856 0 732.68 593"/><ellipse class="cls-2" cx="220.75" cy="286" rx="205.25" ry="165.5"/><path class="cls-3" d="M220.75,121c54.73,0,106.18,17.19,144.86,48.4,18.79,15.16,33.54,32.8,43.84,52.45a136.23,136.23,0,0,1,0,128.3c-10.3,19.65-25.05,37.29-43.84,52.45C326.93,433.81,275.48,451,220.75,451S114.57,433.81,75.89,402.6c-18.79-15.16-33.54-32.8-43.84-52.45a136.23,136.23,0,0,1,0-128.3c10.3-19.65,25.05-37.29,43.84-52.45C114.57,138.19,166,121,220.75,121m0-1C107.12,120,15,194.32,15,286s92.12,166,205.75,166S426.5,377.68,426.5,286,334.38,120,220.75,120Z"/><ellipse class="cls-2" cx="632.25" cy="286" rx="205.25" ry="165.5"/><path class="cls-3" d="M632.25,121c54.73,0,106.18,17.19,144.86,48.4,18.79,15.16,33.54,32.8,43.84,52.45a136.23,136.23,0,0,1,0,128.3c-10.3,19.65-25.05,37.29-43.84,52.45C738.43,433.81,687,451,632.25,451s-106.18-17.19-144.86-48.4c-18.79-15.16-33.54-32.8-43.84-52.45a136.23,136.23,0,0,1,0-128.3c10.3-19.65,25.05-37.29,43.84-52.45,38.68-31.21,90.13-48.4,144.86-48.4m0-1C518.62,120,426.5,194.32,426.5,286s92.12,166,205.75,166S838,377.68,838,286,745.88,120,632.25,120Z"/><ellipse class="cls-3" cx="663.27" cy="339.22" rx="62.73" ry="51.22"/><ellipse class="cls-4" cx="663.27" cy="341.78" rx="16.2" ry="16.22"/><ellipse class="cls-3" cx="166.27" cy="339.22" rx="62.73" ry="51.22"/><ellipse class="cls-4" cx="166.27" cy="341.78" rx="16.2" ry="16.22"/><rect class="cls-2" x="80" y="64" width="709" height="164"/></svg>
