<svg id="Layer_1" data-name="Layer 1" xmlns="http://www.w3.org/2000/svg" width="909" height="640" viewBox="0 0 909 640"><defs><style>.cls-1{fill:#cfc6f4;}.cls-2{fill:#5f7c3e;}.cls-3{fill:#c6ef9a;}.cls-4{fill:#fcfca4;}.cls-5{fill:#806fc9;}.cls-6{fill:#f4912d;}.cls-7{fill:#152230;}.cls-8{stroke:#1b1464;stroke-miterlimit:10;}.cls-9{fill:#e5d438;}.cls-10{fill:#fff;opacity:0.41;}</style></defs><title>billede8</title><rect class="cls-1" x="-1" width="909" height="410"/><path class="cls-2" d="M2.5,558.14V195L68,231.31c54.61,30.27,125,25.74,174.11-11.21h0c19.34-14.54,47.61-14.76,67.22-.51h0c41.46,30.12,100.45,32,144.21,4.56h0c28.63-18,66.06-20.47,97.41-6.55l6.63,3c52.63,23.36,115.84,16.81,161-16.69h0a22.85,22.85,0,0,1,24.86-1.17l14.76,8.79C806.12,240,870.32,233,909,195h0V558.14Z"/><path class="cls-3" d="M1.33,640V276.86l65.53,36.32c54.61,30.26,125,25.73,174.11-11.22h0c19.34-14.54,47.61-14.75,67.23-.5h0c41.45,30.12,100.45,32,144.21,4.55h0c28.63-17.95,66.05-20.46,97.4-6.54l6.64,2.94c52.62,23.37,115.83,16.81,161-16.69h0a22.87,22.87,0,0,1,24.87-1.16l14.76,8.78c47.89,28.51,112.09,21.49,150.77-16.48h0V640Z"/><path class="cls-4" d="M-1,640V459.48l65.53,18c54.61,15.05,125,12.8,174.11-5.57h0c19.34-7.23,47.61-7.34,67.22-.25h0c41.46,15,100.45,15.9,144.21,2.26h0c28.63-8.92,66.06-10.17,97.41-3.25l6.63,1.46c52.63,11.62,115.84,8.36,161-8.29h0c7.07-2.61,17.2-2.85,24.86-.58l14.76,4.36c47.9,14.17,112.1,10.69,150.78-8.19h0V640Z"/><path class="cls-5" d="M458,62.52C458,52,446,43.47,431.09,43.47a33.83,33.83,0,0,0-17.72,4.74,26.07,26.07,0,0,0,.18-2.94C413.55,28,396,14,374.36,14c-18.69,0-34.31,10.44-38.23,24.41-6.74-5.28-16.47-8.6-27.28-8.6C288.5,29.81,272,41.56,272,56.05c0,5.75,2.61,11.07,7,15.39V83H454.49V71.9A14.94,14.94,0,0,0,458,62.52Z"/><path class="cls-6" d="M544.11,375.66,544,375H427.71l0,.14c-11.73,8.19-19.62,23.36-19.62,40.73A53.43,53.43,0,0,0,415,442.44c-1.2,16.4-.36,38.24,3.9,67.32C426,558.69,437.11,608.47,447,640h26.61c6.16-40.24,10.18-105.69,10.26-129.33.1-28.34-1.78-49.85-4.76-66.19a50.68,50.68,0,0,0,6.4-14.83,50.79,50.79,0,0,0,7.13,15.93c-2.87,16.34-4.72,37.9-4.72,66.34,0,23.4,3.5,87.73,9,128.08h25.6c9.31-31.55,19.69-80.56,26.48-128.76,3.83-27.27,4.84-48.18,4.05-64.21A52.4,52.4,0,0,0,563,415.87C563,398.86,555.44,384,544.11,375.66Z"/><rect class="cls-6" x="312.77" y="206.93" width="146.06" height="32.21" rx="13.19" transform="translate(-58.91 251.64) rotate(-33.71)"/><rect class="cls-6" x="550.63" y="178.9" width="28.59" height="235.54" rx="11.39" transform="translate(-44.03 106.07) rotate(-10.33)"/><rect class="cls-6" x="467" y="422" width="32" height="23"/><polygon class="cls-7" points="491.69 445 543 376 427 375 478.39 445 491.69 445"/><path class="cls-6" d="M518.79,175H449.21c-22.67,0-40.07,22-36.82,46.54L432.74,375h106l16.94-154.46C558.39,196.32,541.1,175,518.79,175Z"/><ellipse class="cls-7" cx="444" cy="233.5" rx="39" ry="29.5"/><ellipse class="cls-7" cx="521.5" cy="233.5" rx="38.5" ry="29.5"/><polygon class="cls-7" points="537.84 378 433.06 378 415 234 555 234 537.84 378"/><rect class="cls-6" x="466.74" y="155.61" width="26.97" height="20.98"/><path class="cls-6" d="M463.39,155.61h30.05V65.82H425.18v51.57A38.22,38.22,0,0,0,463.39,155.61Z"/><ellipse class="cls-8" cx="433.74" cy="96.62" rx="11.89" ry="14.03"/><ellipse class="cls-8" cx="457.77" cy="96.86" rx="11.89" ry="14.03"/><circle class="cls-9" cx="434.7" cy="59.76" r="15.7"/><ellipse class="cls-9" cx="477.74" cy="45.73" rx="34.48" ry="29.73"/><ellipse class="cls-9" cx="516.74" cy="78.07" rx="11.65" ry="14.51"/><circle class="cls-9" cx="499.62" cy="72.84" r="13.08"/><circle class="cls-9" cx="488.21" cy="86.16" r="13.08"/><ellipse class="cls-9" cx="501.76" cy="98.05" rx="10.94" ry="15.46"/><ellipse class="cls-9" cx="512.94" cy="59.05" rx="9.28" ry="13.08"/><circle class="cls-9" cx="516.74" cy="96.62" r="11.18"/><circle class="cls-9" cx="454.44" cy="68.08" r="11.18"/><ellipse class="cls-9" cx="499.86" cy="124.92" rx="15.7" ry="14.27"/><circle class="cls-9" cx="495.1" cy="111.13" r="8.56"/><ellipse class="cls-9" cx="517.46" cy="105.18" rx="16.17" ry="8.32"/><ellipse class="cls-9" cx="516.03" cy="118.03" rx="14.74" ry="12.6"/><circle class="cls-9" cx="500.81" cy="155.84" r="16.65"/><circle class="cls-9" cx="520.55" cy="139.43" r="12.13"/><ellipse class="cls-9" cx="503.43" cy="140.62" rx="12.6" ry="9.99"/><ellipse class="cls-9" cx="514.84" cy="158.93" rx="11.18" ry="13.56"/><circle class="cls-9" cx="515.56" cy="171.54" r="10.46"/><path class="cls-10" d="M425.27,62.57a27.2,27.2,0,0,0,1.58,3.74c1,2,2.31,5.27,4.76,6l.06,0a1.13,1.13,0,0,0,1,.13.68.68,0,0,0,.28-.88,1.06,1.06,0,0,0-.39-.49c-.58-.76-1.31-1.37-1.93-2.11-1.13-1.32-1.65-3.24-2.34-4.8-.3-.67-2-6-3.2-4.57C424.55,60.3,425,61.85,425.27,62.57Z"/><path class="cls-10" d="M508.19,38.68a50.77,50.77,0,0,0-4.5-6.3c-2.74-3.4-6.46-8.85-11.75-9.71l-.13-.06a2.79,2.79,0,0,0-2.14-.06,1,1,0,0,0-.31,1.57,2.45,2.45,0,0,0,1,.8c1.45,1.23,3.15,2.2,4.67,3.38,2.75,2.15,4.46,5.42,6.39,8,.83,1.12,6.09,10.23,8.08,7.49C510.41,42.53,508.91,39.9,508.19,38.68Z"/><rect class="cls-6" x="285.05" y="125.73" width="29.17" height="154.22" rx="14.58" transform="translate(-62.06 212.97) rotate(-35.7)"/><rect class="cls-8" x="469.5" y="93.5" width="9" height="2"/><path class="cls-5" d="M178,105.19c0-9.15-7.84-16.57-17.5-16.57A18,18,0,0,0,149,92.75c.07-.84.11-1.7.11-2.56,0-15-11.41-27.19-25.49-27.19-12.16,0-22.32,9.08-24.87,21.22A24.48,24.48,0,0,0,81,76.75C67.73,76.75,57,87,57,99.56A22,22,0,0,0,61.57,113v10H175.72v-9.65A15.85,15.85,0,0,0,178,105.19Z"/><path class="cls-5" d="M774,153.19c0-9.15-7.84-16.57-17.5-16.57A18,18,0,0,0,745,140.75c.07-.84.11-1.7.11-2.56,0-15-11.41-27.19-25.49-27.19-12.16,0-22.32,9.08-24.87,21.22A24.48,24.48,0,0,0,677,124.75c-13.24,0-24,10.21-24,22.81A22,22,0,0,0,657.57,161V171H771.72v-9.65A15.85,15.85,0,0,0,774,153.19Z"/><circle class="cls-6" cx="252.5" cy="137.5" r="19.5"/></svg>
