<svg id="Layer_1" data-name="Layer 1" xmlns="http://www.w3.org/2000/svg" width="531" height="522" viewBox="0 0 531 522"><defs><style>.cls-1{fill:#fcfca4;}.cls-2{fill:#89cce5;}.cls-3{opacity:0.57;}.cls-4{fill:#f5f7f7;}.cls-5{opacity:0.64;}</style></defs><title>billede2</title><rect class="cls-1" width="531" height="518"/><path class="cls-2" d="M169.66,332.85c10.4,71.07,26.51,143.36,40.91,189.15h38.65c8.94-58.43,14.77-153.49,14.89-187.82.14-41.16-2.59-72.4-6.91-96.12a73.9,73.9,0,0,0,9.3-21.55,73.58,73.58,0,0,0,10.35,23.14c-4.16,23.73-6.85,55-6.85,96.35,0,34,5.07,127.4,13.13,186h37.16c13.53-45.83,28.6-117,38.46-187,5.57-39.6,7-70,5.89-93.24,8.93-12.07,14.36-27.9,14.36-45.26,0-24.7-11-46.34-27.44-58.4L327.49,0h-128l-17,137.36c-17,11.89-28.5,33.91-28.5,59.14a77.52,77.52,0,0,0,10,38.59C162.25,258.91,163.48,290.62,169.66,332.85Z"/><g class="cls-3"><path class="cls-4" d="M174.83,244.32a115.13,115.13,0,0,0,37.44,8.93c12.67.7,23.59-5.27,34.11-11.6.82-.5.07-1.8-.76-1.3-10.29,6.2-20.93,12.08-33.35,11.4A113.52,113.52,0,0,1,175.59,243c-.88-.37-1.64.92-.76,1.3Z"/></g><g class="cls-5"><path class="cls-4" d="M141.38,252.61a1.5,1.5,0,0,0,0-3,1.5,1.5,0,0,0,0,3Z"/></g><g class="cls-3"><path class="cls-4" d="M356.62,243a113.52,113.52,0,0,1-36.68,8.73c-12.41.68-23.06-5.2-33.35-11.4-.83-.5-1.58.8-.76,1.3,10.55,6.35,21.42,12.26,34.11,11.6a114.31,114.31,0,0,0,37.44-8.93c.88-.38.12-1.67-.76-1.3Z"/></g></svg>
