<svg id="Layer_1" data-name="Layer 1" xmlns="http://www.w3.org/2000/svg" width="968" height="675" viewBox="0 0 968 675"><defs><style>.cls-1{fill:#c6ef9a;}.cls-2{fill:#c6b8f2;}.cls-3{fill:#806fc9;}.cls-4{fill:#42387a;}.cls-5{opacity:0.35;}.cls-6{fill:#fff;}</style></defs><title>billede4</title><rect class="cls-1" width="968" height="675"/><polygon class="cls-2" points="968 552.58 684 201.1 684 0 260 0 260 177.01 257.86 175.28 0 494.41 0 675 188.35 675 404.9 407 516.1 407 732.65 675 968 675 968 552.58"/><rect class="cls-3" x="422" y="199" width="75" height="120"/><path class="cls-4" d="M493.86,199H425.14a8.13,8.13,0,0,1-8.14-8.14V176.49A38.49,38.49,0,0,1,455.49,138h6.93A39.58,39.58,0,0,1,502,177.58v13.28A8.13,8.13,0,0,1,493.86,199Z"/><ellipse class="cls-4" cx="422.5" cy="363" rx="49.5" ry="64"/><ellipse class="cls-4" cx="491.5" cy="363" rx="49.5" ry="64"/><g class="cls-5"><path class="cls-6" d="M457.63,408.27c-.12-2.13-.46-4.2-.43-6.35a53.25,53.25,0,0,0-.07-6.92c-.1-.95-1.61-1-1.5,0a55.1,55.1,0,0,1,.07,6.92c0,2.14.31,4.22.43,6.35.06,1,1.56,1,1.5,0Z"/></g><g class="cls-5"><path class="cls-6" d="M458.75,333c-.36-2.71-1.26-5.09-1.1-7.9.15-2.53.42-4.82-.26-7.3a.75.75,0,0,0-1.44.4c.73,2.71.2,5.2.15,7.92-.05,2.44.83,4.5,1.15,6.88.13.94,1.63,1,1.5,0Z"/></g><g class="cls-5"><path class="cls-6" d="M460.75,153c-.36-2.71-1.26-5.09-1.1-7.9.15-2.53.42-4.82-.26-7.3a.75.75,0,0,0-1.44.4c.73,2.71.2,5.2.15,7.92-.05,2.44.83,4.5,1.15,6.88.13.94,1.63,1,1.5,0Z"/></g></svg>
