<svg id="Layer_1" data-name="Layer 1" xmlns="http://www.w3.org/2000/svg" width="666" height="600" viewBox="0 0 666 600"><defs><style>.cls-1{fill:#cbecf7;}.cls-2{fill:#d9e021;}.cls-3{fill:#c6b8f2;}.cls-4,.cls-8{fill:none;}.cls-4{stroke:#1b1464;stroke-miterlimit:10;}.cls-5{fill:#662d91;}.cls-6{fill:#fff;opacity:0.41;}.cls-7{fill:#c1272d;}</style></defs><title>billede9</title><rect class="cls-1" width="666" height="600"/><path class="cls-2" d="M568.46,566v34H417.18V484.67h49.13C522.74,484.67,568.46,521.08,568.46,566Z"/><rect class="cls-3" x="247.79" y="420.87" width="102.11" height="63.23"/><path class="cls-3" d="M224.79,150.19H507a0,0,0,0,1,0,0V285.87a135,135,0,0,1-135,135H224.79a0,0,0,0,1,0,0V150.19A0,0,0,0,1,224.79,150.19Z"/><path class="cls-3" d="M507.23,559.19V600H69.6V559.19a62.6,62.6,0,0,1,11.19-35.36s0,0,0,0c11.3-16.6,30.26-29.42,53.11-35.4a114.94,114.94,0,0,1,29.29-3.73H413.63c1.19,0,2.38,0,3.55.06,41.75,1.23,76.5,24.24,86.88,55.18h0a59.63,59.63,0,0,1,3.12,17h0C507.21,557.66,507.23,558.42,507.23,559.19Z"/><path class="cls-3" d="M544.84,600H347.16c7.4-26.28,34.64-47.41,70-55a139.07,139.07,0,0,1,64.74,1.72,116.41,116.41,0,0,1,25.26,10.12,90,90,0,0,1,22.58,17.23l0,0A63,63,0,0,1,544.84,600Z"/><polygon class="cls-3" points="510.24 584.44 530.33 574.86 489.01 519.91 468.93 529.48 510.24 584.44"/><ellipse class="cls-4" cx="474.81" cy="229.71" rx="45.02" ry="42.3"/><ellipse class="cls-4" cx="383.87" cy="230.42" rx="45.02" ry="42.3"/><ellipse class="cls-5" cx="354.25" cy="84.36" rx="175.38" ry="67.36"/><path class="cls-2" d="M278.51,484.67V600H66V566a65.47,65.47,0,0,1,3.6-21.45,73.3,73.3,0,0,1,11.19-20.72s0,0,0,0c12.25-16,31.25-28.42,53.87-34.66a126,126,0,0,1,33.48-4.47Z"/><path class="cls-6" d="M506.92,140.39a75,75,0,0,1-6,11.3c-3.81,6.13-8.72,15.87-18,18l-.22.11a5.33,5.33,0,0,1-3.86.37,1.86,1.86,0,0,1-1.09-2.63,3.67,3.67,0,0,1,1.5-1.5c2.2-2.27,4.95-4.13,7.3-6.34,4.26-4,6.25-9.79,8.87-14.5,1.11-2,7.57-18.19,12.09-13.75C509.63,133.55,507.8,138.22,506.92,140.39Z"/><rect class="cls-5" x="318.44" y="89.82" width="211.18" height="89.81"/><rect class="cls-5" x="180.09" y="78.9" width="125" height="521.1"/><path class="cls-6" d="M214.79,97.5a163.53,163.53,0,0,1,17-19c10.37-10.24,24.48-26.66,44.49-29.27a5.07,5.07,0,0,1,.51-.17c2.62-.66,5.73-1.26,8.11-.2s2.59,3.08,1.18,4.73A9.22,9.22,0,0,1,282.4,56c-5.47,3.69-11.9,6.61-17.67,10.19-10.42,6.47-16.88,16.33-24.21,24.24-3.12,3.36-23.06,30.83-30.58,22.55C206.39,109.12,212.08,101.19,214.79,97.5Z"/><ellipse class="cls-5" cx="316.62" cy="175.38" rx="24.88" ry="30.95"/><circle class="cls-3" cx="292.96" cy="264.59" r="25.49"/><ellipse class="cls-7" cx="483.5" cy="350.15" rx="84.35" ry="77.68"/><rect class="cls-8" width="959" height="600"/></svg>
