<svg id="Layer_1" data-name="Layer 1" xmlns="http://www.w3.org/2000/svg" width="252" height="239" viewBox="0 0 252 239"><defs><style>.cls-1{fill:#88cbe4;}</style></defs><title>Liv like</title><path class="cls-1" d="M236,111.06h0c0-10.26-6.95-18.58-15.53-18.58H168.73l5.11-39.36.34-.14q0-1-.06-2l.06-.47h-.1C172.62,30.68,153.82,15,130.82,15c1.31,6.68,1.1,15.09,1.54,23.09.57,10.28-5.74,20.75-10.63,28.67A82.54,82.54,0,0,1,113,75,143.82,143.82,0,0,1,86.2,92.51C80.53,92.82,76,98.4,76,105.27v87.14h0V198c0,7.07,4.79,12.8,10.69,12.8h2.67a14.12,14.12,0,0,0,2.17.18H210.21c8.58,0,15.53-8.32,15.53-18.59h0a21.44,21.44,0,0,0-1.55-8.1A19.77,19.77,0,0,0,231,168.92,20.67,20.67,0,0,0,227,156.39a19.71,19.71,0,0,0,7-15.52,20.24,20.24,0,0,0-5.32-14C233.05,123.6,236,117.74,236,111.06Z"/><rect class="cls-1" x="23.5" y="70.5" width="43" height="151"/></svg>