<svg id="Layer_1" data-name="Layer 1" xmlns="http://www.w3.org/2000/svg" width="522" height="266" viewBox="0 0 522 266"><defs><style>.cls-1{fill:#5f7c3e;}.cls-2{fill:#c6ef9a;}.cls-3{fill:#332e66;opacity:0.42;}.cls-4{fill:#806fc9;}.cls-5{fill:#fff;opacity:0.58;}</style></defs><title>playknap1</title><circle class="cls-1" cx="258.5" cy="126.5" r="92.5"/><ellipse class="cls-2" cx="253.5" cy="130.5" rx="86.5" ry="85.5"/><polyline class="cls-3" points="244.42 94.3 295.72 133.53 244.59 172.98"/><polyline class="cls-4" points="238.53 87.04 289.84 126.28 238.7 165.73"/><path class="cls-5" d="M325,101.84c-3.19-8.07-8.86-15.19-13.13-22.84-3.6-6.45-11.12-11-18-15-6.37-3.77-13.8-7.21-22-7.93l-.44,0a4.75,4.75,0,0,0-.54-.14,12.45,12.45,0,0,0-5.41.1,2,2,0,0,0-1,.3c-2.58.94-4.45,2.87-4.5,5.66-.12,6.44,10.86,10,16.15,13.1a109.34,109.34,0,0,1,20.18,14.64c.38.48.79,1,1.15,1.46a1.84,1.84,0,0,0,1,.65l.18.19c1.34,2.29,2.55,4.64,3.64,7a86.67,86.67,0,0,1,4.8,13.94c.68,2.6,1.22,5.4,3.56,7.34,3.7,3.08,12.34,3.5,16.27-.39C331.32,115.44,326.74,106.3,325,101.84ZM303.3,74.6l-.16.08c-.54-.43-1.11-.86-1.73-1.27a1.9,1.9,0,0,0-.7-.29,1.89,1.89,0,0,0,.23-.28c.78.57,1.56,1.14,2.31,1.72Z"/></svg>
