<svg id="Layer_1" data-name="Layer 1" xmlns="http://www.w3.org/2000/svg" width="9000" height="900" viewBox="0 0 9000 900"><defs><style>.cls-1{fill:#56b0e2;}.cls-2{fill:none;}.cls-3{fill:#011c26;}.cls-4{fill:#f4912d;}.cls-5{fill:#031923;}.cls-6{fill:#d8d8d8;}.cls-7{fill:#af6409;}.cls-8{fill:#093a47;}</style></defs><title>SPRITE10</title><rect class="cls-1" x="8764.39" y="210.36" width="33" height="27" transform="translate(6715.42 8761.31) rotate(-77.86)"/><path class="cls-1" d="M4779.36,209.8h0a43,43,0,0,1-32.67-51.29l11.91-53.7A30.1,30.1,0,0,1,4794.39,82l25.38,5.63a30.08,30.08,0,0,1,22.79,35.79l-11.91,53.69A43,43,0,0,1,4779.36,209.8Z"/><rect class="cls-2" width="500" height="900"/><path class="cls-1" d="M280.86,206.68h0a43,43,0,0,1-32.67-51.29l11.91-53.7A30.1,30.1,0,0,1,295.89,78.9l25.38,5.63a30.09,30.09,0,0,1,22.79,35.79L332.15,174A43,43,0,0,1,280.86,206.68Z"/><path class="cls-3" d="M361.22,85.84l-8.66-.27-4-.12-3.29-.11a11.69,11.69,0,0,1-3.11-.51l-36-11a69.47,69.47,0,0,0-19.56-2.51l-7.74.33c-7.31.3-16.73,5.45-20.94,11.43l-1.55,2.21a59.73,59.73,0,0,0-7.92,18L237.45,153a10,10,0,0,0,7.6,11.93l11.72,2.6A14.3,14.3,0,0,0,271.41,161l25.9-46.33A14.63,14.63,0,0,1,312,107.88l29.43,5.91a10.27,10.27,0,0,0,11.78-7.13l3.64-7.55,1.74-3.6,3.77-7.8A1.21,1.21,0,0,0,361.22,85.84Z"/><rect class="cls-1" x="262.72" y="200.5" width="33" height="27" transform="translate(11.29 441.97) rotate(-77.86)"/><path class="cls-4" d="M334,442H208V288.13A63.14,63.14,0,0,1,271.13,225h0A62.87,62.87,0,0,1,334,287.87Z"/><path class="cls-5" d="M412.79,391.34l-7.15-20.94a3.48,3.48,0,0,1,.11-2.52L435,306c1.22-2.77,5.81-4.78,7-2l6.85,11.1a10.07,10.07,0,0,1,0,7.95l-29.6,68.54A3.46,3.46,0,0,1,412.79,391.34Z"/><path class="cls-6" d="M415.14,379.15l-3.34-15.39a3,3,0,0,1,.22-1.85l22.43-45.5c.95-2,4-3.51,4.61-1.46l3.74,8.16a8.41,8.41,0,0,1-.48,5.84l-23.05,50.39C418.29,381.48,415.62,381.36,415.14,379.15Z"/><path class="cls-1" d="M425,374h0c-5.13,8.2-15.8,7.13-24,2L256.7,293.62a17.52,17.52,0,0,1-5.55-24.14l4.07-6.51a17.51,17.51,0,0,1,24.14-5.55L419,350C427.2,355.13,430.13,365.8,425,374Z"/><path class="cls-7" d="M270.59,238h0a28.79,28.79,0,0,1,28.79,28.79V317a0,0,0,0,1,0,0H242a0,0,0,0,1,0,0V266.59A28.59,28.59,0,0,1,270.59,238Z" transform="translate(-108.15 359.74) rotate(-57.96)"/><polygon class="cls-3" points="338 784 306 786 309 624 356 643 338 784"/><polygon class="cls-3" points="356 643 319 667 208 442 334 442 356 643"/><path class="cls-8" d="M244,642l-43-15,7-185H334L257,639C255,642,249,641,244,642Z"/><path class="cls-8" d="M76.22,759.58,56.63,740.15,208.37,614.38l46.06,19.13a3.8,3.8,0,0,1,1.11,7Z"/><path d="M63.13,729.83h40a0,0,0,0,1,0,0v71.59a19.41,19.41,0,0,1-19.41,19.41h0a20.59,20.59,0,0,1-20.59-20.59V729.83a0,0,0,0,1,0,0Z" transform="translate(-457.06 212.97) rotate(-37.73)"/><path d="M332.5,756.5h40a0,0,0,0,1,0,0v71.59a19.41,19.41,0,0,1-19.41,19.41h0a20.59,20.59,0,0,1-20.59-20.59V756.5a0,0,0,0,1,0,0Z" transform="translate(-419.5 1216.1) rotate(-94.48)"/><path class="cls-1" d="M782.36,205.8h0a43,43,0,0,1-32.67-51.29l11.91-53.7A30.1,30.1,0,0,1,797.39,78l25.38,5.63a30.08,30.08,0,0,1,22.79,35.79l-11.91,53.69A43,43,0,0,1,782.36,205.8Z"/><path class="cls-3" d="M862.72,85l-8.66-.27-4-.12-3.29-.11a11.69,11.69,0,0,1-3.11-.51l-35.95-11a69.83,69.83,0,0,0-19.56-2.5l-7.74.32c-7.31.31-16.73,5.46-20.94,11.44l-1.55,2.21a59.73,59.73,0,0,0-7.92,18l-11,49.78a10,10,0,0,0,7.6,11.93l11.72,2.6a14.3,14.3,0,0,0,14.64-6.56l25.9-46.34A14.64,14.64,0,0,1,813.49,107l29.43,5.91a10.27,10.27,0,0,0,11.78-7.13l3.64-7.55,1.74-3.6,3.77-7.8A1.21,1.21,0,0,0,862.72,85Z"/><rect class="cls-1" x="764.22" y="199.62" width="33" height="27" transform="translate(408.18 931.56) rotate(-77.86)"/><path class="cls-4" d="M834.44,441.12h-126V287.25a63.13,63.13,0,0,1,63.13-63.13h0A62.87,62.87,0,0,1,834.44,287Z"/><path class="cls-5" d="M913.22,390.45l-7.14-20.93a3.48,3.48,0,0,1,.11-2.52l29.25-61.88c1.22-2.77,5.8-4.78,7-2l6.85,11.1a10.12,10.12,0,0,1,0,7.95l-29.6,68.54A3.46,3.46,0,0,1,913.22,390.45Z"/><path class="cls-6" d="M915.58,378.27l-3.34-15.4a2.87,2.87,0,0,1,.22-1.84l22.43-45.5c1-2,4-3.51,4.61-1.47l3.74,8.17a8.52,8.52,0,0,1-.48,5.84l-23,50.39C918.73,380.6,916.06,380.48,915.58,378.27Z"/><path class="cls-1" d="M925.44,373.12h0c-5.14,8.2-15.8,7.13-24,2l-144.3-82.38a17.51,17.51,0,0,1-5.55-24.14l4.07-6.51a17.51,17.51,0,0,1,24.14-5.55l139.64,92.58C927.64,354.25,930.57,364.92,925.44,373.12Z"/><path class="cls-7" d="M771,237.12h0a28.79,28.79,0,0,1,28.79,28.79v50.21a0,0,0,0,1,0,0H742.44a0,0,0,0,1,0,0V265.71A28.59,28.59,0,0,1,771,237.12Z" transform="translate(127.55 783.53) rotate(-57.96)"/><polygon class="cls-3" points="821.44 784.12 788.44 786.12 809.44 623.12 856.44 642.12 821.44 784.12"/><polygon class="cls-3" points="856.44 642.12 812.44 648.12 708.44 441.12 834.44 441.12 856.44 642.12"/><path class="cls-8" d="M760.44,647.12l-42-21-10-185h126l-63,203C769.44,647.12,765.44,646.12,760.44,647.12Z"/><path class="cls-8" d="M590.66,764.7l-19.59-19.43L722.81,619.5l46.05,19.13a3.8,3.8,0,0,1,1.12,7Z"/><path d="M587.56,726.95h40a0,0,0,0,1,0,0v71.59a19.41,19.41,0,0,1-19.41,19.41h0a20.59,20.59,0,0,1-20.59-20.59V726.95A0,0,0,0,1,587.56,726.95Z" transform="translate(-345.65 533.29) rotate(-37.73)"/><path d="M814.94,756.62h40a0,0,0,0,1,0,0v71.59a19.41,19.41,0,0,1-19.41,19.41h0A20.59,20.59,0,0,1,814.94,827V756.62a0,0,0,0,1,0,0Z" transform="translate(100.52 1697.18) rotate(-94.48)"/><rect class="cls-2" x="500" width="500" height="900"/><path class="cls-1" d="M1281.25,208.55h0a43,43,0,0,1-32.66-51.3l11.91-53.69a30.07,30.07,0,0,1,35.78-22.79l25.39,5.63a30.09,30.09,0,0,1,22.79,35.78l-11.91,53.7A43,43,0,0,1,1281.25,208.55Z"/><path class="cls-3" d="M1361.61,87.71l-8.66-.27-4-.13-3.29-.1a11.69,11.69,0,0,1-3.1-.51l-36-11a70.19,70.19,0,0,0-19.55-2.51l-7.75.33c-7.3.31-16.72,5.46-20.93,11.44l-1.56,2.21a59.93,59.93,0,0,0-7.92,17.94l-11,49.79a10,10,0,0,0,7.6,11.93l11.71,2.6a14.3,14.3,0,0,0,14.64-6.56l25.9-46.34a14.68,14.68,0,0,1,14.69-6.76l29.42,5.91a10.27,10.27,0,0,0,11.79-7.13l3.64-7.54,1.74-3.6,3.76-7.8A1.21,1.21,0,0,0,1361.61,87.71Z"/><rect class="cls-1" x="1264.11" y="202.36" width="33" height="27" transform="translate(800.26 1422.44) rotate(-77.86)"/><path class="cls-4" d="M1337,444H1211V290.13A63.14,63.14,0,0,1,1274.13,227h0A62.87,62.87,0,0,1,1337,289.87Z"/><path class="cls-5" d="M1412.18,389.2,1405,368.26a3.46,3.46,0,0,1,.11-2.51l29.24-61.88c1.22-2.78,5.81-4.79,7-2l6.86,11.09a10.07,10.07,0,0,1,0,8l-29.59,68.55A3.46,3.46,0,0,1,1412.18,389.2Z"/><path class="cls-6" d="M1414.54,377l-3.34-15.4a2.91,2.91,0,0,1,.22-1.85l22.43-45.49c.94-2,4-3.52,4.61-1.47l3.74,8.16a8.55,8.55,0,0,1-.48,5.85l-23,50.39C1417.69,379.35,1415,379.22,1414.54,377Z"/><path class="cls-1" d="M1425,372h0c-5.13,8.2-15.8,7.13-24,2l-144.3-82.38a17.52,17.52,0,0,1-5.55-24.14l4.07-6.51a17.51,17.51,0,0,1,24.14-5.55L1419,348C1427.2,353.13,1430.13,363.8,1425,372Z"/><path class="cls-7" d="M1275,240.87h0a28.79,28.79,0,0,1,28.79,28.79v50.21a0,0,0,0,1,0,0h-57.38a0,0,0,0,1,0,0V269.46A28.59,28.59,0,0,1,1275,240.87Z" transform="translate(360.97 1212.48) rotate(-57.96)"/><polygon class="cls-3" points="1324.39 784.87 1292.39 784.87 1312.39 625.87 1359.39 644.87 1324.39 784.87"/><polygon class="cls-3" points="1359.39 644.87 1322.39 649.87 1211.39 443.87 1337.39 443.87 1359.39 644.87"/><path class="cls-8" d="M1320.39,656.87l-35-36-74-177h126l-10,208C1327.39,654.91,1325.39,655.87,1320.39,656.87Z"/><path class="cls-8" d="M1111.79,707.5l-11.77-25,185.56-66.39,36.76,33.7a3.8,3.8,0,0,1-1.34,6.95Z"/><path d="M1085.52,683.7h40a0,0,0,0,1,0,0v71.59a19.41,19.41,0,0,1-19.41,19.41h0a20.59,20.59,0,0,1-20.59-20.59V683.7A0,0,0,0,1,1085.52,683.7Z" transform="translate(-184.62 430.12) rotate(-20.36)"/><path d="M1317.89,759.37h40a0,0,0,0,1,0,0V831a19.41,19.41,0,0,1-19.41,19.41h0a20.59,20.59,0,0,1-20.59-20.59V759.37a0,0,0,0,1,0,0Z" transform="translate(533.03 2142.76) rotate(-90)"/><rect class="cls-2" x="1000" width="500" height="900"/><path class="cls-1" d="M1782.25,209.55h0a43,43,0,0,1-32.66-51.3l11.91-53.69a30.07,30.07,0,0,1,35.78-22.79l25.39,5.63a30.09,30.09,0,0,1,22.79,35.78l-11.91,53.7A43,43,0,0,1,1782.25,209.55Z"/><path class="cls-3" d="M1862.61,88.71l-8.66-.27-4-.13-3.29-.1a11.69,11.69,0,0,1-3.1-.51l-36-11a70.19,70.19,0,0,0-19.55-2.51l-7.75.33c-7.3.31-16.72,5.46-20.93,11.44l-1.56,2.21a59.93,59.93,0,0,0-7.92,17.94l-11,49.79a10,10,0,0,0,7.6,11.93l11.71,2.6a14.3,14.3,0,0,0,14.64-6.56l25.9-46.34a14.68,14.68,0,0,1,14.69-6.76l29.42,5.91a10.27,10.27,0,0,0,11.79-7.13l3.64-7.54,1.74-3.6,3.76-7.8A1.21,1.21,0,0,0,1862.61,88.71Z"/><rect class="cls-1" x="1764.11" y="203.36" width="33" height="27" transform="translate(1194.14 1912.05) rotate(-77.86)"/><path class="cls-4" d="M1835.39,444.87h-126V291a63.13,63.13,0,0,1,63.14-63.13h0a62.86,62.86,0,0,1,62.86,62.86Z"/><path class="cls-5" d="M1914.18,394.2,1907,373.26a3.46,3.46,0,0,1,.11-2.51l29.24-61.88c1.22-2.78,5.81-2.79,7,0l6.86,9.09a10.07,10.07,0,0,1,0,8l-29.59,68.55A3.46,3.46,0,0,1,1914.18,394.2Z"/><path class="cls-6" d="M1916.54,384l-3.34-15.4a2.91,2.91,0,0,1,.22-1.85l22.43-45.49c.94-2,4-3.52,4.61-1.47l3.74,8.16a8.55,8.55,0,0,1-.48,5.85l-23,50.39C1919.69,386.35,1917,386.22,1916.54,384Z"/><path class="cls-1" d="M1926.39,378.87h0c-5.13,8.2-15.8,7.13-24,2L1758.1,298.48a17.52,17.52,0,0,1-5.56-24.14l4.08-6.5a17.52,17.52,0,0,1,24.14-5.56l139.63,92.59C1928.59,360,1931.53,370.67,1926.39,378.87Z"/><path class="cls-7" d="M1772,242.87h0a28.79,28.79,0,0,1,28.79,28.79v50.21a0,0,0,0,1,0,0h-57.38a0,0,0,0,1,0,0V271.46A28.59,28.59,0,0,1,1772,242.87Z" transform="translate(592.61 1634.71) rotate(-57.96)"/><polygon class="cls-3" points="1785.39 789.87 1755.39 785.87 1785.39 654.87 1839.39 645.87 1785.39 789.87"/><polygon class="cls-3" points="1839.39 645.87 1785.39 654.87 1709.39 444.87 1835.39 444.87 1839.39 645.87"/><path class="cls-8" d="M1818.39,657.87l-35-36-74-177h126l-10,208C1825.39,655.91,1823.39,656.87,1818.39,657.87Z"/><path class="cls-8" d="M1609.79,708.5l-11.77-25,185.56-66.39,36.76,33.7a3.8,3.8,0,0,1-1.34,6.95Z"/><path d="M1583.52,684.7h40a0,0,0,0,1,0,0v71.59a19.41,19.41,0,0,1-19.41,19.41h0a20.59,20.59,0,0,1-20.59-20.59V684.7a0,0,0,0,1,0,0Z" transform="translate(-153.86 603.42) rotate(-20.36)"/><path d="M1780.89,760.37h40a0,0,0,0,1,0,0V832a19.41,19.41,0,0,1-19.41,19.41h0a20.59,20.59,0,0,1-20.59-20.59V760.37A0,0,0,0,1,1780.89,760.37Z" transform="translate(995.03 2606.76) rotate(-90)"/><rect class="cls-2" x="1500" width="500" height="900"/><rect class="cls-1" x="2263.72" y="203.5" width="33" height="27" transform="translate(1588.55 2400.59) rotate(-77.86)"/><path class="cls-1" d="M2281,209.55h0a43,43,0,0,1-32.67-51.3l11.91-53.69A30.08,30.08,0,0,1,2296,81.77l25.38,5.63a30.08,30.08,0,0,1,22.79,35.78l-11.91,53.7A43,43,0,0,1,2281,209.55Z"/><path class="cls-3" d="M2361.33,88.71l-8.67-.27-4-.13-3.3-.1a11.69,11.69,0,0,1-3.1-.51l-36-11a70.14,70.14,0,0,0-19.55-2.51l-7.74.33c-7.31.31-16.73,5.46-20.94,11.44l-1.55,2.21a59.68,59.68,0,0,0-7.92,17.94l-11.05,49.79a10,10,0,0,0,7.6,11.93l11.71,2.6a14.32,14.32,0,0,0,14.65-6.56l25.9-46.34a14.66,14.66,0,0,1,14.68-6.76l29.42,5.91a10.27,10.27,0,0,0,11.79-7.13L2357,102l1.74-3.6,3.77-7.8A1.21,1.21,0,0,0,2361.33,88.71Z"/><polygon class="cls-3" points="2284.11 789.87 2254.11 785.87 2262.11 655.87 2308.11 655.87 2284.11 789.87"/><polygon class="cls-3" points="2308.11 655.87 2262.11 655.87 2208.11 444.87 2308.11 444.87 2308.11 655.87"/><path class="cls-8" d="M2324,645.2l-35.35-16.85-80.58-183.48h126L2330,641.47A4.14,4.14,0,0,1,2324,645.2Z"/><path class="cls-8" d="M2124.28,716.88l-14.23-23.63L2288,608.44l40,29.82a3.8,3.8,0,0,1-.64,7Z"/><path d="M2100.24,693.6h40a0,0,0,0,1,0,0V765.2a19.41,19.41,0,0,1-19.41,19.41h0A20.59,20.59,0,0,1,2100.24,764V693.6a0,0,0,0,1,0,0Z" transform="translate(-108.68 1010.44) rotate(-26.16)"/><path d="M2279.61,760.37h40a0,0,0,0,1,0,0V832a19.41,19.41,0,0,1-19.41,19.41h0a20.59,20.59,0,0,1-20.59-20.59V760.37A0,0,0,0,1,2279.61,760.37Z" transform="translate(1493.74 3105.47) rotate(-90)"/><path class="cls-4" d="M2334.11,444.87h-126V291a63.12,63.12,0,0,1,63.13-63.13h0a62.86,62.86,0,0,1,62.87,62.86Z"/><path class="cls-5" d="M2412.89,395.2l-7.14-20.94a3.46,3.46,0,0,1,.11-2.51l29.25-61.88c1.22-2.78,5.8-4.79,7-2L2449,319a10.07,10.07,0,0,1,0,8l-29.6,68.55A3.46,3.46,0,0,1,2412.89,395.2Z"/><path class="cls-6" d="M2415.25,383l-3.34-15.4a3,3,0,0,1,.22-1.85l22.43-45.49c1-2,4-3.52,4.61-1.47l3.74,8.16a8.49,8.49,0,0,1-.48,5.85l-23,50.39C2418.4,385.35,2415.73,385.22,2415.25,383Z"/><path class="cls-1" d="M2425.11,377.87h0c-5.13,8.2-15.8,7.13-24,2l-144.3-82.39a17.51,17.51,0,0,1-5.55-24.14l4.07-6.5a17.52,17.52,0,0,1,24.14-5.56l139.64,92.59C2427.31,359,2430.24,369.67,2425.11,377.87Z"/><path class="cls-7" d="M2270.7,241.87h0a28.79,28.79,0,0,1,28.79,28.79v50.21a0,0,0,0,1,0,0h-57.38a0,0,0,0,1,0,0V270.46A28.59,28.59,0,0,1,2270.7,241.87Z" transform="translate(827.59 2056.99) rotate(-57.96)"/><rect class="cls-2" x="2000" width="500" height="900"/><polygon class="cls-3" points="2782.24 789.87 2755.24 789.87 2708.24 444.87 2808.24 444.87 2782.24 789.87"/><path class="cls-1" d="M2781.1,209.55h0a43,43,0,0,1-32.67-51.3l11.92-53.69a30.07,30.07,0,0,1,35.78-22.79l25.38,5.63a30.07,30.07,0,0,1,22.79,35.78l-11.91,53.7A43,43,0,0,1,2781.1,209.55Z"/><path class="cls-3" d="M2861.46,88.71l-8.66-.27-4-.13-3.29-.1a11.62,11.62,0,0,1-3.1-.51l-36-11a70.19,70.19,0,0,0-19.55-2.51l-7.75.33c-7.3.31-16.73,5.46-20.94,11.44l-1.55,2.21a59.93,59.93,0,0,0-7.92,17.94l-11,49.79a10,10,0,0,0,7.59,11.93l11.72,2.6a14.3,14.3,0,0,0,14.64-6.56l25.9-46.34a14.68,14.68,0,0,1,14.69-6.76l29.42,5.91a10.28,10.28,0,0,0,11.79-7.13l3.64-7.54c.47-1,1.26-2.61,1.73-3.6l3.77-7.8A1.21,1.21,0,0,0,2861.46,88.71Z"/><rect class="cls-1" x="2762.96" y="203.36" width="33" height="27" transform="translate(1982.93 2888.56) rotate(-77.86)"/><path class="cls-4" d="M2834.24,444.87h-126V291a63.13,63.13,0,0,1,63.14-63.13h0a62.86,62.86,0,0,1,62.86,62.86Z"/><path class="cls-5" d="M2913,395.2l-7.14-20.94a3.46,3.46,0,0,1,.1-2.51l29.25-61.88c1.22-2.78,5.81-4.79,7-2l6.85,11.09a10,10,0,0,1,0,8l-29.6,68.55A3.46,3.46,0,0,1,2913,395.2Z"/><path class="cls-6" d="M2915.39,383l-3.35-15.4a3,3,0,0,1,.22-1.85l22.43-45.49c.95-2,4-3.52,4.61-1.47L2943,327a8.43,8.43,0,0,1-.48,5.85l-23,50.39C2918.54,385.35,2915.87,385.22,2915.39,383Z"/><path class="cls-1" d="M2925.24,377.87h0c-5.13,8.2-15.8,7.13-24,2L2757,297.48a17.52,17.52,0,0,1-5.56-24.14l4.07-6.5a17.52,17.52,0,0,1,24.14-5.56l139.64,92.59C2927.44,359,2930.37,369.67,2925.24,377.87Z"/><path class="cls-7" d="M2770.84,241.87h0a28.79,28.79,0,0,1,28.79,28.79v50.21a0,0,0,0,1,0,0h-57.38a0,0,0,0,1,0,0V270.46A28.59,28.59,0,0,1,2770.84,241.87Z" transform="translate(1062.39 2480.94) rotate(-57.96)"/><path class="cls-8" d="M2872.8,607.72l-38.56-6.85-126-156h126l43.27,157.68A4.14,4.14,0,0,1,2872.8,607.72Z"/><path class="cls-8" d="M2699.24,729.87l-20-19,149-129L2874.7,600a3.79,3.79,0,0,1,1.26,7Z"/><path d="M2681.24,706.87h40a0,0,0,0,1,0,0v71.59a19.41,19.41,0,0,1-19.41,19.41h0a20.59,20.59,0,0,1-20.59-20.59V706.87A0,0,0,0,1,2681.24,706.87Z" transform="translate(180.79 1981.23) rotate(-41.56)"/><path d="M2779.74,760.37h40a0,0,0,0,1,0,0V832a19.41,19.41,0,0,1-19.41,19.41h0a20.59,20.59,0,0,1-20.59-20.59V760.37a0,0,0,0,1,0,0Z" transform="translate(1993.88 3605.61) rotate(-90)"/><rect class="cls-2" x="2500" width="500" height="900"/><path class="cls-1" d="M3282,209.55h0a43,43,0,0,1-32.67-51.3l11.91-53.69a30.08,30.08,0,0,1,35.79-22.79l25.38,5.63a30.08,30.08,0,0,1,22.79,35.78l-11.91,53.7A43,43,0,0,1,3282,209.55Z"/><path class="cls-3" d="M3362.39,88.71l-8.66-.27-4-.13-3.3-.1a11.69,11.69,0,0,1-3.1-.51l-36-11a70.09,70.09,0,0,0-19.55-2.51l-7.74.33c-7.31.31-16.73,5.46-20.94,11.44l-1.55,2.21a59.68,59.68,0,0,0-7.92,17.94l-11.05,49.79a10,10,0,0,0,7.6,11.93l11.71,2.6a14.32,14.32,0,0,0,14.65-6.56l25.9-46.34a14.66,14.66,0,0,1,14.68-6.76l29.42,5.91a10.27,10.27,0,0,0,11.79-7.13L3358,102l1.74-3.6,3.77-7.8A1.21,1.21,0,0,0,3362.39,88.71Z"/><rect class="cls-1" x="3263.89" y="203.36" width="33" height="27" transform="translate(2378.51 3378.29) rotate(-77.86)"/><path class="cls-4" d="M3335.17,444.87h-126V291a63.12,63.12,0,0,1,63.13-63.13h0a62.86,62.86,0,0,1,62.87,62.86Z"/><polygon class="cls-3" points="3235.17 789.87 3205.17 785.87 3242 619 3289.17 645.87 3235.17 789.87"/><polygon class="cls-3" points="3289.17 645.87 3241 644 3209.17 444.87 3335.17 444.87 3289.17 645.87"/><path class="cls-5" d="M3414,396.2l-7.14-20.94a3.46,3.46,0,0,1,.11-2.51l29.25-61.88c1.22-2.78,5.81-4.79,7-2L3450,320a10.07,10.07,0,0,1,0,8l-29.6,68.55A3.46,3.46,0,0,1,3414,396.2Z"/><path class="cls-6" d="M3416.31,384l-3.34-15.4a3,3,0,0,1,.22-1.85l22.43-45.49c1-2,4-3.52,4.61-1.47L3444,328a8.49,8.49,0,0,1-.48,5.85l-23,50.39C3419.46,386.35,3416.79,386.22,3416.31,384Z"/><path class="cls-1" d="M3426.17,378.87h0c-5.13,8.2-15.8,7.13-24,2l-144.3-82.39a17.52,17.52,0,0,1-5.55-24.14l4.07-6.5a17.52,17.52,0,0,1,24.14-5.56l139.64,92.59C3428.37,360,3431.3,370.67,3426.17,378.87Z"/><path class="cls-7" d="M3271.76,242.87h0a28.79,28.79,0,0,1,28.79,28.79v50.21a0,0,0,0,1,0,0h-57.38a0,0,0,0,1,0,0V271.46A28.59,28.59,0,0,1,3271.76,242.87Z" transform="translate(1296.72 2906.03) rotate(-57.96)"/><path class="cls-8" d="M3404.17,594.87l-43,2-152-152h126l74,143C3410,590.8,3407.16,595.4,3404.17,594.87Z"/><path class="cls-8" d="M3273.54,761.39,3249,748.87,3355,582.76l49.7,4.15a3.79,3.79,0,0,1,3.19,6.31Z"/><path d="M3268.17,719.87h40a0,0,0,0,1,0,0v71.59a19.41,19.41,0,0,1-19.41,19.41h0a20.59,20.59,0,0,1-20.59-20.59V719.87A0,0,0,0,1,3268.17,719.87Z" transform="translate(894.95 3146.62) rotate(-57.96)"/><path d="M3230.67,760.37h40a0,0,0,0,1,0,0V832a19.41,19.41,0,0,1-19.41,19.41h0a20.59,20.59,0,0,1-20.59-20.59V760.37a0,0,0,0,1,0,0Z" transform="translate(2444.8 4056.53) rotate(-90)"/><rect class="cls-2" x="3000" width="500" height="900"/><path class="cls-1" d="M3781.53,209.55h0a43,43,0,0,1-32.67-51.3l11.91-53.69a30.08,30.08,0,0,1,35.79-22.79l25.38,5.63a30.08,30.08,0,0,1,22.79,35.78l-11.91,53.7A43,43,0,0,1,3781.53,209.55Z"/><path class="cls-3" d="M3861.89,88.71l-8.66-.27-4-.13-3.3-.1a11.69,11.69,0,0,1-3.1-.51l-36-11a70.09,70.09,0,0,0-19.55-2.51l-7.74.33c-7.31.31-16.73,5.46-20.94,11.44l-1.55,2.21a59.68,59.68,0,0,0-7.92,17.94l-11.05,49.79a10,10,0,0,0,7.6,11.93l11.71,2.6a14.32,14.32,0,0,0,14.65-6.56L3798,117.5a14.66,14.66,0,0,1,14.68-6.76l29.42,5.91a10.27,10.27,0,0,0,11.79-7.13l3.64-7.54,1.74-3.6,3.77-7.8A1.21,1.21,0,0,0,3861.89,88.71Z"/><rect class="cls-1" x="3763.39" y="203.36" width="33" height="27" transform="translate(2772.97 3866.62) rotate(-77.86)"/><path class="cls-4" d="M3834.67,444.87h-126V291a63.12,63.12,0,0,1,63.13-63.13h0a62.86,62.86,0,0,1,62.87,62.86Z"/><polygon class="cls-3" points="3719.67 789.87 3689.67 785.87 3728 617 3773.67 645.87 3719.67 789.87"/><polygon class="cls-3" points="3773.67 645.87 3725 646 3708.67 444.87 3834.67 444.87 3773.67 645.87"/><path d="M3715.17,760.37h40a0,0,0,0,1,0,0V832a19.41,19.41,0,0,1-19.41,19.41h0a20.59,20.59,0,0,1-20.59-20.59V760.37A0,0,0,0,1,3715.17,760.37Z" transform="translate(2929.3 4541.03) rotate(-90)"/><path class="cls-5" d="M3913.45,396.2l-7.14-20.94a3.46,3.46,0,0,1,.11-2.51l29.25-61.88c1.22-2.78,5.81-4.79,7-2l6.85,11.09a10.07,10.07,0,0,1,0,8l-29.6,68.55A3.46,3.46,0,0,1,3913.45,396.2Z"/><path class="cls-6" d="M3915.81,384l-3.34-15.4a3,3,0,0,1,.22-1.85l22.43-45.49c1-2,4-3.52,4.61-1.47l3.74,8.16a8.49,8.49,0,0,1-.48,5.85l-23,50.39C3919,386.35,3916.29,386.22,3915.81,384Z"/><path class="cls-1" d="M3925.67,378.87h0c-5.13,8.2-15.8,7.13-24,2l-144.3-82.39a17.52,17.52,0,0,1-5.55-24.14l4.07-6.5a17.52,17.52,0,0,1,24.14-5.56l139.64,92.59C3927.87,360,3930.8,370.67,3925.67,378.87Z"/><path class="cls-7" d="M3771.26,242.87h0A28.79,28.79,0,0,1,3800,271.65v50.21a0,0,0,0,1,0,0h-57.38a0,0,0,0,1,0,0V271.46A28.59,28.59,0,0,1,3771.26,242.87Z" transform="translate(1531.23 3329.44) rotate(-57.96)"/><path class="cls-8" d="M3903.67,594.87l-25,5-170-155h126l88,127C3923.47,574.8,3916.67,586.87,3903.67,594.87Z"/><path class="cls-8" d="M3869.64,783.27l-27.55-1.3,30.58-206.1,44.81-5.59a3.8,3.8,0,0,1,5.51,4.45Z"/><path d="M3862.43,748.56h40a0,0,0,0,1,0,0v71.59A19.41,19.41,0,0,1,3883,839.56h0A20.59,20.59,0,0,1,3862.43,819V748.56a0,0,0,0,1,0,0Z" transform="translate(1978.58 4269.57) rotate(-72.85)"/><rect class="cls-2" x="3500" width="500" height="900"/><path class="cls-1" d="M4281.09,212.05h0a43,43,0,0,1-32.66-51.29l11.91-53.7a30.09,30.09,0,0,1,35.78-22.79l25.39,5.63a30.1,30.1,0,0,1,22.79,35.79l-11.91,53.69A43,43,0,0,1,4281.09,212.05Z"/><path class="cls-3" d="M4361.45,91.22l-8.66-.28-4-.12-3.29-.1a12,12,0,0,1-3.1-.52l-36-11a69.82,69.82,0,0,0-19.55-2.51l-7.75.33c-7.3.31-16.72,5.45-20.93,11.43l-1.56,2.21a60,60,0,0,0-7.92,18l-11,49.79a10,10,0,0,0,7.6,11.92l11.71,2.6a14.3,14.3,0,0,0,14.64-6.56l25.9-46.33a14.67,14.67,0,0,1,14.69-6.76l29.42,5.91a10.27,10.27,0,0,0,11.79-7.13l3.64-7.54,1.74-3.61,3.76-7.8A1.2,1.2,0,0,0,4361.45,91.22Z"/><rect class="cls-1" x="4263.95" y="205.87" width="33" height="27" transform="translate(3165.82 4357.97) rotate(-77.86)"/><path class="cls-4" d="M4334.23,447.37h-126V293.5a63.14,63.14,0,0,1,63.14-63.13h0a62.86,62.86,0,0,1,62.86,62.87Z"/><path class="cls-5" d="M4413,398.71l-7.14-20.94a3.45,3.45,0,0,1,.11-2.51l29.24-61.89c1.22-2.77,5.81-4.78,7-2l6.86,11.1a10.07,10.07,0,0,1,0,7.95L4419.48,399A3.47,3.47,0,0,1,4413,398.71Z"/><path class="cls-6" d="M4415.38,386.52,4412,371.13a2.89,2.89,0,0,1,.22-1.85l22.43-45.49c.94-2,4-3.52,4.61-1.47l3.74,8.16a8.52,8.52,0,0,1-.48,5.84l-23.05,50.39C4418.53,388.85,4415.86,388.73,4415.38,386.52Z"/><path class="cls-1" d="M4425.23,381.37h0c-5.13,8.2-15.8,7.13-24,2L4256.94,301a17.52,17.52,0,0,1-5.56-24.14l4.08-6.51a17.52,17.52,0,0,1,24.14-5.55l139.63,92.58C4427.43,362.5,4430.37,373.17,4425.23,381.37Z"/><path class="cls-7" d="M4270.83,245.37h0a28.79,28.79,0,0,1,28.79,28.79v50.21a0,0,0,0,1,0,0h-57.38a0,0,0,0,1,0,0V274a28.59,28.59,0,0,1,28.59-28.59Z" transform="translate(1763.64 3754.09) rotate(-57.96)"/><path class="cls-8" d="M4396.76,784.61l-27.5,2.06,4-191L4417.85,574a3.78,3.78,0,0,1,6,3.61Z"/><path d="M4396.35,755.21h38.77a0,0,0,0,1,0,0v72.34a18.81,18.81,0,0,1-18.81,18.81h0a20,20,0,0,1-20-20V755.21a0,0,0,0,1,0,0Z" transform="translate(3879.88 5256.44) rotate(-93.42)"/><polygon class="cls-3" points="4204.23 792.37 4174.23 788.37 4212 618 4255.23 645.37 4204.23 792.37"/><polygon class="cls-3" points="4255.23 645.37 4208 643 4208.23 447.37 4334.23 447.37 4255.23 645.37"/><path d="M4197.73,751.87h40a0,0,0,0,1,0,0v71.59a19.41,19.41,0,0,1-19.41,19.41h0a20.59,20.59,0,0,1-20.59-20.59V751.87a0,0,0,0,1,0,0Z" transform="translate(2432.96 4701.17) rotate(-76.14)"/><path class="cls-8" d="M4403.23,597.37l-25,5-170-155h126l88,127C4423,577.3,4416.23,589.37,4403.23,597.37Z"/><rect class="cls-2" x="4000" width="500" height="900"/><rect class="cls-2" x="4500" width="500" height="900"/><path class="cls-3" d="M4861.22,87.84l-8.66-.27-4-.12-3.29-.11a11.69,11.69,0,0,1-3.11-.51l-35.95-11a69.47,69.47,0,0,0-19.56-2.51l-7.74.33c-7.31.3-16.73,5.45-20.94,11.43l-1.55,2.21a59.73,59.73,0,0,0-7.92,18L4737.45,155a10,10,0,0,0,7.6,11.93l11.72,2.6a14.3,14.3,0,0,0,14.64-6.56l25.9-46.33a14.63,14.63,0,0,1,14.68-6.76l29.43,5.91a10.27,10.27,0,0,0,11.78-7.13l3.64-7.55,1.74-3.6,3.77-7.8A1.21,1.21,0,0,0,4861.22,87.84Z"/><rect class="cls-1" x="4763.72" y="202.5" width="33" height="27" transform="translate(3563.78 4843.89) rotate(-77.86)"/><path class="cls-3" d="M4744,644l-43-15,7-185h126l-77,197C4755,644,4749,643,4744,644Z"/><path class="cls-4" d="M4834,444H4708V290.13A63.14,63.14,0,0,1,4771.13,227h0A62.87,62.87,0,0,1,4834,289.87Z"/><path class="cls-5" d="M4912.79,395.34l-7.15-20.94a3.48,3.48,0,0,1,.11-2.52L4935,310c1.22-2.77,5.81-4.78,7-2l6.85,11.1a10.07,10.07,0,0,1,0,7.95l-29.6,68.54A3.46,3.46,0,0,1,4912.79,395.34Z"/><path class="cls-6" d="M4915.14,383.15l-3.34-15.39a3,3,0,0,1,.22-1.85l22.43-45.5c.95-2,4-3.51,4.61-1.46l3.74,8.16a8.41,8.41,0,0,1-.48,5.84l-23,50.39C4918.29,385.48,4915.62,385.36,4915.14,383.15Z"/><path class="cls-1" d="M4925,378h0c-5.13,8.2-15.8,7.13-24,2l-144.3-82.38a17.52,17.52,0,0,1-5.55-24.14l4.07-6.51a17.51,17.51,0,0,1,24.14-5.55L4919,354C4927.2,359.13,4930.13,369.8,4925,378Z"/><path class="cls-7" d="M4819.4,278.14,4789,327.78,4746.23,301a28.58,28.58,0,0,1-9.07-39.4h0c8.43-13.48,26.19-17.57,39.67-10.13Z"/><polygon class="cls-8" points="4838 786 4806 788 4809 626 4856 645 4838 786"/><polygon class="cls-8" points="4856 645 4819 669 4708 444 4834 444 4856 645"/><path class="cls-3" d="M4576.22,761.58l-19.59-19.43,151.74-125.77,46.06,19.13a3.8,3.8,0,0,1,1.11,7Z"/><path d="M4563.13,731.83h40a0,0,0,0,1,0,0v71.59a19.41,19.41,0,0,1-19.41,19.41h0a20.59,20.59,0,0,1-20.59-20.59V731.83A0,0,0,0,1,4563.13,731.83Z" transform="translate(482.59 2967.05) rotate(-37.73)"/><path d="M4832.5,758.5h40a0,0,0,0,1,0,0v71.59a19.41,19.41,0,0,1-19.41,19.41h0a20.59,20.59,0,0,1-20.59-20.59V758.5A0,0,0,0,1,4832.5,758.5Z" transform="translate(4430.17 5704.49) rotate(-94.48)"/><path class="cls-1" d="M5282.36,205.8h0a43,43,0,0,1-32.67-51.29l11.91-53.7A30.1,30.1,0,0,1,5297.39,78l25.38,5.63a30.08,30.08,0,0,1,22.79,35.79l-11.91,53.69A43,43,0,0,1,5282.36,205.8Z"/><path class="cls-3" d="M5362.72,85l-8.66-.27-4-.12-3.29-.11a11.69,11.69,0,0,1-3.11-.51l-35.95-11a69.83,69.83,0,0,0-19.56-2.5l-7.74.32c-7.31.31-16.73,5.46-20.94,11.44l-1.55,2.21a59.73,59.73,0,0,0-7.92,18L5239,152.12a10,10,0,0,0,7.6,11.93l11.72,2.6a14.3,14.3,0,0,0,14.64-6.56l25.9-46.34a14.64,14.64,0,0,1,14.68-6.75l29.43,5.91a10.27,10.27,0,0,0,11.78-7.13l3.64-7.55,1.74-3.6,3.77-7.8A1.21,1.21,0,0,0,5362.72,85Z"/><rect class="cls-1" x="5264.22" y="199.62" width="33" height="27" transform="translate(3961.84 5330.92) rotate(-77.86)"/><path class="cls-3" d="M5260.44,647.12l-42-21-10-185h126l-63,203C5269.44,647.12,5265.44,646.12,5260.44,647.12Z"/><path class="cls-4" d="M5334.44,441.12h-126V287.25a63.13,63.13,0,0,1,63.13-63.13h0A62.87,62.87,0,0,1,5334.44,287Z"/><path class="cls-5" d="M5413.22,392.45l-7.14-20.93a3.48,3.48,0,0,1,.11-2.52l29.25-61.88c1.22-2.77,5.8-4.78,7-2l6.85,11.1a10.12,10.12,0,0,1,0,7.95l-29.6,68.54A3.46,3.46,0,0,1,5413.22,392.45Z"/><path class="cls-6" d="M5415.58,380.27l-3.34-15.4a2.87,2.87,0,0,1,.22-1.84l22.43-45.5c.95-2,4-3.51,4.61-1.47l3.74,8.17a8.52,8.52,0,0,1-.48,5.84l-23.05,50.39C5418.73,382.6,5416.06,382.48,5415.58,380.27Z"/><path class="cls-1" d="M5425.44,375.12h0c-5.14,8.2-15.8,7.13-24,2l-144.3-82.38a17.51,17.51,0,0,1-5.55-24.14l4.07-6.51a17.51,17.51,0,0,1,24.14-5.55l139.64,92.58C5427.64,356.25,5430.57,366.92,5425.44,375.12Z"/><path class="cls-7" d="M5271,239.12h0a28.79,28.79,0,0,1,28.79,28.79v50.21a0,0,0,0,1,0,0h-57.38a0,0,0,0,1,0,0V267.71A28.59,28.59,0,0,1,5271,239.12Z" transform="translate(2238.51 4599) rotate(-57.96)"/><polygon class="cls-8" points="5321.44 784.12 5288.44 786.12 5309.44 623.12 5356.44 642.12 5321.44 784.12"/><polygon class="cls-8" points="5356.44 642.12 5312.44 648.12 5208.44 441.12 5334.44 441.12 5356.44 642.12"/><path class="cls-3" d="M5090.66,764.7l-19.59-19.43L5222.81,619.5l46,19.13a3.8,3.8,0,0,1,1.12,7Z"/><path d="M5087.56,726.95h40a0,0,0,0,1,0,0v71.59a19.41,19.41,0,0,1-19.41,19.41h0a20.59,20.59,0,0,1-20.59-20.59V726.95a0,0,0,0,1,0,0Z" transform="matrix(0.79, -0.61, 0.61, 0.79, 595.23, 3286.94)"/><path d="M5314.94,756.62h40a0,0,0,0,1,0,0v71.59a19.41,19.41,0,0,1-19.41,19.41h0A20.59,20.59,0,0,1,5314.94,827V756.62a0,0,0,0,1,0,0Z" transform="translate(4952.18 6183.42) rotate(-94.48)"/><rect class="cls-2" x="5000" width="500" height="900"/><path class="cls-1" d="M5782.25,209.55h0a43,43,0,0,1-32.66-51.3l11.91-53.69a30.07,30.07,0,0,1,35.78-22.79l25.39,5.63a30.09,30.09,0,0,1,22.79,35.78l-11.91,53.7A43,43,0,0,1,5782.25,209.55Z"/><path class="cls-3" d="M5862.61,88.71l-8.66-.27-4-.13-3.29-.1a11.69,11.69,0,0,1-3.1-.51l-36-11a70.19,70.19,0,0,0-19.55-2.51l-7.75.33c-7.3.31-16.72,5.46-20.93,11.44l-1.56,2.21a59.93,59.93,0,0,0-7.92,17.94l-11,49.79a10,10,0,0,0,7.6,11.93l11.71,2.6a14.3,14.3,0,0,0,14.64-6.56l25.9-46.34a14.68,14.68,0,0,1,14.69-6.76l29.42,5.91a10.27,10.27,0,0,0,11.79-7.13l3.64-7.54,1.74-3.6,3.76-7.8A1.21,1.21,0,0,0,5862.61,88.71Z"/><rect class="cls-1" x="5764.11" y="203.36" width="33" height="27" transform="translate(4352.94 5822.6) rotate(-77.86)"/><path class="cls-3" d="M5610.79,708.5l-11.77-25,185.56-66.39,36.76,33.7a3.8,3.8,0,0,1-1.34,6.95Z"/><path class="cls-3" d="M5819.39,657.87l-35-36-74-177h126l-10,208C5826.39,655.91,5824.39,656.87,5819.39,657.87Z"/><path class="cls-4" d="M5836,445H5710V291.13A63.14,63.14,0,0,1,5773.13,228h0A62.87,62.87,0,0,1,5836,290.87Z"/><path class="cls-5" d="M5909.18,393.2,5902,372.26a3.46,3.46,0,0,1,.11-2.51l29.24-61.88c1.22-2.78,5.81-4.79,7-2l6.86,11.09a10.07,10.07,0,0,1,0,8l-29.59,68.55A3.46,3.46,0,0,1,5909.18,393.2Z"/><path class="cls-6" d="M5911.54,381l-3.34-15.4a2.91,2.91,0,0,1,.22-1.85l22.43-45.49c.94-2,4-3.52,4.61-1.47l3.74,8.16a8.55,8.55,0,0,1-.48,5.85l-23.05,50.39C5914.69,383.35,5912,383.22,5911.54,381Z"/><path class="cls-1" d="M5922,375h0c-5.13,8.2-15.8,7.13-24,2l-144.3-82.38a17.52,17.52,0,0,1-5.55-24.14l4.07-6.51a17.51,17.51,0,0,1,24.14-5.55L5916,351C5924.2,356.13,5927.13,366.8,5922,375Z"/><path class="cls-7" d="M5772,243.87h0a28.79,28.79,0,0,1,28.79,28.79v50.21a0,0,0,0,1,0,0h-57.38a0,0,0,0,1,0,0V272.46A28.59,28.59,0,0,1,5772,243.87Z" transform="translate(2469.68 5025.88) rotate(-57.96)"/><polygon class="cls-8" points="5823.4 785.87 5791.4 785.87 5811.4 626.87 5858.4 645.87 5823.4 785.87"/><polygon class="cls-8" points="5858.4 645.87 5821.4 650.87 5710.4 444.87 5836.4 444.87 5858.4 645.87"/><path d="M5584.52,684.7h40a0,0,0,0,1,0,0v71.59a19.41,19.41,0,0,1-19.41,19.41h0a20.59,20.59,0,0,1-20.59-20.59V684.7A0,0,0,0,1,5584.52,684.7Z" transform="translate(96.03 1995.24) rotate(-20.36)"/><path d="M5816.89,760.37h40a0,0,0,0,1,0,0V832a19.41,19.41,0,0,1-19.41,19.41h0a20.59,20.59,0,0,1-20.59-20.59V760.37A0,0,0,0,1,5816.89,760.37Z" transform="translate(5031.03 6642.76) rotate(-90)"/><rect class="cls-2" x="5500" width="500" height="900"/><path class="cls-1" d="M6282.25,209.55h0a43,43,0,0,1-32.66-51.3l11.91-53.69a30.07,30.07,0,0,1,35.78-22.79l25.39,5.63a30.09,30.09,0,0,1,22.79,35.78l-11.91,53.7A43,43,0,0,1,6282.25,209.55Z"/><path class="cls-3" d="M6362.61,88.71l-8.66-.27-4-.13-3.29-.1a11.69,11.69,0,0,1-3.1-.51l-36-11a70.19,70.19,0,0,0-19.55-2.51l-7.75.33c-7.3.31-16.72,5.46-20.93,11.44l-1.56,2.21a59.93,59.93,0,0,0-7.92,17.94l-11,49.79a10,10,0,0,0,7.6,11.93l11.71,2.6a14.3,14.3,0,0,0,14.64-6.56l25.9-46.34a14.68,14.68,0,0,1,14.69-6.76l29.42,5.91a10.27,10.27,0,0,0,11.79-7.13l3.64-7.54,1.74-3.6,3.76-7.8A1.21,1.21,0,0,0,6362.61,88.71Z"/><rect class="cls-1" x="6264.11" y="203.36" width="33" height="27" transform="translate(4747.79 6311.42) rotate(-77.86)"/><path class="cls-3" d="M6308.39,657.87l-25-36-74-177h116l-10,208C6315.39,655.91,6313.39,656.87,6308.39,657.87Z"/><path class="cls-3" d="M6109.79,708.5l-11.77-25,185.56-66.39,36.76,33.7a3.8,3.8,0,0,1-1.34,6.95Z"/><path class="cls-4" d="M6335.39,444.87h-126V291a63.13,63.13,0,0,1,63.14-63.13h0a62.86,62.86,0,0,1,62.86,62.86Z"/><path class="cls-5" d="M6414.18,396.2,6407,375.26a3.46,3.46,0,0,1,.11-2.51l29.24-61.88c1.22-2.78,5.81-4.79,7-2l6.86,11.09a10.07,10.07,0,0,1,0,8l-29.59,68.55A3.46,3.46,0,0,1,6414.18,396.2Z"/><path class="cls-6" d="M6416.54,384l-3.34-15.4a2.91,2.91,0,0,1,.22-1.85l22.43-45.49c.94-2,4-3.52,4.61-1.47l3.74,8.16a8.55,8.55,0,0,1-.48,5.85l-23.05,50.39C6419.69,386.35,6417,386.22,6416.54,384Z"/><path class="cls-1" d="M6426.39,378.87h0c-5.13,8.2-15.8,7.13-24,2L6258.1,298.48a17.52,17.52,0,0,1-5.56-24.14l4.08-6.5a17.52,17.52,0,0,1,24.14-5.56l139.63,92.59C6428.59,360,6431.53,370.67,6426.39,378.87Z"/><path class="cls-7" d="M6272,242.87h0a28.79,28.79,0,0,1,28.79,28.79v50.21a0,0,0,0,1,0,0h-57.38a0,0,0,0,1,0,0V271.46A28.59,28.59,0,0,1,6272,242.87Z" transform="translate(2705.27 5449.24) rotate(-57.96)"/><polygon class="cls-8" points="6285.4 789.87 6255.4 785.87 6290 635 6339.4 645.87 6285.4 789.87"/><polygon class="cls-8" points="6339.4 645.87 6290 668 6209.4 444.87 6335.4 444.87 6339.4 645.87"/><path d="M6083.52,684.7h40a0,0,0,0,1,0,0v71.59a19.41,19.41,0,0,1-19.41,19.41h0a20.59,20.59,0,0,1-20.59-20.59V684.7A0,0,0,0,1,6083.52,684.7Z" transform="translate(127.19 2168.83) rotate(-20.36)"/><path d="M6280.89,760.37h40a0,0,0,0,1,0,0V832a19.41,19.41,0,0,1-19.41,19.41h0a20.59,20.59,0,0,1-20.59-20.59V760.37A0,0,0,0,1,6280.89,760.37Z" transform="translate(5495.03 7106.76) rotate(-90)"/><rect class="cls-2" x="6000" width="500" height="900"/><rect class="cls-1" x="6763.72" y="203.5" width="33" height="27" transform="translate(5142.2 6799.96) rotate(-77.86)"/><path class="cls-1" d="M6781,209.55h0a43,43,0,0,1-32.67-51.3l11.91-53.69A30.08,30.08,0,0,1,6796,81.77l25.38,5.63a30.08,30.08,0,0,1,22.79,35.78l-11.91,53.7A43,43,0,0,1,6781,209.55Z"/><path class="cls-3" d="M6861.33,88.71l-8.67-.27-4-.13-3.3-.1a11.69,11.69,0,0,1-3.1-.51l-36-11a70.14,70.14,0,0,0-19.55-2.51l-7.74.33c-7.31.31-16.73,5.46-20.94,11.44l-1.55,2.21a59.68,59.68,0,0,0-7.92,17.94l-11,49.79a10,10,0,0,0,7.6,11.93l11.71,2.6a14.32,14.32,0,0,0,14.65-6.56l25.9-46.34a14.66,14.66,0,0,1,14.68-6.76l29.42,5.91a10.27,10.27,0,0,0,11.79-7.13L6857,102l1.74-3.6,3.77-7.8A1.21,1.21,0,0,0,6861.33,88.71Z"/><path class="cls-3" d="M6824,645.2l-35.35-16.85-80.58-183.48h126L6830,641.47A4.14,4.14,0,0,1,6824,645.2Z"/><path class="cls-3" d="M6624.28,716.88l-14.23-23.63L6788,608.44l40,29.82a3.8,3.8,0,0,1-.64,7Z"/><polygon class="cls-8" points="6784.11 789.87 6754.11 785.87 6764 629 6808.11 655.87 6784.11 789.87"/><polygon class="cls-8" points="6808.11 655.87 6766 671 6708.11 444.87 6834 445 6808.11 655.87"/><path d="M6600.24,693.6h40a0,0,0,0,1,0,0V765.2a19.41,19.41,0,0,1-19.41,19.41h0A20.59,20.59,0,0,1,6600.24,764V693.6A0,0,0,0,1,6600.24,693.6Z" transform="translate(352.24 2994.34) rotate(-26.16)"/><path d="M6779.61,760.37h40a0,0,0,0,1,0,0V832a19.41,19.41,0,0,1-19.41,19.41h0a20.59,20.59,0,0,1-20.59-20.59V760.37A0,0,0,0,1,6779.61,760.37Z" transform="translate(5993.74 7605.47) rotate(-90)"/><path class="cls-4" d="M6834.11,444.87h-126V291a63.12,63.12,0,0,1,63.13-63.13h0a62.86,62.86,0,0,1,62.87,62.86Z"/><path class="cls-5" d="M6912.89,398.2l-7.14-20.94a3.46,3.46,0,0,1,.11-2.51l29.25-61.88c1.22-2.78,5.8-4.79,7-2L6949,322a10.07,10.07,0,0,1,0,8l-29.6,68.55A3.46,3.46,0,0,1,6912.89,398.2Z"/><path class="cls-6" d="M6915.25,384l-3.34-15.4c-.13-.6-.05-1.26.22.15l22.43-45.49c.95-4,4-5.52,4.61-3.47l3.74,8.16a8.49,8.49,0,0,1-.48,5.85l-23.05,50.39C6918.4,386.35,6915.73,386.22,6915.25,384Z"/><path class="cls-1" d="M6925.11,378.87h0c-5.13,8.2-15.8,7.13-24,2l-144.3-82.39a17.51,17.51,0,0,1-5.55-24.14l4.07-6.5a17.52,17.52,0,0,1,24.14-5.56l139.64,92.59C6927.31,360,6930.24,370.67,6925.11,378.87Z"/><path class="cls-7" d="M6770.7,242.87h0a28.79,28.79,0,0,1,28.79,28.79v50.21a0,0,0,0,1,0,0h-57.38a0,0,0,0,1,0,0V271.46A28.59,28.59,0,0,1,6770.7,242.87Z" transform="translate(2939.4 5871.99) rotate(-57.96)"/><rect class="cls-2" x="6500" width="500" height="900"/><path class="cls-1" d="M7281.1,209.55h0a43,43,0,0,1-32.67-51.3l11.92-53.69a30.07,30.07,0,0,1,35.78-22.79l25.38,5.63a30.07,30.07,0,0,1,22.79,35.78l-11.91,53.7A43,43,0,0,1,7281.1,209.55Z"/><path class="cls-3" d="M7361.46,88.71l-8.66-.27-4-.13-3.29-.1a11.62,11.62,0,0,1-3.1-.51l-36-11a70.19,70.19,0,0,0-19.55-2.51l-7.75.33c-7.3.31-16.73,5.46-20.94,11.44l-1.55,2.21a59.93,59.93,0,0,0-7.92,17.94l-11,49.79a10,10,0,0,0,7.59,11.93l11.72,2.6a14.3,14.3,0,0,0,14.64-6.56l25.9-46.34a14.68,14.68,0,0,1,14.69-6.76l29.42,5.91a10.28,10.28,0,0,0,11.79-7.13l3.64-7.54c.47-1,1.26-2.61,1.73-3.6l3.77-7.8A1.21,1.21,0,0,0,7361.46,88.71Z"/><rect class="cls-1" x="7262.96" y="203.36" width="33" height="27" transform="translate(5536.58 7287.93) rotate(-77.86)"/><path class="cls-3" d="M7372.8,607.72l-38.56-6.85-126-156h126l43.27,157.68A4.14,4.14,0,0,1,7372.8,607.72Z"/><path class="cls-3" d="M7199.24,729.87l-20-19,149-129L7374.7,600a3.79,3.79,0,0,1,1.26,7Z"/><polygon class="cls-8" points="7282.24 789.87 7255.24 789.87 7208.24 444.87 7334 445 7282.24 789.87"/><path class="cls-4" d="M7334.24,444.87h-126V291a63.13,63.13,0,0,1,63.14-63.13h0a62.86,62.86,0,0,1,62.86,62.86Z"/><path class="cls-5" d="M7413,396.2l-7.14-20.94a3.46,3.46,0,0,1,.1-2.51l29.25-61.88c1.22-2.78,5.81-4.79,7-2l6.85,11.09a10,10,0,0,1,0,8l-29.6,68.55A3.46,3.46,0,0,1,7413,396.2Z"/><path class="cls-6" d="M7415.39,384l-3.35-15.4a3,3,0,0,1,.22-1.85l22.43-45.49c1-2,4-3.52,4.61-1.47L7443,328a8.43,8.43,0,0,1-.48,5.85l-23.05,50.39C7418.54,386.35,7415.87,386.22,7415.39,384Z"/><path class="cls-1" d="M7425.24,378.87h0c-5.13,8.2-15.8,7.13-24,2L7257,298.48a17.52,17.52,0,0,1-5.56-24.14l4.07-6.5a17.52,17.52,0,0,1,24.14-5.56l139.64,92.59C7427.44,360,7430.37,370.67,7425.24,378.87Z"/><path class="cls-7" d="M7270.84,242.87h0a28.79,28.79,0,0,1,28.79,28.79v50.21a0,0,0,0,1,0,0h-57.38a0,0,0,0,1,0,0V271.46a28.59,28.59,0,0,1,28.59-28.59Z" transform="translate(3174.21 6295.94) rotate(-57.96)"/><path d="M7181.24,706.87h40a0,0,0,0,1,0,0v71.59a19.41,19.41,0,0,1-19.41,19.41h0a20.59,20.59,0,0,1-20.59-20.59V706.87A0,0,0,0,1,7181.24,706.87Z" transform="translate(1313.4 4966.3) rotate(-41.56)"/><path d="M7280.74,760.37h40a0,0,0,0,1,0,0V832a19.41,19.41,0,0,1-19.41,19.41h0a20.59,20.59,0,0,1-20.59-20.59V760.37A0,0,0,0,1,7280.74,760.37Z" transform="translate(6494.88 8106.61) rotate(-90)"/><rect class="cls-2" x="7000" width="500" height="900"/><path class="cls-1" d="M7781,209.55h0a43,43,0,0,1-32.67-51.3l11.91-53.69a30.08,30.08,0,0,1,35.79-22.79l25.38,5.63a30.08,30.08,0,0,1,22.79,35.78l-11.91,53.7A43,43,0,0,1,7781,209.55Z"/><path class="cls-3" d="M7861.39,88.71l-8.66-.27-4-.13-3.3-.1a11.69,11.69,0,0,1-3.1-.51l-36-11a70.09,70.09,0,0,0-19.55-2.51l-7.74.33c-7.31.31-16.73,5.46-20.94,11.44l-1.55,2.21a59.68,59.68,0,0,0-7.92,17.94l-11.05,49.79a10,10,0,0,0,7.6,11.93l11.71,2.6a14.32,14.32,0,0,0,14.65-6.56l25.9-46.34a14.66,14.66,0,0,1,14.68-6.76l29.42,5.91a10.27,10.27,0,0,0,11.79-7.13L7857,102l1.74-3.6,3.77-7.8A1.21,1.21,0,0,0,7861.39,88.71Z"/><rect class="cls-1" x="7762.89" y="203.36" width="33" height="27" transform="translate(5931.38 7776.68) rotate(-77.86)"/><path class="cls-3" d="M7903.17,594.87l-43,2-152-152h126l74,143C7909,590.8,7906.16,595.4,7903.17,594.87Z"/><path class="cls-3" d="M7772.54,761.39,7748,748.87,7854,582.76l49.7,4.15a3.79,3.79,0,0,1,3.19,6.31Z"/><path d="M7767.17,719.87h40a0,0,0,0,1,0,0v71.59a19.41,19.41,0,0,1-19.41,19.41h0a20.59,20.59,0,0,1-20.59-20.59V719.87A0,0,0,0,1,7767.17,719.87Z" transform="matrix(0.53, -0.85, 0.85, 0.53, 3007.14, 6960.3)"/><path class="cls-4" d="M7834.17,444.87h-126V291a63.12,63.12,0,0,1,63.13-63.13h0a62.86,62.86,0,0,1,62.87,62.86Z"/><polygon class="cls-8" points="7734.17 789.87 7704.17 785.87 7746 601 7788.17 645.87 7734.17 789.87"/><polygon class="cls-8" points="7788.17 645.87 7740 649 7708.17 444.87 7834.17 444.87 7788.17 645.87"/><path class="cls-5" d="M7913,398.2l-7.14-20.94a3.46,3.46,0,0,1,.11-2.51l29.25-61.88c1.22-2.78,5.81-4.79,7-2L7949,322a10.07,10.07,0,0,1,0,8l-29.6,68.55A3.46,3.46,0,0,1,7913,398.2Z"/><path class="cls-6" d="M7915.31,384l-3.34-15.4c-.13-.6-.05-1.26.22.15l22.43-45.49c.95-4,4-5.52,4.61-3.47L7943,328a8.49,8.49,0,0,1-.48,5.85l-23.05,50.39C7918.46,386.35,7915.79,386.22,7915.31,384Z"/><path class="cls-1" d="M7925.17,378.87h0c-5.13,8.2-15.8,7.13-24,2l-144.3-82.39a17.52,17.52,0,0,1-5.55-24.14l4.07-6.5a17.52,17.52,0,0,1,24.14-5.56l139.64,92.59C7927.37,360,7930.3,370.67,7925.17,378.87Z"/><path class="cls-7" d="M7770.76,242.87h0a28.79,28.79,0,0,1,28.79,28.79v50.21a0,0,0,0,1,0,0h-57.38a0,0,0,0,1,0,0V271.46A28.59,28.59,0,0,1,7770.76,242.87Z" transform="translate(3408.91 6719.71) rotate(-57.96)"/><path d="M7729.67,760.37h40a0,0,0,0,1,0,0V832a19.41,19.41,0,0,1-19.41,19.41h0a20.59,20.59,0,0,1-20.59-20.59V760.37a0,0,0,0,1,0,0Z" transform="translate(6943.8 8555.53) rotate(-90)"/><rect class="cls-2" x="7500" width="500" height="900"/><path class="cls-1" d="M8281.53,209.55h0a43,43,0,0,1-32.67-51.3l11.91-53.69a30.08,30.08,0,0,1,35.79-22.79l25.38,5.63a30.08,30.08,0,0,1,22.79,35.78l-11.91,53.7A43,43,0,0,1,8281.53,209.55Z"/><path class="cls-3" d="M8361.89,88.71l-8.66-.27-4-.13-3.3-.1a11.69,11.69,0,0,1-3.1-.51l-36-11a70.09,70.09,0,0,0-19.55-2.51l-7.74.33c-7.31.31-16.73,5.46-20.94,11.44l-1.55,2.21a59.68,59.68,0,0,0-7.92,17.94l-11,49.79a10,10,0,0,0,7.6,11.93l11.71,2.6a14.32,14.32,0,0,0,14.65-6.56L8298,117.5a14.66,14.66,0,0,1,14.68-6.76l29.42,5.91a10.27,10.27,0,0,0,11.79-7.13l3.64-7.54,1.74-3.6,3.77-7.8A1.21,1.21,0,0,0,8361.89,88.71Z"/><rect class="cls-1" x="8263.39" y="203.36" width="33" height="27" transform="translate(6326.62 8265.98) rotate(-77.86)"/><path class="cls-3" d="M8403.67,594.87l-25,5-170-155h126l88,127C8423.47,574.8,8416.67,586.87,8403.67,594.87Z"/><path class="cls-3" d="M8369.64,783.27l-27.55-1.3,30.58-206.1,44.81-5.59a3.8,3.8,0,0,1,5.51,4.45Z"/><path d="M8362.43,748.56h40a0,0,0,0,1,0,0v71.59A19.41,19.41,0,0,1,8383,839.56h0A20.59,20.59,0,0,1,8362.43,819V748.56A0,0,0,0,1,8362.43,748.56Z" transform="translate(5151.31 8569.38) rotate(-72.85)"/><path class="cls-4" d="M8334.67,444.87h-126V291a63.12,63.12,0,0,1,63.13-63.13h0a62.86,62.86,0,0,1,62.87,62.86Z"/><polygon class="cls-8" points="8219.67 789.87 8189.67 785.87 8230 607 8273.67 645.87 8219.67 789.87"/><polygon class="cls-8" points="8273.67 645.87 8225 650 8208.67 444.87 8334.67 444.87 8273.67 645.87"/><path d="M8215.17,760.37h40a0,0,0,0,1,0,0V832a19.41,19.41,0,0,1-19.41,19.41h0a20.59,20.59,0,0,1-20.59-20.59V760.37A0,0,0,0,1,8215.17,760.37Z" transform="translate(7429.3 9041.03) rotate(-90)"/><path class="cls-5" d="M8413.45,397.2l-7.14-20.94a3.46,3.46,0,0,1,.11-2.51l29.25-61.88c1.22-2.78,5.81-4.79,7-2l6.85,11.09a10.07,10.07,0,0,1,0,8l-29.6,68.55A3.46,3.46,0,0,1,8413.45,397.2Z"/><path class="cls-6" d="M8415.81,385l-3.34-15.4a3,3,0,0,1,.22-1.85l22.43-45.49c.95-2,4-3.52,4.61-1.47l3.74,8.16a8.49,8.49,0,0,1-.48,5.85l-23,50.39C8419,387.35,8416.29,387.22,8415.81,385Z"/><path class="cls-1" d="M8425.67,379.87h0c-5.13,8.2-15.8,7.13-24,2l-144.3-82.39a17.52,17.52,0,0,1-5.55-24.14l4.07-6.5a17.52,17.52,0,0,1,24.14-5.56l139.64,92.59C8427.87,361,8430.8,371.67,8425.67,379.87Z"/><path class="cls-7" d="M8271.26,243.87h0A28.79,28.79,0,0,1,8300,272.65v50.21a0,0,0,0,1,0,0h-57.38a0,0,0,0,1,0,0V272.46a28.59,28.59,0,0,1,28.59-28.59Z" transform="translate(3643.04 7144.44) rotate(-57.96)"/><rect class="cls-2" x="8000" width="500" height="900"/><path class="cls-1" d="M8781.09,215.05h0a43,43,0,0,1-32.66-51.29l11.91-53.7a30.09,30.09,0,0,1,35.78-22.79l25.39,5.63a30.1,30.1,0,0,1,22.79,35.79l-11.91,53.69A43,43,0,0,1,8781.09,215.05Z"/><path class="cls-3" d="M8861.45,94.22l-8.66-.28-4-.12-3.29-.1a12,12,0,0,1-3.1-.52l-36-11a69.82,69.82,0,0,0-19.55-2.51l-7.75.33c-7.3.31-16.72,5.45-20.93,11.43l-1.56,2.21a60,60,0,0,0-7.92,18l-11,49.79a10,10,0,0,0,7.6,11.92l11.71,2.6a14.3,14.3,0,0,0,14.64-6.56l25.9-46.33a14.67,14.67,0,0,1,14.69-6.76l29.42,5.91a10.27,10.27,0,0,0,11.79-7.13l3.64-7.54,1.74-3.61,3.76-7.8A1.2,1.2,0,0,0,8861.45,94.22Z"/><path class="cls-3" d="M8903.23,600.37l-25,5-170-155h126l88,127C8923,580.3,8916.23,592.37,8903.23,600.37Z"/><path class="cls-3" d="M8896.76,787.61l-27.5,2.06,4-191L8917.85,577a3.78,3.78,0,0,1,6,3.61Z"/><path class="cls-4" d="M8834.23,450.37h-126V296.5a63.14,63.14,0,0,1,63.14-63.13h0a62.86,62.86,0,0,1,62.86,62.87Z"/><path class="cls-5" d="M8913,401.71l-7.14-20.94a3.45,3.45,0,0,1,.11-2.51l29.24-61.89c1.22-2.77,5.81-4.78,7-2l6.86,11.1a10.07,10.07,0,0,1,0,7.95L8919.48,402A3.47,3.47,0,0,1,8913,401.71Z"/><path class="cls-6" d="M8915.38,389.52,8912,374.13a2.89,2.89,0,0,1,.22-1.85l22.43-45.49c.94-2,4-3.52,4.61-1.47l3.74,8.16a8.52,8.52,0,0,1-.48,5.84l-23,50.39C8918.53,391.85,8915.86,391.73,8915.38,389.52Z"/><path class="cls-1" d="M8925.23,384.37h0c-5.13,8.2-15.8,7.13-24,2L8756.94,304a17.52,17.52,0,0,1-5.56-24.14l4.08-6.51a17.52,17.52,0,0,1,24.14-5.55l139.63,92.58C8927.43,365.5,8930.37,376.17,8925.23,384.37Z"/><path class="cls-7" d="M8770.83,248.37h0a28.79,28.79,0,0,1,28.79,28.79v50.21a0,0,0,0,1,0,0h-57.38a0,0,0,0,1,0,0V277A28.59,28.59,0,0,1,8770.83,248.37Z" transform="translate(3873.76 7570.03) rotate(-57.96)"/><path d="M8896.35,758.21h38.77a0,0,0,0,1,0,0v72.34a18.81,18.81,0,0,1-18.81,18.81h0a20,20,0,0,1-20-20V758.21a0,0,0,0,1,0,0Z" transform="translate(8645.42 9751.6) rotate(-93.42)"/><polygon class="cls-8" points="8704.24 795.37 8674.24 791.37 8716 608 8755.24 648.37 8704.24 795.37"/><polygon class="cls-8" points="8755.24 648.37 8708 659 8708.24 450.37 8834.24 450.37 8755.24 648.37"/><path d="M8763.05,810.7h0a20.59,20.59,0,0,1-24.92,15.06l-68.36-16.87,9.58-38.84,69.51,17.16C8761.78,790.39,8765.77,799.67,8763.05,810.7Z"/><rect class="cls-2" x="8500" width="500" height="900"/></svg>
