<svg id="Layer_1" data-name="Layer 1" xmlns="http://www.w3.org/2000/svg" width="9000" height="900" viewBox="0 0 9000 900"><defs><style>.cls-1{fill:none;}.cls-2{fill:#56b0e2;}.cls-3{fill:#011c26;}.cls-4{fill:#f4912d;}.cls-5{fill:#031923;}.cls-6{fill:#d8d8d8;}.cls-7{fill:#af6409;}.cls-8{fill:#093a47;}</style></defs><title>SPRITE6</title><rect class="cls-1" width="500" height="900"/><rect class="cls-2" x="219.72" y="104.2" width="128" height="86" rx="30" transform="translate(78.57 392.31) rotate(-77.49)"/><path class="cls-3" d="M350.22,88.84l-8.66-.27-4-.12-3.29-.11a11.69,11.69,0,0,1-3.11-.51l-36-11a69.47,69.47,0,0,0-19.56-2.51l-7.74.33c-7.31.3-16.73,5.45-20.94,11.43l-1.55,2.21a59.73,59.73,0,0,0-7.92,18L226.45,156a10,10,0,0,0,7.6,11.93l11.72,2.6A14.3,14.3,0,0,0,260.41,164l25.9-46.33A14.63,14.63,0,0,1,301,110.88l29.43,5.91a10.27,10.27,0,0,0,11.78-7.13l3.64-7.55,1.74-3.6,3.77-7.8A1.21,1.21,0,0,0,350.22,88.84Z"/><rect class="cls-2" x="251.72" y="203.5" width="33" height="27" transform="translate(-0.33 433.58) rotate(-77.86)"/><path class="cls-4" d="M323,445H197V275.09A47.09,47.09,0,0,1,244.09,228h32.09A46.82,46.82,0,0,1,323,274.82Z"/><path class="cls-5" d="M401.79,414.34l-7.15-20.94a3.48,3.48,0,0,1,.11-2.52L424,329c1.22-2.77,5.81-4.78,7-2l6.85,11.1a10.07,10.07,0,0,1,0,7.95l-29.6,68.54A3.46,3.46,0,0,1,401.79,414.34Z"/><path class="cls-6" d="M404.14,402.15l-3.34-15.39a3,3,0,0,1,.22-1.85l22.43-45.5c.95-2,4-3.51,4.61-1.46l3.74,8.16a8.41,8.41,0,0,1-.48,5.84l-23.05,50.39C407.29,404.48,404.62,404.36,404.14,402.15Z"/><path class="cls-2" d="M414,397h0c-5.13,8.2-15.8,7.13-24,2L245.7,316.62a17.52,17.52,0,0,1-5.55-24.14l4.07-6.51a17.51,17.51,0,0,1,24.14-5.55L408,373C416.2,378.13,419.13,388.8,414,397Z"/><path class="cls-7" d="M259.59,261h0a28.79,28.79,0,0,1,28.79,28.79V340a0,0,0,0,1,0,0H231a0,0,0,0,1,0,0V289.59A28.59,28.59,0,0,1,259.59,261Z" transform="translate(-132.81 361.21) rotate(-57.96)"/><polygon class="cls-3" points="327 787 295 789 298 627 345 646 327 787"/><polygon class="cls-3" points="345 646 308 670 197 445 323 445 345 646"/><path class="cls-8" d="M233,645l-43-15,7-185H323L246,642C244,645,238,644,233,645Z"/><path class="cls-8" d="M65.22,762.58,45.63,743.15,197.37,617.38l46.06,19.13a3.8,3.8,0,0,1,1.11,7Z"/><path d="M52.13,732.83h40a0,0,0,0,1,0,0v71.59a19.41,19.41,0,0,1-19.41,19.41h0a20.59,20.59,0,0,1-20.59-20.59V732.83A0,0,0,0,1,52.13,732.83Z" transform="translate(-461.2 206.87) rotate(-37.73)"/><path d="M321.5,759.5h40a0,0,0,0,1,0,0v71.59a19.41,19.41,0,0,1-19.41,19.41h0a20.59,20.59,0,0,1-20.59-20.59V759.5A0,0,0,0,1,321.5,759.5Z" transform="translate(-434.35 1208.36) rotate(-94.48)"/><rect class="cls-2" x="725.22" y="102.32" width="128" height="86" rx="30" transform="translate(476.44 884.34) rotate(-77.49)"/><path class="cls-3" d="M855.72,87l-8.66-.27-4-.12-3.29-.11a11.69,11.69,0,0,1-3.11-.51l-35.95-11a69.83,69.83,0,0,0-19.56-2.5l-7.74.32c-7.31.31-16.73,5.46-20.94,11.44l-1.55,2.21a59.73,59.73,0,0,0-7.92,18l-11,49.78a10,10,0,0,0,7.6,11.93l11.72,2.6a14.3,14.3,0,0,0,14.64-6.56l25.9-46.34A14.64,14.64,0,0,1,806.49,109l29.43,5.91a10.27,10.27,0,0,0,11.78-7.13l3.64-7.55,1.74-3.6,3.77-7.8A1.21,1.21,0,0,0,855.72,87Z"/><rect class="cls-2" x="757.22" y="201.62" width="33" height="27" transform="translate(400.7 926.29) rotate(-77.86)"/><path class="cls-4" d="M827.44,443.12h-126V273.21a47.09,47.09,0,0,1,47.09-47.09h32.08a46.83,46.83,0,0,1,46.83,46.82Z"/><path class="cls-5" d="M906.22,412.45l-7.14-20.93a3.48,3.48,0,0,1,.11-2.52l29.25-61.88c1.22-2.77,5.8-4.78,7-2l6.85,11.1a10.12,10.12,0,0,1,0,7.95l-29.6,68.54A3.46,3.46,0,0,1,906.22,412.45Z"/><path class="cls-6" d="M908.58,400.27l-3.34-15.4a2.87,2.87,0,0,1,.22-1.84l22.43-45.5c1-2,4-3.51,4.61-1.47l3.74,8.17a8.52,8.52,0,0,1-.48,5.84l-23,50.39C911.73,402.6,909.06,402.48,908.58,400.27Z"/><path class="cls-2" d="M918.44,395.12h0c-5.14,8.2-15.8,7.13-24,2l-144.3-82.38a17.51,17.51,0,0,1-5.55-24.14l4.07-6.51a17.51,17.51,0,0,1,24.14-5.55l139.64,92.58C920.64,376.25,923.57,386.92,918.44,395.12Z"/><path class="cls-7" d="M764,259.12h0a28.79,28.79,0,0,1,28.79,28.79v50.21a0,0,0,0,1,0,0H735.44a0,0,0,0,1,0,0V287.71A28.59,28.59,0,0,1,764,259.12Z" transform="translate(105.61 787.93) rotate(-57.96)"/><polygon class="cls-3" points="814.44 786.12 781.44 788.12 802.44 625.12 849.44 644.12 814.44 786.12"/><polygon class="cls-3" points="849.44 644.12 805.44 650.12 701.44 443.12 827.44 443.12 849.44 644.12"/><path class="cls-8" d="M753.44,649.12l-42-21-10-185h126l-63,203C762.44,649.12,758.44,648.12,753.44,649.12Z"/><path class="cls-8" d="M583.66,766.7l-19.59-19.43L715.81,621.5l46.05,19.13a3.8,3.8,0,0,1,1.12,7Z"/><path d="M580.56,728.95h40a0,0,0,0,1,0,0v71.59a19.41,19.41,0,0,1-19.41,19.41h0a20.59,20.59,0,0,1-20.59-20.59V728.95A0,0,0,0,1,580.56,728.95Z" transform="translate(-348.34 529.42) rotate(-37.73)"/><path d="M807.94,758.62h40a0,0,0,0,1,0,0v71.59a19.41,19.41,0,0,1-19.41,19.41h0A20.59,20.59,0,0,1,807.94,829V758.62a0,0,0,0,1,0,0Z" transform="matrix(-0.08, -1, 1, -0.08, 90.98, 1692.36)"/><rect class="cls-1" x="500" width="500" height="900"/><rect class="cls-2" x="1226.11" y="109.06" width="128" height="86" rx="30" transform="translate(862.27 1378.63) rotate(-77.49)"/><path class="cls-3" d="M1356.61,93.71l-8.66-.27-4-.13-3.29-.1a11.69,11.69,0,0,1-3.1-.51l-36-11a70.19,70.19,0,0,0-19.55-2.51l-7.75.33c-7.3.31-16.72,5.46-20.93,11.44l-1.56,2.21a59.93,59.93,0,0,0-7.92,17.94l-11,49.79a10,10,0,0,0,7.6,11.93l11.71,2.6a14.3,14.3,0,0,0,14.64-6.56l25.9-46.34a14.68,14.68,0,0,1,14.69-6.76l29.42,5.91a10.27,10.27,0,0,0,11.79-7.13l3.64-7.54,1.74-3.6,3.76-7.8A1.21,1.21,0,0,0,1356.61,93.71Z"/><rect class="cls-2" x="1258.11" y="208.36" width="33" height="27" transform="translate(789.66 1421.32) rotate(-77.86)"/><path class="cls-4" d="M1325,445H1199V275.09A47.09,47.09,0,0,1,1246.09,228h32.09A46.82,46.82,0,0,1,1325,274.82Z"/><path class="cls-5" d="M1408.18,419.2,1401,398.26a3.46,3.46,0,0,1,.11-2.51l29.24-61.88c1.22-2.78,5.81-4.79,7-2l6.86,11.09a10.07,10.07,0,0,1,0,8l-29.59,68.55A3.46,3.46,0,0,1,1408.18,419.2Z"/><path class="cls-6" d="M1410.54,407l-3.34-15.4a2.91,2.91,0,0,1,.22-1.85l22.43-45.49c.94-2,4-3.52,4.61-1.47l3.74,8.16a8.55,8.55,0,0,1-.48,5.85l-23,50.39C1413.69,409.35,1411,409.22,1410.54,407Z"/><path class="cls-2" d="M1416,397h0c-5.13,8.2-15.8,7.13-24,2l-144.3-82.38a17.52,17.52,0,0,1-5.55-24.14l4.07-6.51a17.51,17.51,0,0,1,24.14-5.55L1410,373C1418.2,378.13,1421.13,388.8,1416,397Z"/><path class="cls-7" d="M1266,265.87h0a28.79,28.79,0,0,1,28.79,28.79v50.21a0,0,0,0,1,0,0h-57.38a0,0,0,0,1,0,0V294.46A28.59,28.59,0,0,1,1266,265.87Z" transform="translate(335.55 1216.59) rotate(-57.96)"/><polygon class="cls-3" points="1312.39 785.87 1280.39 785.87 1300.39 626.87 1347.39 645.87 1312.39 785.87"/><polygon class="cls-3" points="1347.39 645.87 1310.39 650.87 1199.39 444.87 1325.39 444.87 1347.39 645.87"/><path class="cls-8" d="M1308.39,657.87l-35-36-74-177h126l-10,208C1315.39,655.91,1313.39,656.87,1308.39,657.87Z"/><path class="cls-8" d="M1099.79,708.5l-11.77-25,185.56-66.39,36.76,33.7a3.8,3.8,0,0,1-1.34,6.95Z"/><path d="M1073.52,684.7h40a0,0,0,0,1,0,0v71.59a19.41,19.41,0,0,1-19.41,19.41h0a20.59,20.59,0,0,1-20.59-20.59V684.7a0,0,0,0,1,0,0Z" transform="translate(-185.71 426.01) rotate(-20.36)"/><path d="M1305.89,760.37h40a0,0,0,0,1,0,0V832a19.41,19.41,0,0,1-19.41,19.41h0a20.59,20.59,0,0,1-20.59-20.59V760.37A0,0,0,0,1,1305.89,760.37Z" transform="translate(520.03 2131.76) rotate(-90)"/><rect class="cls-1" x="1000" width="500" height="900"/><rect class="cls-2" x="1732.11" y="104.06" width="128" height="86" rx="30" transform="translate(1263.57 1868.71) rotate(-77.49)"/><path class="cls-3" d="M1862.61,88.71l-8.66-.27-4-.13-3.29-.1a11.69,11.69,0,0,1-3.1-.51l-36-11a70.19,70.19,0,0,0-19.55-2.51l-7.75.33c-7.3.31-16.72,5.46-20.93,11.44l-1.56,2.21a59.93,59.93,0,0,0-7.92,17.94l-11,49.79a10,10,0,0,0,7.6,11.93l11.71,2.6a14.3,14.3,0,0,0,14.64-6.56l25.9-46.34a14.68,14.68,0,0,1,14.69-6.76l29.42,5.91a10.27,10.27,0,0,0,11.79-7.13l3.64-7.54,1.74-3.6,3.76-7.8A1.21,1.21,0,0,0,1862.61,88.71Z"/><rect class="cls-2" x="1764.11" y="203.36" width="33" height="27" transform="translate(1194.14 1912.05) rotate(-77.86)"/><path class="cls-4" d="M1835.39,444.87h-126V275a47.09,47.09,0,0,1,47.09-47.09h32.09a46.82,46.82,0,0,1,46.82,46.82Z"/><path class="cls-5" d="M1914.18,414.2,1907,393.26a3.46,3.46,0,0,1,.11-2.51l29.24-61.88c1.22-2.78,5.81-4.79,7-2l6.86,11.09a10.07,10.07,0,0,1,0,8l-29.59,68.55A3.46,3.46,0,0,1,1914.18,414.2Z"/><path class="cls-6" d="M1916.54,402l-3.34-15.4a2.91,2.91,0,0,1,.22-1.85l22.43-45.49c.94-2,4-3.52,4.61-1.47l3.74,8.16a8.55,8.55,0,0,1-.48,5.85l-23,50.39C1919.69,404.35,1917,404.22,1916.54,402Z"/><path class="cls-2" d="M1926.39,396.87h0c-5.13,8.2-15.8,7.13-24,2L1758.1,316.48a17.52,17.52,0,0,1-5.56-24.14l4.08-6.5a17.52,17.52,0,0,1,24.14-5.56l139.63,92.59C1928.59,378,1931.53,388.67,1926.39,396.87Z"/><path class="cls-7" d="M1772,260.87h0a28.79,28.79,0,0,1,28.79,28.79v50.21a0,0,0,0,1,0,0h-57.38a0,0,0,0,1,0,0V289.46A28.59,28.59,0,0,1,1772,260.87Z" transform="translate(577.35 1643.17) rotate(-57.96)"/><polygon class="cls-3" points="1785.39 789.87 1755.39 785.87 1785.39 654.87 1839.39 645.87 1785.39 789.87"/><polygon class="cls-3" points="1839.39 645.87 1785.39 654.87 1709.39 444.87 1835.39 444.87 1839.39 645.87"/><path class="cls-8" d="M1818.39,657.87l-35-36-74-177h126l-10,208C1825.39,655.91,1823.39,656.87,1818.39,657.87Z"/><path class="cls-8" d="M1609.79,708.5l-11.77-25,185.56-66.39,36.76,33.7a3.8,3.8,0,0,1-1.34,6.95Z"/><path d="M1583.52,684.7h40a0,0,0,0,1,0,0v71.59a19.41,19.41,0,0,1-19.41,19.41h0a20.59,20.59,0,0,1-20.59-20.59V684.7a0,0,0,0,1,0,0Z" transform="translate(-153.86 603.42) rotate(-20.36)"/><path d="M1780.89,760.37h40a0,0,0,0,1,0,0V832a19.41,19.41,0,0,1-19.41,19.41h0a20.59,20.59,0,0,1-20.59-20.59V760.37A0,0,0,0,1,1780.89,760.37Z" transform="translate(995.03 2606.76) rotate(-90)"/><rect class="cls-1" x="1500" width="500" height="900"/><rect class="cls-2" x="2269.72" y="203.5" width="33" height="27" transform="translate(1593.28 2406.46) rotate(-77.86)"/><rect class="cls-2" x="2234.83" y="104.06" width="128" height="86" rx="30" transform="translate(1657.41 2359.49) rotate(-77.49)"/><path class="cls-3" d="M2365.33,88.71l-8.67-.27-4-.13-3.3-.1a11.69,11.69,0,0,1-3.1-.51l-36-11a70.14,70.14,0,0,0-19.55-2.51l-7.74.33c-7.31.31-16.73,5.46-20.94,11.44l-1.55,2.21a59.68,59.68,0,0,0-7.92,17.94l-11.05,49.79a10,10,0,0,0,7.6,11.93l11.71,2.6a14.32,14.32,0,0,0,14.65-6.56l25.9-46.34a14.66,14.66,0,0,1,14.68-6.76l29.42,5.91a10.27,10.27,0,0,0,11.79-7.13L2361,102l1.74-3.6,3.77-7.8A1.21,1.21,0,0,0,2365.33,88.71Z"/><polygon class="cls-3" points="2288.11 789.87 2258.11 785.87 2266.11 655.87 2312.11 655.87 2288.11 789.87"/><polygon class="cls-3" points="2312.11 655.87 2266.11 655.87 2212.11 444.87 2312.11 444.87 2312.11 655.87"/><path class="cls-8" d="M2328,645.2l-35.35-16.85-80.58-183.48h126L2334,641.47A4.14,4.14,0,0,1,2328,645.2Z"/><path class="cls-8" d="M2128.28,716.88l-14.23-23.63L2292,608.44l40,29.82a3.8,3.8,0,0,1-.64,7Z"/><path d="M2104.24,693.6h40a0,0,0,0,1,0,0V765.2a19.41,19.41,0,0,1-19.41,19.41h0A20.59,20.59,0,0,1,2104.24,764V693.6A0,0,0,0,1,2104.24,693.6Z" transform="translate(-108.27 1012.21) rotate(-26.16)"/><path d="M2283.61,760.37h40a0,0,0,0,1,0,0V832a19.41,19.41,0,0,1-19.41,19.41h0a20.59,20.59,0,0,1-20.59-20.59V760.37A0,0,0,0,1,2283.61,760.37Z" transform="translate(1497.74 3109.47) rotate(-90)"/><path class="cls-4" d="M2338.11,444.87h-126V275a47.09,47.09,0,0,1,47.09-47.09h32.08a46.83,46.83,0,0,1,46.83,46.82Z"/><path class="cls-5" d="M2416.89,414.2l-7.14-20.94a3.46,3.46,0,0,1,.11-2.51l29.25-61.88c1.22-2.78,5.8-4.79,7-2L2453,338a10.07,10.07,0,0,1,0,8l-29.6,68.55A3.46,3.46,0,0,1,2416.89,414.2Z"/><path class="cls-6" d="M2419.25,402l-3.34-15.4a3,3,0,0,1,.22-1.85l22.43-45.49c1-2,4-3.52,4.61-1.47l3.74,8.16a8.49,8.49,0,0,1-.48,5.85l-23,50.39C2422.4,404.35,2419.73,404.22,2419.25,402Z"/><path class="cls-2" d="M2429.11,396.87h0c-5.13,8.2-15.8,7.13-24,2l-144.3-82.39a17.51,17.51,0,0,1-5.55-24.14l4.07-6.5a17.52,17.52,0,0,1,24.14-5.56l139.64,92.59C2431.31,378,2434.24,388.67,2429.11,396.87Z"/><path class="cls-7" d="M2274.7,260.87h0a28.79,28.79,0,0,1,28.79,28.79v50.21a0,0,0,0,1,0,0h-57.38a0,0,0,0,1,0,0V289.46A28.59,28.59,0,0,1,2274.7,260.87Z" transform="translate(813.36 2069.3) rotate(-57.96)"/><rect class="cls-1" x="2000" width="500" height="900"/><polygon class="cls-3" points="2749.24 789.87 2722.24 789.87 2675.24 444.87 2775.24 444.87 2749.24 789.87"/><rect class="cls-2" x="2697.96" y="104.06" width="128" height="86" rx="30" transform="translate(2020.25 2811.63) rotate(-77.49)"/><path class="cls-3" d="M2828.46,88.71l-8.66-.27-4-.13-3.29-.1a11.62,11.62,0,0,1-3.1-.51l-36-11a70.19,70.19,0,0,0-19.55-2.51l-7.75.33c-7.3.31-16.73,5.46-20.94,11.44l-1.55,2.21a59.93,59.93,0,0,0-7.92,17.94l-11,49.79a10,10,0,0,0,7.59,11.93l11.72,2.6a14.3,14.3,0,0,0,14.64-6.56l25.9-46.34a14.68,14.68,0,0,1,14.69-6.76l29.42,5.91a10.28,10.28,0,0,0,11.79-7.13l3.64-7.54c.47-1,1.26-2.61,1.73-3.6l3.77-7.8A1.21,1.21,0,0,0,2828.46,88.71Z"/><rect class="cls-2" x="2729.96" y="203.36" width="33" height="27" transform="translate(1956.87 2856.3) rotate(-77.86)"/><path class="cls-4" d="M2801.24,444.87h-126V275a47.09,47.09,0,0,1,47.09-47.09h32.09a46.82,46.82,0,0,1,46.82,46.82Z"/><path class="cls-5" d="M2880,414.2l-7.14-20.94a3.46,3.46,0,0,1,.1-2.51l29.25-61.88c1.22-2.78,5.81-4.79,7-2l6.85,11.09a10,10,0,0,1,0,8l-29.6,68.55A3.46,3.46,0,0,1,2880,414.2Z"/><path class="cls-6" d="M2882.39,402l-3.35-15.4a3,3,0,0,1,.22-1.85l22.43-45.49c.95-2,4-3.52,4.61-1.47L2910,346a8.43,8.43,0,0,1-.48,5.85l-23,50.39C2885.54,404.35,2882.87,404.22,2882.39,402Z"/><path class="cls-2" d="M2892.24,396.87h0c-5.13,8.2-15.8,7.13-24,2L2724,316.48a17.52,17.52,0,0,1-5.56-24.14l4.07-6.5a17.52,17.52,0,0,1,24.14-5.56l139.64,92.59C2894.44,378,2897.37,388.67,2892.24,396.87Z"/><path class="cls-7" d="M2737.84,260.87h0a28.79,28.79,0,0,1,28.79,28.79v50.21a0,0,0,0,1,0,0h-57.38a0,0,0,0,1,0,0V289.46a28.59,28.59,0,0,1,28.59-28.59Z" transform="translate(1030.79 2461.89) rotate(-57.96)"/><path class="cls-8" d="M2839.8,607.72l-38.56-6.85-126-156h126l43.27,157.68A4.14,4.14,0,0,1,2839.8,607.72Z"/><path class="cls-8" d="M2666.24,729.87l-20-19,149-129L2841.7,600a3.79,3.79,0,0,1,1.26,7Z"/><path d="M2648.24,706.87h40a0,0,0,0,1,0,0v71.59a19.41,19.41,0,0,1-19.41,19.41h0a20.59,20.59,0,0,1-20.59-20.59V706.87a0,0,0,0,1,0,0Z" transform="translate(172.49 1959.34) rotate(-41.56)"/><path d="M2746.74,760.37h40a0,0,0,0,1,0,0V832a19.41,19.41,0,0,1-19.41,19.41h0a20.59,20.59,0,0,1-20.59-20.59V760.37A0,0,0,0,1,2746.74,760.37Z" transform="translate(1960.88 3572.61) rotate(-90)"/><rect class="cls-1" x="2500" width="500" height="900"/><rect class="cls-2" x="3203.89" y="104.06" width="128" height="86" rx="30" transform="translate(2416.61 3305.55) rotate(-77.49)"/><path class="cls-3" d="M3334.39,88.71l-8.66-.27-4-.13-3.3-.1a11.69,11.69,0,0,1-3.1-.51l-36-11a70.09,70.09,0,0,0-19.55-2.51l-7.74.33c-7.31.31-16.73,5.46-20.94,11.44l-1.55,2.21a59.68,59.68,0,0,0-7.92,17.94l-11.05,49.79a10,10,0,0,0,7.6,11.93l11.71,2.6a14.32,14.32,0,0,0,14.65-6.56l25.9-46.34a14.66,14.66,0,0,1,14.68-6.76l29.42,5.91a10.27,10.27,0,0,0,11.79-7.13L3330,102l1.74-3.6,3.77-7.8A1.21,1.21,0,0,0,3334.39,88.71Z"/><rect class="cls-2" x="3235.89" y="203.36" width="33" height="27" transform="translate(2356.4 3350.91) rotate(-77.86)"/><path class="cls-4" d="M3307.17,444.87h-126V275a47.09,47.09,0,0,1,47.09-47.09h32.08a46.83,46.83,0,0,1,46.83,46.82Z"/><polygon class="cls-3" points="3207.17 789.87 3177.17 785.87 3211.17 633.87 3261.17 645.87 3207.17 789.87"/><polygon class="cls-3" points="3261.17 645.87 3211.17 633.87 3181.17 444.87 3307.17 444.87 3261.17 645.87"/><path class="cls-5" d="M3386,414.2l-7.14-20.94a3.46,3.46,0,0,1,.11-2.51l29.25-61.88c1.22-2.78,5.81-4.79,7-2L3422,338a10.07,10.07,0,0,1,0,8l-29.6,68.55A3.46,3.46,0,0,1,3386,414.2Z"/><path class="cls-6" d="M3388.31,402l-3.34-15.4a3,3,0,0,1,.22-1.85l22.43-45.49c1-2,4-3.52,4.61-1.47L3416,346a8.49,8.49,0,0,1-.48,5.85l-23,50.39C3391.46,404.35,3388.79,404.22,3388.31,402Z"/><path class="cls-2" d="M3398.17,396.87h0c-5.13,8.2-15.8,7.13-24,2l-144.3-82.39a17.52,17.52,0,0,1-5.55-24.14l4.07-6.5a17.52,17.52,0,0,1,24.14-5.56l139.64,92.59C3400.37,378,3403.3,388.67,3398.17,396.87Z"/><path class="cls-7" d="M3243.76,260.87h0a28.79,28.79,0,0,1,28.79,28.79v50.21a0,0,0,0,1,0,0h-57.38a0,0,0,0,1,0,0V289.46a28.59,28.59,0,0,1,28.59-28.59Z" transform="translate(1268.32 2890.75) rotate(-57.96)"/><path class="cls-8" d="M3376.17,594.87l-43,2-152-152h126l74,143C3382,590.8,3379.16,595.4,3376.17,594.87Z"/><path class="cls-8" d="M3245.54,761.39,3221,748.87,3327,582.76l49.7,4.15a3.79,3.79,0,0,1,3.19,6.31Z"/><path d="M3240.17,719.87h40a0,0,0,0,1,0,0v71.59a19.41,19.41,0,0,1-19.41,19.41h0a20.59,20.59,0,0,1-20.59-20.59V719.87A0,0,0,0,1,3240.17,719.87Z" transform="translate(881.81 3122.88) rotate(-57.96)"/><path d="M3202.67,760.37h40a0,0,0,0,1,0,0V832a19.41,19.41,0,0,1-19.41,19.41h0a20.59,20.59,0,0,1-20.59-20.59V760.37a0,0,0,0,1,0,0Z" transform="translate(2416.8 4028.53) rotate(-90)"/><rect class="cls-1" x="3000" width="500" height="900"/><rect class="cls-2" x="3701.39" y="104.06" width="128" height="86" rx="30" transform="translate(2806.37 3791.25) rotate(-77.49)"/><path class="cls-3" d="M3831.89,88.71l-8.66-.27-4-.13-3.3-.1a11.69,11.69,0,0,1-3.1-.51l-36-11a70.09,70.09,0,0,0-19.55-2.51l-7.74.33c-7.31.31-16.73,5.46-20.94,11.44l-1.55,2.21a59.68,59.68,0,0,0-7.92,17.94l-11.05,49.79a10,10,0,0,0,7.6,11.93l11.71,2.6a14.32,14.32,0,0,0,14.65-6.56L3768,117.5a14.66,14.66,0,0,1,14.68-6.76l29.42,5.91a10.27,10.27,0,0,0,11.79-7.13l3.64-7.54,1.74-3.6,3.77-7.8A1.21,1.21,0,0,0,3831.89,88.71Z"/><rect class="cls-2" x="3733.39" y="203.36" width="33" height="27" transform="translate(2749.27 3837.29) rotate(-77.86)"/><path class="cls-4" d="M3804.67,444.87h-126V275a47.09,47.09,0,0,1,47.09-47.09h32.08a46.83,46.83,0,0,1,46.83,46.82Z"/><polygon class="cls-3" points="3689.67 789.87 3659.67 785.87 3693.67 633.87 3743.67 645.87 3689.67 789.87"/><polygon class="cls-3" points="3743.67 645.87 3693.67 633.87 3678.67 444.87 3804.67 444.87 3743.67 645.87"/><path d="M3685.17,760.37h40a0,0,0,0,1,0,0V832a19.41,19.41,0,0,1-19.41,19.41h0a20.59,20.59,0,0,1-20.59-20.59V760.37A0,0,0,0,1,3685.17,760.37Z" transform="translate(2899.3 4511.03) rotate(-90)"/><path class="cls-5" d="M3883.45,414.2l-7.14-20.94a3.46,3.46,0,0,1,.11-2.51l29.25-61.88c1.22-2.78,5.81-4.79,7-2l6.85,11.09a10.07,10.07,0,0,1,0,8l-29.6,68.55A3.46,3.46,0,0,1,3883.45,414.2Z"/><path class="cls-6" d="M3885.81,402l-3.34-15.4a3,3,0,0,1,.22-1.85l22.43-45.49c1-2,4-3.52,4.61-1.47l3.74,8.16a8.49,8.49,0,0,1-.48,5.85l-23,50.39C3889,404.35,3886.29,404.22,3885.81,402Z"/><path class="cls-2" d="M3895.67,396.87h0c-5.13,8.2-15.8,7.13-24,2l-144.3-82.39a17.52,17.52,0,0,1-5.55-24.14l4.07-6.5a17.52,17.52,0,0,1,24.14-5.56l139.64,92.59C3897.87,378,3900.8,388.67,3895.67,396.87Z"/><path class="cls-7" d="M3741.26,260.87h0A28.79,28.79,0,0,1,3770,289.65v50.21a0,0,0,0,1,0,0h-57.38a0,0,0,0,1,0,0V289.46a28.59,28.59,0,0,1,28.59-28.59Z" transform="translate(1501.88 3312.46) rotate(-57.96)"/><path class="cls-8" d="M3873.67,594.87l-25,5-170-155h126l88,127C3893.47,574.8,3886.67,586.87,3873.67,594.87Z"/><path class="cls-8" d="M3839.64,783.27l-27.55-1.3,30.58-206.1,44.81-5.59a3.8,3.8,0,0,1,5.51,4.45Z"/><path d="M3832.43,748.56h40a0,0,0,0,1,0,0v71.59A19.41,19.41,0,0,1,3853,839.56h0A20.59,20.59,0,0,1,3832.43,819V748.56A0,0,0,0,1,3832.43,748.56Z" transform="translate(1957.43 4240.91) rotate(-72.85)"/><rect class="cls-1" x="3500" width="500" height="900"/><rect class="cls-2" x="4205.95" y="106.57" width="128" height="86" rx="30" transform="translate(3199.22 4285.8) rotate(-77.49)"/><path class="cls-3" d="M4336.45,91.22l-8.66-.28-4-.12-3.29-.1a12,12,0,0,1-3.1-.52l-36-11a69.82,69.82,0,0,0-19.55-2.51l-7.75.33c-7.3.31-16.72,5.45-20.93,11.43l-1.56,2.21a60,60,0,0,0-7.92,18l-11,49.79a10,10,0,0,0,7.6,11.92l11.71,2.6a14.3,14.3,0,0,0,14.64-6.56l25.9-46.33a14.67,14.67,0,0,1,14.69-6.76l29.42,5.91a10.27,10.27,0,0,0,11.79-7.13l3.64-7.54,1.74-3.61,3.76-7.8A1.2,1.2,0,0,0,4336.45,91.22Z"/><rect class="cls-2" x="4237.95" y="205.87" width="33" height="27" transform="translate(3145.28 4332.55) rotate(-77.86)"/><path class="cls-4" d="M4309.23,447.37h-126V277.46a47.09,47.09,0,0,1,47.09-47.09h32.09a46.82,46.82,0,0,1,46.82,46.82Z"/><path class="cls-5" d="M4388,416.71l-7.14-20.94a3.45,3.45,0,0,1,.11-2.51l29.24-61.89c1.22-2.77,5.81-4.78,7-2l6.86,11.1a10.07,10.07,0,0,1,0,7.95L4394.48,417A3.47,3.47,0,0,1,4388,416.71Z"/><path class="cls-6" d="M4390.38,404.52,4387,389.13a2.89,2.89,0,0,1,.22-1.85l22.43-45.49c.94-2,4-3.52,4.61-1.47l3.74,8.16a8.52,8.52,0,0,1-.48,5.84l-23.05,50.39C4393.53,406.85,4390.86,406.73,4390.38,404.52Z"/><path class="cls-2" d="M4400.23,399.37h0c-5.13,8.2-15.8,7.13-24,2L4231.94,319a17.52,17.52,0,0,1-5.56-24.14l4.08-6.51a17.52,17.52,0,0,1,24.14-5.55l139.63,92.58C4402.43,380.5,4405.37,391.17,4400.23,399.37Z"/><path class="cls-7" d="M4245.83,263.37h0a28.79,28.79,0,0,1,28.79,28.79v50.21a0,0,0,0,1,0,0h-57.38a0,0,0,0,1,0,0V292A28.59,28.59,0,0,1,4245.83,263.37Z" transform="translate(1736.64 3741.35) rotate(-57.96)"/><path class="cls-8" d="M4371.76,784.61l-27.5,2.06,4-191L4392.85,574a3.78,3.78,0,0,1,6,3.61Z"/><path d="M4371.35,755.21h38.77a0,0,0,0,1,0,0v72.34a18.81,18.81,0,0,1-18.81,18.81h0a20,20,0,0,1-20-20V755.21A0,0,0,0,1,4371.35,755.21Z" transform="translate(3853.39 5231.48) rotate(-93.42)"/><polygon class="cls-3" points="4179.23 792.37 4149.23 788.37 4183.23 636.37 4230.23 645.37 4179.23 792.37"/><polygon class="cls-3" points="4230.23 645.37 4183.23 636.37 4183.23 447.37 4309.23 447.37 4230.23 645.37"/><path d="M4172.73,751.87h40a0,0,0,0,1,0,0v71.59a19.41,19.41,0,0,1-19.41,19.41h0a20.59,20.59,0,0,1-20.59-20.59V751.87a0,0,0,0,1,0,0Z" transform="translate(2413.95 4676.9) rotate(-76.14)"/><path class="cls-8" d="M4378.23,597.37l-25,5-170-155h126l88,127C4398,577.3,4391.23,589.37,4378.23,597.37Z"/><rect class="cls-1" x="4000" width="500" height="900"/><rect class="cls-1" x="4500" width="500" height="900"/><rect class="cls-2" x="4719.72" y="104.2" width="128" height="86" rx="30" transform="translate(3604.04 4785.52) rotate(-77.49)"/><path class="cls-3" d="M4850.22,88.84l-8.66-.27-4-.12-3.29-.11a11.69,11.69,0,0,1-3.11-.51l-35.95-11a69.47,69.47,0,0,0-19.56-2.51l-7.74.33c-7.31.3-16.73,5.45-20.94,11.43l-1.55,2.21a59.73,59.73,0,0,0-7.92,18L4726.45,156a10,10,0,0,0,7.6,11.93l11.72,2.6a14.3,14.3,0,0,0,14.64-6.56l25.9-46.33a14.63,14.63,0,0,1,14.68-6.76l29.43,5.91a10.27,10.27,0,0,0,11.78-7.13l3.64-7.55,1.74-3.6,3.77-7.8A1.21,1.21,0,0,0,4850.22,88.84Z"/><rect class="cls-2" x="4751.72" y="203.5" width="33" height="27" transform="translate(3553.32 4832.95) rotate(-77.86)"/><path class="cls-3" d="M4733,645l-43-15,7-185h126l-77,197C4744,645,4738,644,4733,645Z"/><path class="cls-4" d="M4823,445H4697V275.09A47.09,47.09,0,0,1,4744.09,228h32.09A46.82,46.82,0,0,1,4823,274.82Z"/><path class="cls-5" d="M4901.79,414.34l-7.15-20.94a3.48,3.48,0,0,1,.11-2.52L4924,329c1.22-2.77,5.81-4.78,7-2l6.85,11.1a10.07,10.07,0,0,1,0,7.95l-29.6,68.54A3.46,3.46,0,0,1,4901.79,414.34Z"/><path class="cls-6" d="M4904.14,402.15l-3.34-15.39a3,3,0,0,1,.22-1.85l22.43-45.5c.95-2,4-3.51,4.61-1.46l3.74,8.16a8.41,8.41,0,0,1-.48,5.84l-23,50.39C4907.29,404.48,4904.62,404.36,4904.14,402.15Z"/><path class="cls-2" d="M4914,397h0c-5.13,8.2-15.8,7.13-24,2l-144.3-82.38a17.52,17.52,0,0,1-5.55-24.14l4.07-6.51a17.51,17.51,0,0,1,24.14-5.55L4908,373C4916.2,378.13,4919.13,388.8,4914,397Z"/><path class="cls-7" d="M4759.59,261h0a28.79,28.79,0,0,1,28.79,28.79V340a0,0,0,0,1,0,0H4731a0,0,0,0,1,0,0V289.59A28.59,28.59,0,0,1,4759.59,261Z" transform="translate(1979.86 4175.74) rotate(-57.96)"/><polygon class="cls-8" points="4827 787 4795 789 4798 627 4845 646 4827 787"/><polygon class="cls-8" points="4845 646 4808 670 4697 445 4823 445 4845 646"/><path class="cls-3" d="M4565.22,762.58l-19.59-19.43,151.74-125.77,46.06,19.13a3.8,3.8,0,0,1,1.11,7Z"/><path d="M4552.13,732.83h40a0,0,0,0,1,0,0v71.59a19.41,19.41,0,0,1-19.41,19.41h0a20.59,20.59,0,0,1-20.59-20.59V732.83A0,0,0,0,1,4552.13,732.83Z" transform="translate(479.68 2960.53) rotate(-37.73)"/><path d="M4821.5,759.5h40a0,0,0,0,1,0,0v71.59a19.41,19.41,0,0,1-19.41,19.41h0a20.59,20.59,0,0,1-20.59-20.59V759.5a0,0,0,0,1,0,0Z" transform="translate(4417.31 5694.6) rotate(-94.48)"/><rect class="cls-2" x="5225.22" y="102.32" width="128" height="86" rx="30" transform="translate(4001.9 5277.55) rotate(-77.49)"/><path class="cls-3" d="M5355.72,87l-8.66-.27-4-.12-3.29-.11a11.69,11.69,0,0,1-3.11-.51l-35.95-11a69.83,69.83,0,0,0-19.56-2.5l-7.74.32c-7.31.31-16.73,5.46-20.94,11.44l-1.55,2.21a59.73,59.73,0,0,0-7.92,18L5232,154.12a10,10,0,0,0,7.6,11.93l11.72,2.6a14.3,14.3,0,0,0,14.64-6.56l25.9-46.34a14.64,14.64,0,0,1,14.68-6.75l29.43,5.91a10.27,10.27,0,0,0,11.78-7.13l3.64-7.55,1.74-3.6,3.77-7.8A1.21,1.21,0,0,0,5355.72,87Z"/><rect class="cls-2" x="5257.22" y="201.62" width="33" height="27" transform="translate(3954.35 5325.66) rotate(-77.86)"/><path class="cls-3" d="M5253.44,649.12l-42-21-10-185h126l-63,203C5262.44,649.12,5258.44,648.12,5253.44,649.12Z"/><path class="cls-4" d="M5327.44,443.12h-126V273.21a47.09,47.09,0,0,1,47.09-47.09h32.08a46.83,46.83,0,0,1,46.83,46.82Z"/><path class="cls-5" d="M5406.22,412.45l-7.14-20.93a3.48,3.48,0,0,1,.11-2.52l29.25-61.88c1.22-2.77,5.8-4.78,7-2l6.85,11.1a10.12,10.12,0,0,1,0,7.95l-29.6,68.54A3.46,3.46,0,0,1,5406.22,412.45Z"/><path class="cls-6" d="M5408.58,400.27l-3.34-15.4a2.87,2.87,0,0,1,.22-1.84l22.43-45.5c.95-2,4-3.51,4.61-1.47l3.74,8.17a8.52,8.52,0,0,1-.48,5.84l-23.05,50.39C5411.73,402.6,5409.06,402.48,5408.58,400.27Z"/><path class="cls-2" d="M5418.44,395.12h0c-5.14,8.2-15.8,7.13-24,2l-144.3-82.38a17.51,17.51,0,0,1-5.55-24.14l4.07-6.51a17.51,17.51,0,0,1,24.14-5.55l139.64,92.58C5420.64,376.25,5423.57,386.92,5418.44,395.12Z"/><path class="cls-7" d="M5264,259.12h0a28.79,28.79,0,0,1,28.79,28.79v50.21a0,0,0,0,1,0,0h-57.38a0,0,0,0,1,0,0V287.71A28.59,28.59,0,0,1,5264,259.12Z" transform="translate(2218.27 4602.45) rotate(-57.96)"/><polygon class="cls-8" points="5314.44 786.12 5281.44 788.12 5302.44 625.12 5349.44 644.12 5314.44 786.12"/><polygon class="cls-8" points="5349.44 644.12 5305.44 650.12 5201.44 443.12 5327.44 443.12 5349.44 644.12"/><path class="cls-3" d="M5083.66,766.7l-19.59-19.43L5215.81,621.5l46,19.13a3.8,3.8,0,0,1,1.12,7Z"/><path d="M5080.56,728.95h40a0,0,0,0,1,0,0v71.59a19.41,19.41,0,0,1-19.41,19.41h0a20.59,20.59,0,0,1-20.59-20.59V728.95A0,0,0,0,1,5080.56,728.95Z" transform="translate(592.54 3283.08) rotate(-37.73)"/><path d="M5307.94,758.62h40a0,0,0,0,1,0,0v71.59a19.41,19.41,0,0,1-19.41,19.41h0A20.59,20.59,0,0,1,5307.94,829V758.62A0,0,0,0,1,5307.94,758.62Z" transform="matrix(-0.08, -1, 1, -0.08, 4942.64, 6178.6)"/><rect class="cls-1" x="5000" width="500" height="900"/><rect class="cls-2" x="5726.11" y="109.06" width="128" height="86" rx="30" transform="translate(4387.73 5771.84) rotate(-77.49)"/><path class="cls-3" d="M5856.61,93.71l-8.66-.27-4-.13-3.29-.1a11.69,11.69,0,0,1-3.1-.51l-36-11a70.19,70.19,0,0,0-19.55-2.51l-7.75.33c-7.3.31-16.72,5.46-20.93,11.44l-1.56,2.21a59.93,59.93,0,0,0-7.92,17.94l-11,49.79a10,10,0,0,0,7.6,11.93l11.71,2.6a14.3,14.3,0,0,0,14.64-6.56l25.9-46.34a14.68,14.68,0,0,1,14.69-6.76l29.42,5.91a10.27,10.27,0,0,0,11.79-7.13l3.64-7.54,1.74-3.6,3.76-7.8A1.21,1.21,0,0,0,5856.61,93.71Z"/><rect class="cls-2" x="5758.11" y="208.36" width="33" height="27" transform="translate(4343.32 5820.68) rotate(-77.86)"/><path class="cls-3" d="M5599.79,708.5l-11.77-25,185.56-66.39,36.76,33.7a3.8,3.8,0,0,1-1.34,6.95Z"/><path class="cls-3" d="M5808.39,657.87l-35-36-74-177h126l-10,208C5815.39,655.91,5813.39,656.87,5808.39,657.87Z"/><path class="cls-4" d="M5825,445H5699V275.09A47.09,47.09,0,0,1,5746.09,228h32.09A46.82,46.82,0,0,1,5825,274.82Z"/><path class="cls-5" d="M5908.18,419.2,5901,398.26a3.46,3.46,0,0,1,.11-2.51l29.24-61.88c1.22-2.78,5.81-4.79,7-2l6.86,11.09a10.07,10.07,0,0,1,0,8l-29.59,68.55A3.46,3.46,0,0,1,5908.18,419.2Z"/><path class="cls-6" d="M5910.54,407l-3.34-15.4a2.91,2.91,0,0,1,.22-1.85l22.43-45.49c.94-2,4-3.52,4.61-1.47l3.74,8.16a8.55,8.55,0,0,1-.48,5.85l-23.05,50.39C5913.69,409.35,5911,409.22,5910.54,407Z"/><path class="cls-2" d="M5916,397h0c-5.13,8.2-15.8,7.13-24,2l-144.3-82.38a17.52,17.52,0,0,1-5.55-24.14l4.07-6.51a17.51,17.51,0,0,1,24.14-5.55L5910,373C5918.2,378.13,5921.13,388.8,5916,397Z"/><path class="cls-7" d="M5766,265.87h0a28.79,28.79,0,0,1,28.79,28.79v50.21a0,0,0,0,1,0,0h-57.38a0,0,0,0,1,0,0V294.46A28.59,28.59,0,0,1,5766,265.87Z" transform="translate(2448.21 5031.12) rotate(-57.96)"/><polygon class="cls-8" points="5812.4 785.87 5780.4 785.87 5800.4 626.87 5847.4 645.87 5812.4 785.87"/><polygon class="cls-8" points="5847.4 645.87 5810.4 650.87 5699.4 444.87 5825.4 444.87 5847.4 645.87"/><path d="M5573.52,684.7h40a0,0,0,0,1,0,0v71.59a19.41,19.41,0,0,1-19.41,19.41h0a20.59,20.59,0,0,1-20.59-20.59V684.7a0,0,0,0,1,0,0Z" transform="matrix(0.94, -0.35, 0.35, 0.94, 95.34, 1991.41)"/><path d="M5805.89,760.37h40a0,0,0,0,1,0,0V832a19.41,19.41,0,0,1-19.41,19.41h0a20.59,20.59,0,0,1-20.59-20.59V760.37A0,0,0,0,1,5805.89,760.37Z" transform="translate(5020.03 6631.76) rotate(-90)"/><rect class="cls-1" x="5500" width="500" height="900"/><rect class="cls-2" x="6222.11" y="104.06" width="128" height="86" rx="30" transform="translate(4781.2 6252.15) rotate(-77.49)"/><path class="cls-3" d="M6352.61,88.71l-8.66-.27-4-.13-3.29-.1a11.69,11.69,0,0,1-3.1-.51l-36-11a70.19,70.19,0,0,0-19.55-2.51l-7.75.33c-7.3.31-16.72,5.46-20.93,11.44l-1.56,2.21a59.93,59.93,0,0,0-7.92,17.94l-11,49.79a10,10,0,0,0,7.6,11.93l11.71,2.6a14.3,14.3,0,0,0,14.64-6.56l25.9-46.34a14.68,14.68,0,0,1,14.69-6.76l29.42,5.91a10.27,10.27,0,0,0,11.79-7.13l3.64-7.54,1.74-3.6,3.76-7.8A1.21,1.21,0,0,0,6352.61,88.71Z"/><rect class="cls-2" x="6254.11" y="203.36" width="33" height="27" transform="translate(4739.9 6301.64) rotate(-77.86)"/><path class="cls-3" d="M6308.39,657.87l-35-36-74-177h126l-10,208C6315.39,655.91,6313.39,656.87,6308.39,657.87Z"/><path class="cls-3" d="M6099.79,708.5l-11.77-25,185.56-66.39,36.76,33.7a3.8,3.8,0,0,1-1.34,6.95Z"/><path class="cls-4" d="M6325.39,444.87h-126V275a47.09,47.09,0,0,1,47.09-47.09h32.09a46.82,46.82,0,0,1,46.82,46.82Z"/><path class="cls-5" d="M6404.18,414.2,6397,393.26a3.46,3.46,0,0,1,.11-2.51l29.24-61.88c1.22-2.78,5.81-4.79,7-2l6.86,11.09a10.07,10.07,0,0,1,0,8l-29.59,68.55A3.46,3.46,0,0,1,6404.18,414.2Z"/><path class="cls-6" d="M6406.54,402l-3.34-15.4a2.91,2.91,0,0,1,.22-1.85l22.43-45.49c.94-2,4-3.52,4.61-1.47l3.74,8.16a8.55,8.55,0,0,1-.48,5.85l-23.05,50.39C6409.69,404.35,6407,404.22,6406.54,402Z"/><path class="cls-2" d="M6416.39,396.87h0c-5.13,8.2-15.8,7.13-24,2L6248.1,316.48a17.52,17.52,0,0,1-5.56-24.14l4.08-6.5a17.52,17.52,0,0,1,24.14-5.56l139.63,92.59C6418.59,378,6421.53,388.67,6416.39,396.87Z"/><path class="cls-7" d="M6262,260.87h0a28.79,28.79,0,0,1,28.79,28.79v50.21a0,0,0,0,1,0,0h-57.38a0,0,0,0,1,0,0V289.46A28.59,28.59,0,0,1,6262,260.87Z" transform="translate(2685.32 5449.22) rotate(-57.96)"/><polygon class="cls-8" points="6275.4 789.87 6245.4 785.87 6275.4 654.87 6329.4 645.87 6275.4 789.87"/><polygon class="cls-8" points="6329.4 645.87 6275.4 654.87 6199.4 444.87 6325.4 444.87 6329.4 645.87"/><path d="M6073.52,684.7h40a0,0,0,0,1,0,0v71.59a19.41,19.41,0,0,1-19.41,19.41h0a20.59,20.59,0,0,1-20.59-20.59V684.7a0,0,0,0,1,0,0Z" transform="translate(126.57 2165.35) rotate(-20.36)"/><path d="M6269.89,760.37h40a0,0,0,0,1,0,0V832a19.41,19.41,0,0,1-19.41,19.41h0a20.59,20.59,0,0,1-20.59-20.59V760.37A0,0,0,0,1,6269.89,760.37Z" transform="translate(5484.03 7095.76) rotate(-90)"/><rect class="cls-1" x="6000" width="500" height="900"/><rect class="cls-2" x="6748.72" y="203.5" width="33" height="27" transform="translate(5130.36 6785.29) rotate(-77.86)"/><rect class="cls-2" x="6714.83" y="104.06" width="128" height="86" rx="30" transform="translate(5167.21 6733.17) rotate(-77.49)"/><path class="cls-3" d="M6845.33,88.71l-8.67-.27-4-.13-3.3-.1a11.69,11.69,0,0,1-3.1-.51l-36-11a70.14,70.14,0,0,0-19.55-2.51l-7.74.33c-7.31.31-16.73,5.46-20.94,11.44l-1.55,2.21a59.68,59.68,0,0,0-7.92,17.94l-11,49.79a10,10,0,0,0,7.6,11.93l11.71,2.6a14.32,14.32,0,0,0,14.65-6.56l25.9-46.34a14.66,14.66,0,0,1,14.68-6.76l29.42,5.91a10.27,10.27,0,0,0,11.79-7.13L6841,102l1.74-3.6,3.77-7.8A1.21,1.21,0,0,0,6845.33,88.71Z"/><path class="cls-3" d="M6808,645.2l-35.35-16.85-80.58-183.48h126L6814,641.47A4.14,4.14,0,0,1,6808,645.2Z"/><path class="cls-3" d="M6608.28,716.88l-14.23-23.63L6772,608.44l40,29.82a3.8,3.8,0,0,1-.64,7Z"/><polygon class="cls-8" points="6768.11 789.87 6738.11 785.87 6746.11 655.87 6792.11 655.87 6768.11 789.87"/><polygon class="cls-8" points="6792.11 655.87 6746.11 655.87 6692.11 444.87 6818 445 6792.11 655.87"/><path d="M6584.24,693.6h40a0,0,0,0,1,0,0V765.2a19.41,19.41,0,0,1-19.41,19.41h0A20.59,20.59,0,0,1,6584.24,764V693.6A0,0,0,0,1,6584.24,693.6Z" transform="translate(350.61 2987.29) rotate(-26.16)"/><path d="M6763.61,760.37h40a0,0,0,0,1,0,0V832a19.41,19.41,0,0,1-19.41,19.41h0a20.59,20.59,0,0,1-20.59-20.59V760.37a0,0,0,0,1,0,0Z" transform="translate(5977.74 7589.47) rotate(-90)"/><path class="cls-4" d="M6818.11,444.87h-126V275a47.09,47.09,0,0,1,47.09-47.09h32.08a46.83,46.83,0,0,1,46.83,46.82Z"/><path class="cls-5" d="M6896.89,414.2l-7.14-20.94a3.46,3.46,0,0,1,.11-2.51l29.25-61.88c1.22-2.78,5.8-4.79,7-2L6933,338a10.07,10.07,0,0,1,0,8l-29.6,68.55A3.46,3.46,0,0,1,6896.89,414.2Z"/><path class="cls-6" d="M6899.25,402l-3.34-15.4a3,3,0,0,1,.22-1.85l22.43-45.49c.95-2,4-3.52,4.61-1.47l3.74,8.16a8.49,8.49,0,0,1-.48,5.85l-23.05,50.39C6902.4,404.35,6899.73,404.22,6899.25,402Z"/><path class="cls-2" d="M6909.11,396.87h0c-5.13,8.2-15.8,7.13-24,2l-144.3-82.39a17.51,17.51,0,0,1-5.55-24.14l4.07-6.5a17.52,17.52,0,0,1,24.14-5.56l139.64,92.59C6911.31,378,6914.24,388.67,6909.11,396.87Z"/><path class="cls-7" d="M6754.7,260.87h0a28.79,28.79,0,0,1,28.79,28.79v50.21a0,0,0,0,1,0,0h-57.38a0,0,0,0,1,0,0V289.46a28.59,28.59,0,0,1,28.59-28.59Z" transform="translate(2916.63 5866.88) rotate(-57.96)"/><rect class="cls-1" x="6500" width="500" height="900"/><rect class="cls-2" x="7207.96" y="104.06" width="128" height="86" rx="30" transform="translate(5553.55 7214.6) rotate(-77.49)"/><path class="cls-3" d="M7338.46,88.71l-8.66-.27-4-.13-3.29-.1a11.62,11.62,0,0,1-3.1-.51l-36-11a70.19,70.19,0,0,0-19.55-2.51l-7.75.33c-7.3.31-16.73,5.46-20.94,11.44l-1.55,2.21a59.93,59.93,0,0,0-7.92,17.94l-11,49.79a10,10,0,0,0,7.59,11.93l11.72,2.6a14.3,14.3,0,0,0,14.64-6.56l25.9-46.34a14.68,14.68,0,0,1,14.69-6.76l29.42,5.91a10.28,10.28,0,0,0,11.79-7.13l3.64-7.54c.47-1,1.26-2.61,1.73-3.6l3.77-7.8A1.21,1.21,0,0,0,7338.46,88.71Z"/><rect class="cls-2" x="7239.96" y="203.36" width="33" height="27" transform="translate(5518.42 7265.44) rotate(-77.86)"/><path class="cls-3" d="M7349.8,607.72l-38.56-6.85-126-156h126l43.27,157.68A4.14,4.14,0,0,1,7349.8,607.72Z"/><path class="cls-3" d="M7176.24,729.87l-20-19,149-129L7351.7,600a3.79,3.79,0,0,1,1.26,7Z"/><polygon class="cls-8" points="7259.24 789.87 7232.24 789.87 7185.24 444.87 7311 445 7259.24 789.87"/><path class="cls-4" d="M7311.24,444.87h-126V275a47.09,47.09,0,0,1,47.09-47.09h32.09a46.82,46.82,0,0,1,46.82,46.82Z"/><path class="cls-5" d="M7390,414.2l-7.14-20.94a3.46,3.46,0,0,1,.1-2.51l29.25-61.88c1.22-2.78,5.81-4.79,7-2l6.85,11.09a10,10,0,0,1,0,8l-29.6,68.55A3.46,3.46,0,0,1,7390,414.2Z"/><path class="cls-6" d="M7392.39,402l-3.35-15.4a3,3,0,0,1,.22-1.85l22.43-45.49c1-2,4-3.52,4.61-1.47L7420,346a8.43,8.43,0,0,1-.48,5.85l-23.05,50.39C7395.54,404.35,7392.87,404.22,7392.39,402Z"/><path class="cls-2" d="M7402.24,396.87h0c-5.13,8.2-15.8,7.13-24,2L7234,316.48a17.52,17.52,0,0,1-5.56-24.14l4.07-6.5a17.52,17.52,0,0,1,24.14-5.56l139.64,92.59C7404.44,378,7407.37,388.67,7402.24,396.87Z"/><path class="cls-7" d="M7247.84,260.87h0a28.79,28.79,0,0,1,28.79,28.79v50.21a0,0,0,0,1,0,0h-57.38a0,0,0,0,1,0,0V289.46A28.59,28.59,0,0,1,7247.84,260.87Z" transform="translate(3148.15 6284.89) rotate(-57.96)"/><path d="M7158.24,706.87h40a0,0,0,0,1,0,0v71.59a19.41,19.41,0,0,1-19.41,19.41h0a20.59,20.59,0,0,1-20.59-20.59V706.87a0,0,0,0,1,0,0Z" transform="translate(1307.61 4951.04) rotate(-41.56)"/><path d="M7256.74,760.37h40a0,0,0,0,1,0,0V832a19.41,19.41,0,0,1-19.41,19.41h0a20.59,20.59,0,0,1-20.59-20.59V760.37a0,0,0,0,1,0,0Z" transform="translate(6470.88 8082.61) rotate(-90)"/><rect class="cls-1" x="7000" width="500" height="900"/><rect class="cls-2" x="7703.89" y="104.06" width="128" height="86" rx="30" transform="translate(5942.08 7698.76) rotate(-77.49)"/><path class="cls-3" d="M7834.39,88.71l-8.66-.27-4-.13-3.3-.1a11.69,11.69,0,0,1-3.1-.51l-36-11a70.09,70.09,0,0,0-19.55-2.51l-7.74.33c-7.31.31-16.73,5.46-20.94,11.44l-1.55,2.21a59.68,59.68,0,0,0-7.92,17.94l-11.05,49.79a10,10,0,0,0,7.6,11.93l11.71,2.6a14.32,14.32,0,0,0,14.65-6.56l25.9-46.34a14.66,14.66,0,0,1,14.68-6.76l29.42,5.91a10.27,10.27,0,0,0,11.79-7.13L7830,102l1.74-3.6,3.77-7.8A1.21,1.21,0,0,0,7834.39,88.71Z"/><rect class="cls-2" x="7735.89" y="203.36" width="33" height="27" transform="translate(5910.05 7750.28) rotate(-77.86)"/><path class="cls-3" d="M7876.17,594.87l-43,2-152-152h126l74,143C7882,590.8,7879.16,595.4,7876.17,594.87Z"/><path class="cls-3" d="M7745.54,761.39,7721,748.87,7827,582.76l49.7,4.15a3.79,3.79,0,0,1,3.19,6.31Z"/><path d="M7740.17,719.87h40a0,0,0,0,1,0,0v71.59a19.41,19.41,0,0,1-19.41,19.41h0a20.59,20.59,0,0,1-20.59-20.59V719.87A0,0,0,0,1,7740.17,719.87Z" transform="translate(2994.47 6937.41) rotate(-57.96)"/><path class="cls-4" d="M7807.17,444.87h-126V275a47.09,47.09,0,0,1,47.09-47.09h32.08a46.83,46.83,0,0,1,46.83,46.82Z"/><polygon class="cls-8" points="7707.17 789.87 7677.17 785.87 7711.17 633.87 7761.17 645.87 7707.17 789.87"/><polygon class="cls-8" points="7761.17 645.87 7711.17 633.87 7681.17 444.87 7807.17 444.87 7761.17 645.87"/><path class="cls-5" d="M7886,414.2l-7.14-20.94a3.46,3.46,0,0,1,.11-2.51l29.25-61.88c1.22-2.78,5.81-4.79,7-2L7922,338a10.07,10.07,0,0,1,0,8l-29.6,68.55A3.46,3.46,0,0,1,7886,414.2Z"/><path class="cls-6" d="M7888.31,402l-3.34-15.4a3,3,0,0,1,.22-1.85l22.43-45.49c.95-2,4-3.52,4.61-1.47L7916,346a8.49,8.49,0,0,1-.48,5.85l-23.05,50.39C7891.46,404.35,7888.79,404.22,7888.31,402Z"/><path class="cls-2" d="M7898.17,396.87h0c-5.13,8.2-15.8,7.13-24,2l-144.3-82.39a17.52,17.52,0,0,1-5.55-24.14l4.07-6.5a17.52,17.52,0,0,1,24.14-5.56l139.64,92.59C7900.37,378,7903.3,388.67,7898.17,396.87Z"/><path class="cls-7" d="M7743.76,260.87h0a28.79,28.79,0,0,1,28.79,28.79v50.21a0,0,0,0,1,0,0h-57.38a0,0,0,0,1,0,0V289.46a28.59,28.59,0,0,1,28.59-28.59Z" transform="translate(3380.98 6705.28) rotate(-57.96)"/><path d="M7702.67,760.37h40a0,0,0,0,1,0,0V832a19.41,19.41,0,0,1-19.41,19.41h0a20.59,20.59,0,0,1-20.59-20.59V760.37A0,0,0,0,1,7702.67,760.37Z" transform="translate(6916.8 8528.53) rotate(-90)"/><rect class="cls-1" x="7500" width="500" height="900"/><rect class="cls-2" x="8221.39" y="104.06" width="128" height="86" rx="30" transform="translate(6347.5 8203.98) rotate(-77.49)"/><path class="cls-3" d="M8351.89,88.71l-8.66-.27-4-.13-3.3-.1a11.69,11.69,0,0,1-3.1-.51l-36-11a70.09,70.09,0,0,0-19.55-2.51l-7.74.33c-7.31.31-16.73,5.46-20.94,11.44l-1.55,2.21a59.68,59.68,0,0,0-7.92,17.94l-11,49.79a10,10,0,0,0,7.6,11.93l11.71,2.6a14.32,14.32,0,0,0,14.65-6.56L8288,117.5a14.66,14.66,0,0,1,14.68-6.76l29.42,5.91a10.27,10.27,0,0,0,11.79-7.13l3.64-7.54,1.74-3.6,3.77-7.8A1.21,1.21,0,0,0,8351.89,88.71Z"/><rect class="cls-2" x="8253.39" y="203.36" width="33" height="27" transform="translate(6318.72 8256.21) rotate(-77.86)"/><path class="cls-3" d="M8393.67,594.87l-25,5-170-155h126l88,127C8413.47,574.8,8406.67,586.87,8393.67,594.87Z"/><path class="cls-3" d="M8359.64,783.27l-27.55-1.3,30.58-206.1,44.81-5.59a3.8,3.8,0,0,1,5.51,4.45Z"/><path d="M8352.43,748.56h40a0,0,0,0,1,0,0v71.59A19.41,19.41,0,0,1,8373,839.56h0A20.59,20.59,0,0,1,8352.43,819V748.56a0,0,0,0,1,0,0Z" transform="translate(5144.26 8559.82) rotate(-72.85)"/><path class="cls-4" d="M8324.67,444.87h-126V275a47.09,47.09,0,0,1,47.09-47.09h32.08a46.83,46.83,0,0,1,46.83,46.82Z"/><polygon class="cls-8" points="8209.67 789.87 8179.67 785.87 8213.67 633.87 8263.67 645.87 8209.67 789.87"/><polygon class="cls-8" points="8263.67 645.87 8213.67 633.87 8198.67 444.87 8324.67 444.87 8263.67 645.87"/><path d="M8205.17,760.37h40a0,0,0,0,1,0,0V832a19.41,19.41,0,0,1-19.41,19.41h0a20.59,20.59,0,0,1-20.59-20.59V760.37A0,0,0,0,1,8205.17,760.37Z" transform="translate(7419.3 9031.03) rotate(-90)"/><path class="cls-5" d="M8403.45,414.2l-7.14-20.94a3.46,3.46,0,0,1,.11-2.51l29.25-61.88c1.22-2.78,5.81-4.79,7-2l6.85,11.09a10.07,10.07,0,0,1,0,8l-29.6,68.55A3.46,3.46,0,0,1,8403.45,414.2Z"/><path class="cls-6" d="M8405.81,402l-3.34-15.4a3,3,0,0,1,.22-1.85l22.43-45.49c.95-2,4-3.52,4.61-1.47l3.74,8.16a8.49,8.49,0,0,1-.48,5.85l-23,50.39C8409,404.35,8406.29,404.22,8405.81,402Z"/><path class="cls-2" d="M8415.67,396.87h0c-5.13,8.2-15.8,7.13-24,2l-144.3-82.39a17.52,17.52,0,0,1-5.55-24.14l4.07-6.5a17.52,17.52,0,0,1,24.14-5.56l139.64,92.59C8417.87,378,8420.8,388.67,8415.67,396.87Z"/><path class="cls-7" d="M8261.26,260.87h0A28.79,28.79,0,0,1,8290,289.65v50.21a0,0,0,0,1,0,0h-57.38a0,0,0,0,1,0,0V289.46A28.59,28.59,0,0,1,8261.26,260.87Z" transform="translate(3623.94 7143.95) rotate(-57.96)"/><rect class="cls-1" x="8000" width="500" height="900"/><rect class="cls-2" x="8725.95" y="106.57" width="128" height="86" rx="30" transform="translate(6740.36 8698.53) rotate(-77.49)"/><path class="cls-3" d="M8856.45,91.22l-8.66-.28-4-.12-3.29-.1a12,12,0,0,1-3.1-.52l-36-11a69.82,69.82,0,0,0-19.55-2.51l-7.75.33c-7.3.31-16.72,5.45-20.93,11.43l-1.56,2.21a60,60,0,0,0-7.92,18l-11,49.79a10,10,0,0,0,7.6,11.92l11.71,2.6a14.3,14.3,0,0,0,14.64-6.56l25.9-46.33a14.67,14.67,0,0,1,14.69-6.76l29.42,5.91a10.27,10.27,0,0,0,11.79-7.13l3.64-7.54,1.74-3.61,3.76-7.8A1.2,1.2,0,0,0,8856.45,91.22Z"/><rect class="cls-2" x="8757.95" y="205.87" width="33" height="27" transform="translate(6714.73 8751.47) rotate(-77.86)"/><path class="cls-3" d="M8898.23,597.37l-25,5-170-155h126l88,127C8918,577.3,8911.23,589.37,8898.23,597.37Z"/><path class="cls-3" d="M8891.76,784.61l-27.5,2.06,4-191L8912.85,574a3.78,3.78,0,0,1,6,3.61Z"/><path class="cls-4" d="M8829.23,447.37h-126V277.46a47.09,47.09,0,0,1,47.09-47.09h32.09a46.82,46.82,0,0,1,46.82,46.82Z"/><path class="cls-5" d="M8908,416.71l-7.14-20.94a3.45,3.45,0,0,1,.11-2.51l29.24-61.89c1.22-2.77,5.81-4.78,7-2l6.86,11.1a10.07,10.07,0,0,1,0,7.95L8914.48,417A3.47,3.47,0,0,1,8908,416.71Z"/><path class="cls-6" d="M8910.38,404.52,8907,389.13a2.89,2.89,0,0,1,.22-1.85l22.43-45.49c.94-2,4-3.52,4.61-1.47l3.74,8.16a8.52,8.52,0,0,1-.48,5.84l-23,50.39C8913.53,406.85,8910.86,406.73,8910.38,404.52Z"/><path class="cls-2" d="M8920.23,399.37h0c-5.13,8.2-15.8,7.13-24,2L8751.94,319a17.52,17.52,0,0,1-5.56-24.14l4.08-6.51a17.52,17.52,0,0,1,24.14-5.55l139.63,92.58C8922.43,380.5,8925.37,391.17,8920.23,399.37Z"/><path class="cls-7" d="M8765.83,263.37h0a28.79,28.79,0,0,1,28.79,28.79v50.21a0,0,0,0,1,0,0h-57.38a0,0,0,0,1,0,0V292A28.59,28.59,0,0,1,8765.83,263.37Z" transform="translate(3858.7 7572.83) rotate(-57.96)"/><path d="M8891.35,755.21h38.77a0,0,0,0,1,0,0v72.34a18.81,18.81,0,0,1-18.81,18.81h0a20,20,0,0,1-20-20V755.21A0,0,0,0,1,8891.35,755.21Z" transform="translate(8643.12 9743.43) rotate(-93.42)"/><polygon class="cls-8" points="8699.24 792.37 8669.24 788.37 8703.24 636.37 8750.24 645.37 8699.24 792.37"/><polygon class="cls-8" points="8750.24 645.37 8703.24 636.37 8703.24 447.37 8829.24 447.37 8750.24 645.37"/><path d="M8692.73,751.87h40a0,0,0,0,1,0,0v71.59a19.41,19.41,0,0,1-19.41,19.41h0a20.59,20.59,0,0,1-20.59-20.59V751.87a0,0,0,0,1,0,0Z" transform="translate(5850.89 9065.22) rotate(-76.14)"/><rect class="cls-1" x="8500" width="500" height="900"/></svg>
