<svg id="Layer_1" data-name="Layer 1" xmlns="http://www.w3.org/2000/svg" width="380" height="470" viewBox="0 0 380 470"><defs><style>.cls-1{fill:#152230;}.cls-2{fill:#caebf6;}.cls-3{fill:none;stroke:#000;stroke-miterlimit:10;stroke-width:5px;}.cls-4{fill:#fff;}</style></defs><title>Ur</title><path class="cls-1" d="M224,116.61V88h32.5a23.5,23.5,0,0,0,0-47h-111a23.5,23.5,0,0,0,0,47H178v28.61a164,164,0,1,0,46,0Z"/><path class="cls-2" d="M216,116.61V88h32.5a23.5,23.5,0,0,0,0-47h-111a23.5,23.5,0,0,0,0,47H170v28.61a164,164,0,1,0,46,0Z"/><ellipse cx="50.5" cy="278.5" rx="13.5" ry="5.5"/><line class="cls-3" x1="116.86" y1="142.28" x2="130.83" y2="160.63"/><ellipse cx="337.5" cy="278.5" rx="13.5" ry="5.5"/><ellipse cx="192.5" cy="425.5" rx="5.5" ry="13.5"/><ellipse cx="192.5" cy="131.5" rx="5.5" ry="13.5"/><line class="cls-3" x1="59.86" y1="206.69" x2="79.83" y2="218.22"/><line class="cls-3" x1="55.37" y1="343.26" x2="76.33" y2="333.65"/><line class="cls-3" x1="268.83" y1="411.63" x2="254.86" y2="393.28"/><line class="cls-3" x1="325.83" y1="350.22" x2="305.86" y2="338.69"/><line class="cls-3" x1="120.62" y1="418.44" x2="135.07" y2="400.47"/><line class="cls-3" x1="311.37" y1="225.26" x2="332.33" y2="215.65"/><line class="cls-3" x1="261.08" y1="167.79" x2="274.61" y2="149.12"/><circle class="cls-4" cx="192" cy="274" r="127"/></svg>
